<svg xmlns="http://www.w3.org/2000/svg" xmlns:xlink="http://www.w3.org/1999/xlink" width="1080" zoomAndPan="magnify" viewBox="0 0 810 1439.999935" height="1920" preserveAspectRatio="xMidYMid meet" version="1.0"><defs><clipPath id="60b3c74d56"><path d="M 0 0.792969 L 810 0.792969 L 810 609 L 0 609 Z M 0 0.792969 " clip-rule="nonzero"/></clipPath><clipPath id="addb168b2b"><path d="M 0 0.792969 L 726 0.792969 L 726 547 L 0 547 Z M 0 0.792969 " clip-rule="nonzero"/></clipPath><clipPath id="c121507f80"><path d="M 0 0.792969 L 591 0.792969 L 591 456 L 0 456 Z M 0 0.792969 " clip-rule="nonzero"/></clipPath><clipPath id="883dbbfcb6"><path d="M 0 0.792969 L 433 0.792969 L 433 224 L 0 224 Z M 0 0.792969 " clip-rule="nonzero"/></clipPath></defs><rect x="-81" width="972" fill="#ffffff" y="-143.999994" height="1727.999922" fill-opacity="1"/><rect x="-81" width="972" fill="#ffffff" y="-143.999994" height="1727.999922" fill-opacity="1"/><path fill="#182651" d="M 843.441406 852.339844 L 843.441406 1470.078125 L -23.019531 1470.078125 C 15.855469 1375.851562 130.0625 1272.050781 246.058594 1226.222656 C 373.183594 1175.992188 432.945312 1222.847656 516.511719 1157.039062 C 630.074219 1067.605469 579.367188 934.09375 683.1875 870.859375 C 730.140625 842.261719 788.375 840.414062 843.441406 852.339844 Z M 843.441406 852.339844 " fill-opacity="1" fill-rule="nonzero"/><path fill="#182651" d="M 97.71875 1470.078125 C 151.125 1395.855469 240.5 1324.859375 330.96875 1289.121094 C 458.09375 1238.890625 517.855469 1285.734375 601.421875 1219.933594 C 714.984375 1130.503906 664.273438 996.992188 768.097656 933.753906 C 791.070312 919.769531 816.753906 912.167969 843.441406 909.460938 L 843.441406 1470.078125 Z M 97.71875 1470.078125 " fill-opacity="1" fill-rule="nonzero"/><path fill="#182651" d="M 237.234375 1470.078125 C 287.902344 1420.578125 351.617188 1377.390625 415.878906 1352.003906 C 543.003906 1301.773438 602.765625 1348.628906 686.332031 1282.820312 C 796.238281 1196.269531 752.285156 1068.4375 843.441406 1002.964844 L 843.441406 1470.078125 Z M 237.234375 1470.078125 " fill-opacity="1" fill-rule="nonzero"/><path fill="#182651" d="M 843.441406 1470.078125 L 398.722656 1470.078125 C 431.253906 1447.671875 465.945312 1428.671875 500.789062 1414.902344 C 627.914062 1364.671875 687.675781 1411.515625 771.242188 1345.714844 C 810.652344 1314.683594 830.285156 1278.332031 843.441406 1241.457031 Z M 843.441406 1470.078125 " fill-opacity="1" fill-rule="nonzero"/><g clip-path="url(#60b3c74d56)"><path fill="#182651" d="M 0 601.898438 L 0 0.570312 L 843.445312 0.570312 C 805.605469 92.292969 694.429688 193.335938 581.515625 237.945312 C 457.765625 286.84375 399.59375 241.230469 318.246094 305.292969 C 207.699219 392.351562 257.0625 522.316406 155.996094 583.871094 C 110.289062 611.710938 53.605469 613.503906 0 601.898438 Z M 0 601.898438 " fill-opacity="1" fill-rule="nonzero"/></g><g clip-path="url(#addb168b2b)"><path fill="#182651" d="M 725.914062 0.570312 C 673.925781 72.820312 586.925781 141.929688 498.859375 176.722656 C 375.113281 225.617188 316.9375 180.015625 235.589844 244.070312 C 125.042969 331.125 174.40625 461.089844 73.34375 522.644531 C 50.980469 536.261719 25.976562 543.660156 0 546.296875 L 0 0.570312 Z M 725.914062 0.570312 " fill-opacity="1" fill-rule="nonzero"/></g><g clip-path="url(#c121507f80)"><path fill="#182651" d="M 590.101562 0.570312 C 540.78125 48.753906 478.761719 90.792969 416.207031 115.507812 C 292.457031 164.402344 234.285156 118.789062 152.9375 182.855469 C 45.949219 267.101562 88.734375 391.542969 0 455.277344 L 0 0.570312 Z M 590.101562 0.570312 " fill-opacity="1" fill-rule="nonzero"/></g><g clip-path="url(#883dbbfcb6)"><path fill="#182651" d="M 0 0.570312 L 432.90625 0.570312 C 401.238281 22.382812 367.46875 40.878906 333.550781 54.28125 C 209.804688 103.175781 151.628906 57.574219 70.28125 121.628906 C 31.921875 151.835938 12.808594 187.222656 0 223.117188 Z M 0 0.570312 " fill-opacity="1" fill-rule="nonzero"/></g></svg>