<svg xmlns="http://www.w3.org/2000/svg" viewBox="-6.07485 -8.54735 12.136 10.776">
        <defs>
                <filter id="neon-glow" x="-100%" y="-100%" width="500%" height="600%">
                        <feGaussianBlur in="SourceAlpha" stdDeviation=".6" result="blur" />
                        <feOffset result="offsetblur" />
                        <feFlood flood-color="#FF0137ff" result="color" />
                        <feComposite in2="offsetblur" operator="in" />
                        <feMerge>
                                <feMergeNode />
                                <feMergeNode in="SourceGraphic" />
                        </feMerge>
                </filter>
        </defs>
        <path d="M.85-5.989l-2.444.018c-3.862-2.495-3.441 9.486-.337 4.973m.969-4.976.004.986 2.167-.015-.005-.624M1.465-5.97c4.166-2.609 3.401 9.323.457 4.923M2.617-5.658l0 0m.464.546 0 0m-.463.498 0 0m-.492-.492 0 0M-2.759-5.467l.001 1.044m-.492-.492.955-.006M-.595-1 .46-.999-.595-1M-2.109-2.297a.7.7 0 10-.006-.018L-2.109-2.297M.396-2.593a.7.7 0 10.004-.027L.396-2.593"
                filter="url(#neon-glow)" stroke="#FFFFFF" stroke-width=".2" fill="none" />
        <path d="M.85-5.989l-2.444.018c-3.862-2.495-3.441 9.486-.337 4.973m.969-4.976.004.986 2.167-.015-.005-.624M1.465-5.97c4.166-2.609 3.401 9.323.457 4.923M2.617-5.658l0 0m.464.546 0 0m-.463.498 0 0m-.492-.492 0 0M-2.759-5.467l.001 1.044m-.492-.492.955-.006M-.595-1 .46-.999-.595-1M-2.109-2.297a.7.7 0 10-.006-.018L-2.109-2.297M.396-2.593a.7.7 0 10.004-.027L.396-2.593"
                filter="url(#neon-glow)" stroke="#FFFFFF" stroke-width=".2" fill="none" />
        <path d="M.85-5.989l-2.444.018c-3.862-2.495-3.441 9.486-.337 4.973m.969-4.976.004.986 2.167-.015-.005-.624M1.465-5.97c4.166-2.609 3.401 9.323.457 4.923M2.617-5.658l0 0m.464.546 0 0m-.463.498 0 0m-.492-.492 0 0M-2.759-5.467l.001 1.044m-.492-.492.955-.006M-.595-1 .46-.999-.595-1M-2.109-2.297a.7.7 0 10-.006-.018L-2.109-2.297M.396-2.593a.7.7 0 10.004-.027L.396-2.593"
                filter="url(#neon-glow)" stroke="#FFFFFF" stroke-width=".2" fill="none" />
        <path d="M.85-5.989l-2.444.018c-3.862-2.495-3.441 9.486-.337 4.973m.969-4.976.004.986 2.167-.015-.005-.624M1.465-5.97c4.166-2.609 3.401 9.323.457 4.923M2.617-5.658l0 0m.464.546 0 0m-.463.498 0 0m-.492-.492 0 0M-2.759-5.467l.001 1.044m-.492-.492.955-.006M-.595-1 .46-.999-.595-1M-2.109-2.297a.7.7 0 10-.006-.018L-2.109-2.297M.396-2.593a.7.7 0 10.004-.027L.396-2.593"
                filter="url(#neon-glow)" stroke="#FFFFFF" stroke-width=".2" fill="none" />
        <path d="M.85-5.989l-2.444.018c-3.862-2.495-3.441 9.486-.337 4.973m.969-4.976.004.986 2.167-.015-.005-.624M1.465-5.97c4.166-2.609 3.401 9.323.457 4.923M2.617-5.658l0 0m.464.546 0 0m-.463.498 0 0m-.492-.492 0 0M-2.759-5.467l.001 1.044m-.492-.492.955-.006M-.595-1 .46-.999-.595-1M-2.109-2.297a.7.7 0 10-.006-.018L-2.109-2.297M.396-2.593a.7.7 0 10.004-.027L.396-2.593"
                filter="url(#neon-glow)" stroke="#FFFFFF" stroke-width=".2" fill="none" />
        <path d="M.85-5.989l-2.444.018c-3.862-2.495-3.441 9.486-.337 4.973m.969-4.976.004.986 2.167-.015-.005-.624M1.465-5.97c4.166-2.609 3.401 9.323.457 4.923M2.617-5.658l0 0m.464.546 0 0m-.463.498 0 0m-.492-.492 0 0M-2.759-5.467l.001 1.044m-.492-.492.955-.006M-.595-1 .46-.999-.595-1M-2.109-2.297a.7.7 0 10-.006-.018L-2.109-2.297M.396-2.593a.7.7 0 10.004-.027L.396-2.593"
                filter="url(#neon-glow)" stroke="#FFFFFF" stroke-width=".2" fill="none" />


</svg>