<svg xmlns="http://www.w3.org/2000/svg" xmlns:xlink="http://www.w3.org/1999/xlink" width="1080" zoomAndPan="magnify" viewBox="0 0 810 1439.999935" height="1920" preserveAspectRatio="xMidYMid meet" version="1.0"><path fill="#ffffff" d="M 276.5625 710.960938 C 199.589844 528.972656 467.433594 419.007812 541.101562 601.972656 C 598.472656 774.269531 356.496094 873.617188 276.5625 710.960938 Z M 609.285156 792.839844 C 763.664062 786.226562 744.035156 558.695312 590.664062 578.964844 C 592.273438 583.105469 593.738281 587.292969 595.066406 591.53125 C 596.394531 595.773438 597.578125 600.050781 598.617188 604.367188 C 599.65625 608.683594 600.546875 613.035156 601.296875 617.410156 C 602.042969 621.789062 602.644531 626.1875 603.09375 630.605469 C 603.546875 635.023438 603.847656 639.453125 604.003906 643.890625 C 604.15625 648.328125 604.164062 652.769531 604.019531 657.207031 C 603.875 661.644531 603.582031 666.074219 603.140625 670.492188 C 602.699219 674.914062 602.109375 679.3125 601.375 683.691406 C 600.636719 688.070312 599.753906 692.421875 598.726562 696.742188 C 597.695312 701.0625 596.523438 705.34375 595.207031 709.585938 C 593.890625 713.828125 592.433594 718.019531 590.832031 722.164062 C 589.234375 726.304688 587.5 730.390625 585.625 734.417969 C 583.753906 738.445312 581.746094 742.40625 579.609375 746.296875 C 577.46875 750.191406 575.203125 754.007812 572.808594 757.746094 C 570.414062 761.484375 567.894531 765.140625 565.253906 768.710938 C 562.613281 772.28125 559.855469 775.761719 556.980469 779.148438 C 560.953125 781.394531 565.050781 783.375 569.28125 785.089844 C 573.507812 786.804688 577.828125 788.242188 582.242188 789.394531 C 586.65625 790.550781 591.125 791.417969 595.652344 791.992188 C 600.179688 792.570312 604.722656 792.851562 609.285156 792.839844 Z M 203.445312 792.839844 C 208.007812 792.851562 212.554688 792.570312 217.078125 791.996094 C 221.605469 791.417969 226.074219 790.550781 230.488281 789.398438 C 234.902344 788.242188 239.222656 786.804688 243.453125 785.089844 C 247.679688 783.375 251.78125 781.394531 255.75 779.148438 C 252.875 775.761719 250.121094 772.28125 247.476562 768.710938 C 244.835938 765.140625 242.320312 761.484375 239.925781 757.746094 C 237.53125 754.007812 235.261719 750.191406 233.125 746.296875 C 230.984375 742.40625 228.980469 738.445312 227.105469 734.417969 C 225.234375 730.390625 223.5 726.304688 221.898438 722.164062 C 220.300781 718.019531 218.84375 713.828125 217.527344 709.585938 C 216.210938 705.34375 215.039062 701.0625 214.007812 696.742188 C 212.980469 692.421875 212.097656 688.070312 211.359375 683.691406 C 210.621094 679.3125 210.03125 674.914062 209.589844 670.492188 C 209.148438 666.074219 208.859375 661.644531 208.714844 657.207031 C 208.570312 652.769531 208.574219 648.328125 208.730469 643.890625 C 208.882812 639.453125 209.1875 635.023438 209.636719 630.605469 C 210.089844 626.1875 210.691406 621.789062 211.4375 617.410156 C 212.183594 613.035156 213.078125 608.683594 214.117188 604.367188 C 215.15625 600.050781 216.339844 595.773438 217.664062 591.53125 C 218.992188 587.292969 220.460938 583.105469 222.066406 578.964844 C 68.601562 558.714844 49.171875 786.292969 203.445312 792.839844 Z M 520.832031 848.15625 C 490.65625 848.273438 413.175781 848.070312 384.183594 848.15625 L 291.898438 848.15625 C 290.023438 848.15625 288.148438 848.199219 286.277344 848.289062 C 284.402344 848.378906 282.53125 848.515625 280.667969 848.699219 C 278.800781 848.882812 276.9375 849.109375 275.082031 849.382812 C 273.226562 849.65625 271.378906 849.976562 269.542969 850.339844 C 267.703125 850.703125 265.871094 851.113281 264.050781 851.566406 C 262.234375 852.019531 260.425781 852.519531 258.628906 853.0625 C 256.835938 853.605469 255.054688 854.191406 253.289062 854.820312 C 251.523438 855.453125 249.773438 856.125 248.039062 856.839844 C 246.304688 857.554688 244.589844 858.3125 242.894531 859.113281 C 241.199219 859.914062 239.523438 860.753906 237.867188 861.636719 C 236.214844 862.519531 234.582031 863.441406 232.972656 864.40625 C 231.363281 865.367188 229.777344 866.367188 228.214844 867.410156 C 226.65625 868.449219 225.121094 869.527344 223.613281 870.644531 C 222.105469 871.757812 220.628906 872.910156 219.175781 874.097656 C 217.726562 875.285156 216.304688 876.507812 214.914062 877.765625 C 213.523438 879.023438 212.164062 880.316406 210.835938 881.640625 C 209.507812 882.964844 208.210938 884.320312 206.953125 885.707031 C 205.691406 887.097656 204.464844 888.515625 203.273438 889.964844 C 202.082031 891.410156 200.925781 892.886719 199.808594 894.394531 C 198.6875 895.898438 197.605469 897.429688 196.5625 898.988281 C 195.519531 900.546875 194.511719 902.128906 193.546875 903.734375 C 192.582031 905.34375 191.65625 906.972656 190.769531 908.625 C 189.882812 910.277344 189.035156 911.953125 188.234375 913.644531 C 187.429688 915.339844 186.667969 917.054688 185.945312 918.785156 C 185.226562 920.515625 184.546875 922.265625 183.914062 924.027344 C 183.28125 925.792969 182.691406 927.574219 182.140625 929.367188 C 181.59375 931.160156 181.09375 932.96875 180.632812 934.785156 C 180.175781 936.605469 179.761719 938.433594 179.394531 940.273438 C 179.023438 942.109375 178.703125 943.957031 178.425781 945.8125 C 178.144531 947.667969 177.914062 949.527344 177.726562 951.394531 C 177.539062 953.257812 177.398438 955.128906 177.304688 957 C 177.210938 958.875 177.160156 960.75 177.15625 962.625 L 177.15625 1020.132812 L 635.847656 1020.132812 L 635.574219 962.625 C 635.570312 960.75 635.523438 958.875 635.429688 957 C 635.332031 955.128906 635.191406 953.257812 635.003906 951.394531 C 634.820312 949.527344 634.585938 947.667969 634.308594 945.8125 C 634.03125 943.957031 633.707031 942.109375 633.339844 940.273438 C 632.96875 938.433594 632.558594 936.605469 632.097656 934.785156 C 631.640625 932.96875 631.136719 931.160156 630.589844 929.367188 C 630.042969 927.574219 629.453125 925.792969 628.816406 924.027344 C 628.183594 922.265625 627.507812 920.515625 626.785156 918.785156 C 626.066406 917.054688 625.304688 915.339844 624.5 913.644531 C 623.695312 911.953125 622.851562 910.277344 621.964844 908.625 C 621.078125 906.972656 620.152344 905.34375 619.1875 903.734375 C 618.21875 902.128906 617.214844 900.546875 616.171875 898.988281 C 615.128906 897.429688 614.046875 895.898438 612.925781 894.394531 C 611.808594 892.886719 610.652344 891.410156 609.460938 889.964844 C 608.269531 888.515625 607.042969 887.097656 605.78125 885.710938 C 604.519531 884.320312 603.226562 882.964844 601.898438 881.640625 C 600.570312 880.316406 599.210938 879.023438 597.820312 877.765625 C 596.429688 876.507812 595.007812 875.285156 593.558594 874.097656 C 592.105469 872.910156 590.628906 871.757812 589.121094 870.644531 C 587.613281 869.527344 586.078125 868.449219 584.515625 867.410156 C 582.957031 866.367188 581.371094 865.367188 579.761719 864.40625 C 578.152344 863.441406 576.519531 862.519531 574.867188 861.636719 C 573.210938 860.753906 571.535156 859.914062 569.839844 859.113281 C 568.144531 858.3125 566.429688 857.554688 564.695312 856.839844 C 562.960938 856.125 561.210938 855.453125 559.445312 854.820312 C 557.679688 854.191406 555.898438 853.605469 554.105469 853.0625 C 552.308594 852.519531 550.5 852.019531 548.679688 851.566406 C 546.863281 851.113281 545.03125 850.703125 543.191406 850.339844 C 541.351562 849.976562 539.503906 849.65625 537.648438 849.382812 C 535.796875 849.109375 533.933594 848.882812 532.066406 848.699219 C 530.199219 848.515625 528.332031 848.378906 526.457031 848.289062 C 524.585938 848.199219 522.710938 848.15625 520.835938 848.15625 Z M 772.222656 962.625 C 772.210938 960.617188 772.144531 958.613281 772.023438 956.609375 C 771.90625 954.605469 771.734375 952.605469 771.511719 950.609375 C 771.289062 948.617188 771.015625 946.628906 770.6875 944.648438 C 770.363281 942.667969 769.984375 940.695312 769.554688 938.734375 C 769.128906 936.773438 768.648438 934.824219 768.117188 932.890625 C 767.589844 930.953125 767.007812 929.03125 766.378906 927.125 C 765.75 925.21875 765.070312 923.332031 764.34375 921.460938 C 763.617188 919.589844 762.839844 917.738281 762.015625 915.910156 C 761.191406 914.078125 760.320312 912.269531 759.402344 910.484375 C 758.484375 908.699219 757.523438 906.941406 756.511719 905.203125 C 755.503906 903.46875 754.449219 901.761719 753.351562 900.082031 C 752.253906 898.402344 751.113281 896.75 749.929688 895.128906 C 748.746094 893.507812 747.519531 891.917969 746.253906 890.363281 C 744.988281 888.804688 743.679688 887.28125 742.335938 885.792969 C 740.988281 884.300781 739.605469 882.847656 738.183594 881.429688 C 736.765625 880.011719 735.308594 878.632812 733.816406 877.292969 C 732.320312 875.949219 730.796875 874.648438 729.234375 873.382812 C 727.675781 872.121094 726.082031 870.902344 724.457031 869.722656 C 722.832031 868.539062 721.179688 867.402344 719.496094 866.308594 C 717.8125 865.214844 716.105469 864.167969 714.367188 863.160156 C 712.628906 862.15625 710.867188 861.195312 709.078125 860.285156 C 707.292969 859.371094 705.480469 858.503906 703.648438 857.683594 C 701.816406 856.863281 699.964844 856.09375 698.09375 855.371094 C 696.21875 854.648438 694.328125 853.972656 692.421875 853.347656 C 690.515625 852.722656 688.59375 852.148438 686.65625 851.625 C 684.71875 851.097656 682.765625 850.625 680.804688 850.199219 C 678.84375 849.777344 676.871094 849.402344 674.890625 849.082031 C 672.910156 848.761719 670.921875 848.492188 668.925781 848.273438 C 666.929688 848.054688 664.929688 847.890625 662.925781 847.777344 C 660.921875 847.660156 658.914062 847.601562 656.910156 847.589844 C 654.902344 847.578125 652.894531 847.621094 650.890625 847.71875 C 648.882812 847.8125 646.882812 847.957031 644.886719 848.15625 C 648.484375 851.988281 651.890625 855.980469 655.109375 860.136719 C 658.332031 864.289062 661.347656 868.585938 664.160156 873.023438 C 666.972656 877.464844 669.570312 882.027344 671.953125 886.710938 C 674.335938 891.394531 676.492188 896.183594 678.421875 901.070312 C 680.351562 905.960938 682.046875 910.929688 683.507812 915.976562 C 684.964844 921.027344 686.183594 926.132812 687.160156 931.296875 C 688.140625 936.460938 688.871094 941.660156 689.355469 946.890625 C 689.84375 952.125 690.082031 957.371094 690.070312 962.625 L 690.617188 1020.132812 L 772.496094 1020.132812 Z M 40.507812 962.625 L 40.234375 1020.132812 L 122.386719 1020.132812 L 122.386719 962.625 C 122.390625 957.367188 122.640625 952.117188 123.136719 946.882812 C 123.636719 941.644531 124.378906 936.445312 125.371094 931.277344 C 126.359375 926.113281 127.589844 921.003906 129.0625 915.953125 C 130.535156 910.90625 132.242188 905.9375 134.179688 901.046875 C 136.121094 896.160156 138.289062 891.375 140.683594 886.691406 C 143.078125 882.007812 145.6875 877.445312 148.511719 873.007812 C 151.335938 868.570312 154.363281 864.277344 157.589844 860.125 C 160.820312 855.972656 164.238281 851.984375 167.847656 848.15625 C 165.847656 847.957031 163.847656 847.8125 161.84375 847.71875 C 159.835938 847.621094 157.832031 847.582031 155.824219 847.589844 C 153.816406 847.601562 151.8125 847.660156 149.808594 847.777344 C 147.804688 847.890625 145.804688 848.054688 143.808594 848.273438 C 141.8125 848.492188 139.824219 848.761719 137.84375 849.082031 C 135.859375 849.402344 133.890625 849.777344 131.925781 850.199219 C 129.964844 850.625 128.015625 851.097656 126.078125 851.625 C 124.140625 852.148438 122.21875 852.722656 120.3125 853.347656 C 118.402344 853.972656 116.511719 854.648438 114.640625 855.371094 C 112.769531 856.09375 110.914062 856.863281 109.082031 857.683594 C 107.25 858.503906 105.441406 859.371094 103.652344 860.285156 C 101.867188 861.195312 100.105469 862.15625 98.367188 863.160156 C 96.628906 864.167969 94.917969 865.214844 93.234375 866.308594 C 91.550781 867.402344 89.898438 868.539062 88.273438 869.71875 C 86.652344 870.898438 85.058594 872.121094 83.5 873.382812 C 81.9375 874.648438 80.410156 875.949219 78.917969 877.289062 C 77.425781 878.632812 75.96875 880.011719 74.546875 881.429688 C 73.125 882.847656 71.742188 884.300781 70.398438 885.789062 C 69.050781 887.28125 67.746094 888.804688 66.480469 890.359375 C 65.214844 891.917969 63.988281 893.507812 62.804688 895.128906 C 61.621094 896.75 60.480469 898.402344 59.382812 900.082031 C 58.28125 901.761719 57.230469 903.46875 56.21875 905.203125 C 55.210938 906.9375 54.246094 908.699219 53.328125 910.484375 C 52.410156 912.269531 51.539062 914.078125 50.71875 915.90625 C 49.894531 917.738281 49.117188 919.589844 48.390625 921.460938 C 47.660156 923.332031 46.984375 925.21875 46.351562 927.125 C 45.722656 929.03125 45.144531 930.953125 44.613281 932.886719 C 44.085938 934.824219 43.605469 936.773438 43.175781 938.734375 C 42.75 940.695312 42.371094 942.664062 42.042969 944.644531 C 41.71875 946.625 41.445312 948.613281 41.222656 950.609375 C 41 952.605469 40.828125 954.601562 40.707031 956.605469 C 40.589844 958.609375 40.523438 960.617188 40.507812 962.625 Z M 40.507812 962.625 " fill-opacity="1" fill-rule="nonzero"/></svg>