<svg xmlns="http://www.w3.org/2000/svg" xmlns:xlink="http://www.w3.org/1999/xlink" width="1080" zoomAndPan="magnify" viewBox="0 0 810 1439.999935" height="1920" preserveAspectRatio="xMidYMid meet" version="1.0"><defs><clipPath id="666454ceb2"><path d="M 8 424.210938 L 802.21875 424.210938 L 802.21875 1015.960938 L 8 1015.960938 Z M 8 424.210938 " clip-rule="nonzero"/></clipPath></defs><g clip-path="url(#666454ceb2)"><path fill="#fcf6ed" d="M 14.886719 773.839844 C 20.789062 754.84375 20.789062 754.84375 30.605469 733.046875 C 30.390625 731.917969 30.269531 730.804688 30.269531 729.691406 C 30.253906 728.566406 30.285156 727.816406 30.375 727.070312 C 22.144531 714.128906 22.144531 714.128906 15.96875 702.34375 C 15.621094 704.28125 15.101562 705.425781 14.566406 705.789062 C 13.761719 705.746094 13.242188 702.984375 13.425781 699.082031 C 13.59375 695.5625 14.386719 692.496094 15.207031 692.160156 C 15.984375 692.222656 16.535156 694.601562 16.414062 698.09375 C 30.269531 697.832031 30.269531 697.832031 51.183594 697.800781 C 57.023438 664.433594 57.023438 664.433594 64.554688 631.566406 C 63.730469 630.257812 63.394531 627.96875 63.746094 625.5 C 64.386719 621.261719 66.777344 617.191406 69.082031 616.429688 C 69.980469 616.351562 70.789062 616.613281 71.429688 617.175781 C 105.574219 588.65625 105.574219 588.65625 147.878906 558.898438 C 162.953125 540.253906 162.953125 540.253906 178.640625 521.917969 C 185.074219 509.265625 185.074219 509.265625 191.550781 496.992188 C 190.710938 496.550781 190.253906 495.621094 190.683594 494.25 C 191.0625 492.375 193.089844 490.40625 195.164062 489.902344 C 197.253906 489.429688 198.65625 490.542969 198.046875 492.648438 C 197.679688 494.554688 195.699219 496.472656 193.609375 496.945312 C 193.351562 497.113281 193.304688 497.070312 193.273438 497.023438 C 186.628906 509.492188 186.628906 509.492188 180.253906 522.160156 C 180.074219 522.402344 180.074219 522.402344 179.90625 522.648438 C 164.28125 540.878906 164.28125 540.878906 149.433594 559.171875 C 169.921875 581.09375 169.921875 581.09375 194.171875 605.820312 C 200.589844 579.921875 200.589844 579.921875 207.464844 554.84375 C 204.050781 554.339844 202.070312 551.277344 202.527344 547.480469 C 203.226562 542.738281 207.558594 538.320312 212.207031 537.570312 C 214.523438 537.222656 216.398438 537.953125 217.710938 539.265625 C 253.546875 510.332031 290.226562 483.304688 326.933594 458.546875 C 326.066406 457.554688 325.699219 456.320312 325.882812 454.964844 C 326.15625 452.875 327.375 451 329.617188 449.539062 C 320.179688 439.582031 320.179688 439.582031 311.382812 430.332031 C 311.09375 430.453125 310.5 430.589844 309.890625 430.679688 C 307.40625 430.96875 305.714844 429.8125 306.140625 428.121094 C 306.261719 426.535156 308.398438 425.011719 310.910156 424.691406 C 313.425781 424.398438 315.058594 425.527344 314.90625 427.144531 C 314.507812 427.984375 314.082031 428.683594 313.304688 429.292969 C 322.039062 438.546875 322.039062 438.546875 331.386719 448.515625 C 332.695312 447.921875 334.34375 447.480469 335.773438 447.402344 C 340.925781 447.054688 344.996094 449.828125 344.691406 453.652344 C 344.570312 454.371094 344.433594 455.054688 344.039062 455.742188 C 371.964844 463.835938 371.964844 463.835938 400.914062 473.152344 C 463.0625 469.78125 463.0625 469.78125 521.875 469.933594 C 521.492188 466.078125 524.921875 463.410156 529.726562 464.019531 C 534.816406 464.78125 539.101562 468.394531 539.878906 472.402344 C 540.074219 473.226562 540.015625 473.929688 539.695312 474.507812 C 584.542969 497.738281 584.542969 497.738281 626.523438 522.570312 C 634.832031 514.707031 634.832031 514.707031 642.273438 507.160156 C 641.90625 492.328125 641.90625 492.328125 641.066406 478.457031 C 638.398438 476.824219 635.929688 473.988281 635.09375 471.382812 C 633.980469 468.042969 635.992188 466.335938 639.316406 467.328125 C 642.867188 468.609375 646.617188 472.265625 647.761719 475.574219 C 648.84375 478.898438 646.980469 480.742188 643.628906 479.734375 C 643.292969 479.597656 642.972656 479.445312 642.652344 479.277344 C 643.429688 492.234375 643.429688 492.234375 643.886719 506.140625 C 667.484375 492.890625 667.484375 492.890625 685.519531 483.546875 C 685.320312 483.226562 685.152344 482.890625 685 482.542969 C 684.421875 481.09375 684.832031 480.238281 686.234375 481 C 687.621094 481.761719 689.117188 483.425781 689.710938 484.875 C 690.289062 486.320312 689.863281 487.160156 688.460938 486.398438 C 688.019531 486.277344 687.425781 485.820312 686.664062 484.996094 C 668.933594 494.402344 668.933594 494.402344 645.671875 507.570312 C 669.742188 513.335938 669.742188 513.335938 690.886719 519.507812 C 689.847656 515.925781 691.207031 514.066406 693.917969 515.195312 C 696.648438 516.320312 699.816406 520.222656 700.929688 523.792969 C 702.210938 527.648438 700.929688 529.765625 698.140625 528.625 C 695.503906 527.417969 692.699219 524.234375 691.3125 520.925781 C 669.148438 514.660156 669.148438 514.660156 643.75 508.835938 C 619.285156 532.921875 619.285156 532.921875 589.222656 562.585938 C 590.273438 563.960938 591.144531 565.773438 591.507812 567.695312 C 642.394531 578 642.394531 578 685.550781 589.339844 C 685.457031 585.574219 687.457031 583.199219 690.414062 583.882812 C 693.460938 584.539062 696.527344 588.425781 697.441406 592.601562 C 716.496094 598.53125 732.945312 604.050781 747.242188 610.042969 C 746.785156 606.382812 747.867188 604.492188 749.605469 605.058594 C 750.824219 605.40625 752.195312 607.269531 753.21875 609.644531 C 758.21875 606.0625 758.21875 606.0625 762.652344 603.015625 C 762.546875 602.664062 762.457031 602.296875 762.363281 601.917969 C 761.875 599.691406 762.167969 597.984375 763.097656 598.457031 C 764.148438 599.308594 765.367188 601.71875 765.855469 603.960938 C 766.34375 606.199219 766.070312 607.894531 765.125 607.390625 C 764.453125 606.8125 763.78125 605.835938 763.308594 604.796875 C 758.859375 607.816406 758.859375 607.816406 753.84375 611.367188 C 754.070312 612.070312 754.253906 612.785156 754.484375 613.867188 C 755.199219 617.863281 754.210938 620.4375 752.320312 619.859375 C 752.015625 619.570312 751.832031 619.617188 751.554688 619.324219 C 750.855469 654.523438 750.855469 654.523438 747.515625 692.039062 C 748.996094 693.640625 750.078125 696.691406 750.183594 699.816406 C 750.246094 701.902344 749.910156 704.007812 749.285156 705.425781 C 762.515625 738.519531 762.515625 738.519531 771.816406 768.992188 C 772.347656 767.941406 772.929688 767.269531 773.460938 767.332031 C 774.316406 767.054688 774.972656 767.894531 775.308594 769.433594 C 785.550781 749.523438 785.550781 749.523438 793.019531 731.324219 C 792.945312 730.546875 792.914062 729.371094 792.929688 728.59375 C 792.960938 725.484375 793.554688 722.757812 794.253906 722.757812 C 794.925781 722.757812 795.445312 725.105469 795.414062 728.640625 C 795.367188 731.765625 794.789062 734.496094 794.117188 734.480469 C 793.722656 734.464844 793.402344 733.671875 793.1875 732.496094 C 785.75 750.699219 785.75 750.699219 775.503906 770.972656 C 775.582031 771.371094 775.582031 772.117188 775.550781 772.878906 C 793.964844 763.503906 793.964844 763.503906 801.558594 755.867188 C 801.726562 753.886719 801.878906 752.695312 801.984375 752.300781 C 802.042969 752.300781 801.96875 753.902344 801.800781 755.882812 C 801.632812 757.878906 801.449219 759.464844 801.40625 759.464844 C 801.296875 759.859375 801.34375 758.65625 801.464844 757.054688 C 793.84375 765.058594 793.84375 765.058594 775.460938 774.375 C 775.367188 775.121094 775.246094 775.867188 775.078125 776.597656 C 786.617188 795.609375 786.617188 795.609375 791.558594 809.90625 C 791.96875 808.382812 792.457031 806.859375 792.730469 806.507812 C 793.171875 805.792969 793.003906 807.789062 792.363281 810.914062 C 791.695312 814.039062 790.808594 817.101562 790.367188 817.804688 C 789.894531 818.519531 790.0625 816.507812 790.71875 813.398438 C 790.886719 812.621094 791.070312 811.84375 791.160156 811.460938 C 786.296875 796.734375 786.296875 796.734375 774.683594 778.0625 C 773.996094 780.226562 773.019531 781.964844 772.105469 782.195312 C 771.25 782.4375 770.582031 781.566406 770.246094 780.011719 C 712.136719 855.320312 712.136719 855.320312 620.488281 937.253906 C 620.398438 938.019531 620.503906 938.566406 620.367188 939.285156 C 619.3125 943.476562 615.351562 947.378906 611.1875 948.324219 C 606.800781 949.40625 604.085938 946.828125 605.105469 942.574219 C 605.273438 941.890625 605.488281 941.234375 605.730469 940.625 C 577.285156 921.949219 544.4375 899.710938 507.757812 873.871094 C 518.519531 921.128906 518.519531 921.128906 527.164062 962.546875 C 547.515625 971.921875 547.515625 971.921875 566.296875 980.105469 C 567.46875 979.101562 568.828125 978.398438 570.425781 978.050781 C 573.339844 977.484375 575.121094 979.039062 574.496094 981.449219 C 574.101562 983.6875 571.203125 986.128906 568.277344 986.722656 C 565.609375 987.148438 563.660156 985.730469 564.054688 983.445312 C 564.359375 982.742188 564.421875 982.269531 565.046875 981.554688 C 546.964844 973.839844 546.964844 973.839844 527.5 964.96875 C 529.921875 988.535156 529.921875 988.535156 531.828125 1009.40625 C 534.101562 1009.085938 535.320312 1010.246094 535 1011.828125 C 534.664062 1013.445312 532.574219 1015.015625 530.304688 1015.382812 C 528.019531 1015.730469 526.539062 1014.679688 526.875 1013.050781 C 527.074219 1011.890625 528.277344 1010.703125 529.695312 1010.046875 C 527.820312 988.902344 527.820312 988.902344 525.378906 965 C 500.167969 985.167969 500.167969 985.167969 475.472656 1003.628906 C 475.929688 1004.269531 476.128906 1005.046875 476.050781 1005.898438 C 476.003906 1008.125 473.167969 1010.167969 469.878906 1010.425781 C 466.613281 1010.671875 464.144531 1009.023438 464.265625 1006.769531 C 464.648438 1004.40625 467.4375 1002.347656 470.640625 1002.132812 C 472.085938 1001.996094 473.03125 1002.242188 474.023438 1002.636719 C 499.34375 983.6875 499.34375 983.6875 525 963.0625 C 515.960938 920.792969 515.960938 920.792969 504.785156 872.40625 C 475.929688 879.113281 475.929688 879.113281 446.539062 885.441406 C 446.507812 886.019531 446.644531 886.554688 446.628906 887.132812 C 446.308594 895.089844 439.25 901.570312 430.425781 901.765625 C 424.039062 901.859375 418.671875 898.488281 416.1875 893.550781 C 369.875 908.125 369.875 908.125 325.347656 920.761719 C 325.546875 921.402344 325.746094 922.085938 325.714844 922.742188 C 326.15625 927.652344 321.917969 931.25 316.476562 930.914062 C 310.957031 930.519531 306.355469 926.386719 305.957031 921.570312 C 305.636719 918.734375 306.855469 916.296875 309.039062 914.816406 C 263.367188 848.125 263.367188 848.125 220.148438 777.269531 C 219.921875 777.332031 219.675781 777.40625 219.386719 777.285156 C 216.140625 777.238281 213.214844 775.210938 211.476562 772.191406 C 186.933594 795.789062 186.933594 795.789062 164.859375 817.667969 C 165.773438 819.222656 166.460938 821.171875 166.613281 823.0625 C 167.070312 828.214844 163.976562 831.902344 159.796875 831.460938 C 157.144531 831.171875 154.585938 829.054688 153.074219 826.445312 C 120.117188 843.140625 120.117188 843.140625 93.882812 856.507812 C 94.25 857.453125 94.402344 858.125 94.628906 859.128906 C 95.390625 863.246094 93.914062 866.171875 91.125 865.195312 C 88.53125 864.480469 85.726562 860.425781 84.765625 855.945312 C 84.15625 852.820312 84.875 850.683594 86.230469 849.769531 C 76.824219 821.554688 68.625 792.957031 61.703125 764.160156 C 47.175781 748.289062 47.175781 748.289062 35.34375 734.007812 C 34.886719 735.867188 34.066406 737.375 33.089844 737.054688 C 33.59375 768.71875 33.59375 768.71875 35.773438 799.097656 C 37.007812 800 38.304688 803.152344 38.882812 806.875 C 39.429688 810.59375 38.789062 813.445312 37.28125 812.667969 C 39.523438 828.125 39.523438 828.125 42.097656 842.847656 C 43.363281 844.023438 44.859375 847.132812 45.664062 850.472656 C 46.582031 854.191406 46.125 856.386719 44.613281 855.320312 C 43.273438 854.585938 41.367188 850.792969 40.542969 847.40625 C 39.628906 843.65625 40.070312 841.507812 41.429688 842.269531 C 38.835938 827.527344 38.835938 827.527344 36.6875 812.421875 C 35.421875 811.171875 34.140625 807.972656 33.609375 804.585938 C 33.546875 804.207031 33.5 803.824219 33.457031 803.457031 C 23.5 791.78125 23.5 791.78125 15.910156 780.820312 C 16.015625 783.183594 15.726562 784.417969 15.207031 784.113281 C 14.859375 783.761719 14.507812 783.015625 14.15625 781.875 C 13.363281 798.902344 13.363281 798.902344 14.902344 814.054688 C 15.101562 814.832031 15.375 816.003906 15.648438 817.164062 C 16.304688 819.890625 16.734375 821.84375 16.503906 821.066406 C 16.503906 821.066406 16.304688 820.304688 16.136719 819.921875 C 15.453125 817.222656 14.796875 814.496094 14.171875 811.765625 C 13.972656 810.578125 13.898438 810.195312 14.003906 810.578125 C 14.125 810.957031 14.324219 811.734375 14.613281 812.894531 C 13.074219 797.742188 13.074219 797.742188 13.851562 780.730469 C 13.59375 779.570312 13.378906 778.414062 13.195312 776.84375 C 13.148438 776.445312 13.148438 776.445312 13.121094 776.050781 C 11.472656 773.09375 11.472656 773.09375 10.023438 770.074219 C 10.117188 772.054688 9.996094 773.277344 9.644531 772.925781 C 9.246094 772.574219 8.683594 769.84375 8.347656 766.675781 C 7.996094 763.109375 8.058594 760.699219 8.46875 761.066406 C 8.898438 761.414062 9.492188 764.160156 9.828125 767.710938 C 9.871094 768.09375 9.871094 768.09375 9.902344 768.488281 C 11.351562 771.507812 11.351562 771.507812 12.996094 774.480469 C 12.953125 772.496094 13.164062 770.882812 13.699219 771.21875 C 14.09375 771.566406 14.539062 772.695312 14.886719 773.839844 Z M 88.136719 849.738281 C 88.195312 849.710938 88.394531 850 88.457031 849.96875 C 86.808594 805.179688 86.808594 805.179688 88.273438 756.765625 C 84.796875 755.195312 82.113281 749.632812 81.917969 743.503906 C 81.855469 741.246094 82.128906 739.296875 82.648438 737.664062 C 65.972656 718.457031 65.972656 718.457031 52.207031 701.050781 C 65.148438 774.785156 65.148438 774.785156 87.28125 849.710938 C 87.527344 849.601562 87.890625 849.832031 88.136719 849.738281 Z M 89.660156 850.578125 C 90.941406 851.523438 92.082031 852.863281 93.042969 854.664062 C 119.21875 841.171875 119.21875 841.171875 152.070312 824.222656 C 151.792969 823.457031 151.535156 822.390625 151.414062 821.265625 C 151.277344 819.570312 151.460938 817.773438 152.023438 816.417969 C 122.085938 784.34375 122.085938 784.34375 96.261719 753.398438 C 94.828125 756.050781 92.707031 757.527344 90.347656 757.484375 C 90.054688 757.191406 89.796875 757.222656 89.554688 757.253906 C 88 805.546875 88 805.546875 89.660156 850.578125 Z M 33.378906 801.917969 C 33.394531 799.585938 34.066406 798.289062 35.085938 798.472656 C 32.953125 768.429688 32.953125 768.429688 32.464844 737.070312 C 31.886719 736.71875 31.367188 735.621094 30.984375 734.523438 C 21.136719 756.355469 21.136719 756.355469 15.222656 775.363281 C 15.390625 776.140625 15.589844 777.300781 15.726562 778.472656 C 15.773438 778.855469 15.800781 779.25 15.789062 779.25 C 23.394531 790.242188 23.394531 790.242188 33.378906 801.917969 Z M 32.875 721.78125 C 33.699219 721.78125 34.460938 722.953125 34.996094 724.800781 C 41.976562 712.390625 41.976562 712.390625 50.101562 699.84375 C 29.84375 699.691406 29.84375 699.691406 16.320312 699.648438 C 16.289062 700.027344 16.261719 700.425781 16.199219 700.804688 C 22.386719 712.605469 22.386719 712.605469 30.636719 725.578125 C 31.109375 723.335938 31.914062 721.78125 32.875 721.78125 Z M 35.390625 726.277344 C 35.605469 727.375 35.726562 728.472656 35.742188 729.585938 C 35.757812 730.683594 35.710938 731.414062 35.621094 732.164062 C 47.113281 746.15625 47.113281 746.15625 61.125 761.445312 C 55.332031 730.59375 55.332031 730.59375 51.199219 700.273438 C 42.679688 713.488281 42.679688 713.488281 35.390625 726.277344 Z M 745.734375 691.15625 C 746.007812 691.140625 746.3125 691.445312 746.554688 691.429688 C 749.894531 653.640625 749.894531 653.640625 750.640625 618.457031 C 749.316406 616.976562 748.066406 614.339844 747.441406 611.503906 C 725.304688 603.152344 725.304688 603.152344 697.714844 594.585938 C 697.914062 598.335938 696.097656 600.820312 693.371094 600.589844 C 696.28125 640.453125 697.273438 682.496094 696.097656 725.289062 C 698.996094 725.914062 701.402344 728.625 702.730469 732.238281 C 724.101562 716.597656 724.101562 716.597656 742.058594 702.039062 C 741.890625 701.035156 741.800781 700.363281 741.769531 699.34375 C 741.585938 694.601562 743.386719 691.035156 745.734375 691.15625 Z M 748.570312 706.492188 C 748.003906 707.207031 747.347656 707.925781 746.601562 707.953125 C 745.671875 742.574219 745.671875 742.574219 743.035156 777.132812 C 744.742188 777.40625 745.855469 780.042969 745.886719 783.230469 C 759.054688 778.992188 759.054688 778.992188 770.0625 775.121094 C 770.277344 773.277344 770.703125 771.476562 771.25 770.042969 C 761.863281 739.9375 761.863281 739.9375 748.570312 706.492188 Z M 745.597656 707.664062 C 744.359375 707.375 743.25 705.714844 742.546875 703.71875 C 724.636719 718.519531 724.636719 718.519531 703.308594 734.050781 C 703.644531 735.578125 703.8125 737.390625 703.796875 738.886719 C 703.707031 742.800781 702.578125 746.324219 700.808594 748.886719 C 711.664062 770.164062 711.664062 770.164062 721.039062 790 C 729.40625 788.046875 729.40625 788.046875 737.257812 785.820312 C 737.714844 781.765625 739.789062 777.984375 742 777.316406 C 744.667969 742.511719 744.667969 742.511719 745.597656 707.664062 Z M 770.046875 778.488281 C 769.957031 778.09375 769.957031 777.347656 769.988281 776.597656 C 758.949219 780.789062 758.949219 780.789062 745.75 785.316406 C 745.292969 789.128906 743.25 792.972656 741.128906 793.582031 C 738.8125 810.074219 738.8125 810.074219 736.207031 825.957031 C 754.878906 801.628906 754.878906 801.628906 770.046875 778.488281 Z M 614.453125 933.367188 C 616.203125 933.003906 617.484375 933.429688 618.597656 934.101562 C 674.164062 863.855469 674.164062 863.855469 719.148438 792.574219 C 671.722656 803.230469 671.722656 803.230469 611.386719 813.367188 C 610.824219 819.875 606.753906 825.515625 601.464844 827.847656 C 608.550781 884.664062 608.550781 884.664062 612.027344 934.296875 C 612.851562 933.871094 613.523438 933.703125 614.453125 933.367188 Z M 619.605469 935.089844 C 619.800781 935.289062 620 935.488281 619.984375 935.898438 C 684.332031 881.554688 684.332031 881.554688 734.605469 828 C 728.203125 811.125 728.203125 811.125 720.488281 792.878906 C 675.414062 864.511719 675.414062 864.511719 619.605469 935.089844 Z M 606.8125 938.734375 C 607.667969 937.484375 608.933594 936.21875 610.183594 935.378906 C 606.507812 885.699219 606.507812 885.699219 599.3125 828.71875 C 598.644531 828.855469 597.925781 828.976562 597.179688 829.070312 C 592.515625 829.464844 588.628906 827.027344 586.371094 823.351562 C 548.1875 847.300781 548.1875 847.300781 507.988281 871.003906 C 562.101562 908.976562 562.101562 908.976562 606.8125 938.734375 Z M 740.109375 793.71875 C 738.386719 793.351562 737.179688 791.003906 737.121094 787.878906 C 729.726562 789.816406 729.726562 789.816406 721.832031 791.84375 C 729.179688 809.296875 729.179688 809.296875 735.261719 825.652344 C 737.867188 809.832031 737.867188 809.832031 740.109375 793.71875 Z M 691.921875 600.179688 C 690.855469 599.617188 689.789062 598.699219 688.917969 597.726562 C 669.636719 624.097656 669.636719 624.097656 646.144531 653.441406 C 647.957031 656.078125 649.148438 659.433594 649.359375 663.03125 C 649.527344 666.628906 648.613281 669.921875 646.921875 672.3125 C 668.949219 701.371094 668.949219 701.371094 688.460938 728.640625 C 690.152344 726.660156 692.289062 725.257812 694.589844 725.273438 C 695.550781 661.078125 695.550781 661.078125 691.921875 600.179688 Z M 687.746094 596.199219 C 686.753906 594.601562 686.039062 592.878906 685.777344 591.292969 C 642.621094 580.132812 642.621094 580.132812 591.601562 569.8125 C 591.464844 572.085938 590.394531 573.851562 588.871094 575.074219 C 610.898438 611.597656 610.898438 611.597656 631.402344 648.425781 C 632.972656 647.664062 634.773438 647.328125 636.675781 647.480469 C 639.742188 647.800781 642.53125 649.28125 644.773438 651.75 C 668.246094 622.191406 668.246094 622.191406 687.746094 596.199219 Z M 218.777344 540.652344 C 219.507812 541.75 219.675781 543.335938 219.492188 544.964844 C 219.386719 545.910156 219.003906 546.960938 218.730469 547.738281 C 251.75 560.300781 251.75 560.300781 287.953125 574.796875 C 290.714844 570.363281 295.835938 567.101562 301.492188 566.75 C 301.933594 566.75 302.375 566.765625 302.832031 566.78125 C 317.46875 510.253906 317.46875 510.253906 331.949219 461.246094 C 330.46875 461.015625 329.203125 460.5 328.136719 459.78125 C 272.757812 497.953125 272.757812 497.953125 218.777344 540.652344 Z M 217.558594 549.78125 C 215.667969 552.527344 212.847656 554.433594 209.8125 554.84375 C 209.554688 554.949219 209.554688 554.949219 209.449219 554.859375 C 202.433594 580.316406 202.433594 580.316406 195.972656 606.550781 C 238.914062 594.84375 238.914062 594.84375 285.394531 583.65625 C 285.4375 583.152344 285.5 582.648438 285.425781 582.269531 C 285.546875 580.421875 286.003906 578.65625 286.796875 576.960938 C 250.484375 562.511719 250.484375 562.511719 217.558594 549.78125 Z M 343 457.34375 C 342.34375 458.121094 341.660156 458.804688 340.699219 459.402344 C 377.453125 508.609375 377.453125 508.609375 418.871094 567.832031 C 420.410156 566.613281 422.253906 565.699219 424.234375 565.132812 C 411.460938 517.238281 411.460938 517.238281 399.691406 474.75 C 370.851562 465.4375 370.851562 465.4375 343 457.34375 Z M 338.71875 460.421875 C 337.453125 460.941406 335.882812 461.320312 334.511719 461.398438 C 334.496094 461.367188 334.234375 461.398438 333.960938 461.429688 C 319.753906 510.453125 319.753906 510.453125 305.195312 567.039062 C 311.492188 568.257812 315.988281 573.394531 316.109375 579.875 C 364.160156 579.570312 364.160156 579.570312 413.214844 580.394531 C 413.09375 580.011719 413.109375 579.628906 413.136719 579.25 C 413.09375 575.5 414.527344 572.085938 417.011719 569.492188 C 375.457031 509.933594 375.457031 509.933594 338.71875 460.421875 Z M 539.191406 476.015625 C 538.628906 477.039062 537.589844 477.769531 536.371094 478.242188 C 558.003906 516.335938 558.003906 516.335938 579.390625 558.058594 C 580.152344 558 580.898438 557.953125 581.785156 558.136719 C 583.796875 558.257812 585.898438 559.324219 587.5625 560.804688 C 607.789062 541.199219 607.789062 541.199219 625.5625 523.820312 C 583.78125 499.140625 583.78125 499.140625 539.191406 476.015625 Z M 534.328125 478.546875 C 533.644531 478.652344 532.988281 478.699219 532.117188 478.578125 C 530.367188 478.378906 528.550781 477.695312 526.90625 476.703125 C 486.8125 518.347656 486.8125 518.347656 440.257812 568.914062 C 442.773438 571.171875 444.542969 574.128906 445.058594 577.390625 C 512.253906 570.574219 512.253906 570.574219 573.78125 566.460938 C 573.824219 566.414062 573.824219 566.414062 573.734375 566.183594 C 573.367188 562.726562 574.953125 559.933594 577.605469 558.730469 C 556.066406 516.792969 556.066406 516.792969 534.328125 478.546875 Z M 525.105469 475.375 C 524.054688 474.386719 523.125 473.136719 522.546875 471.777344 C 463.71875 471.519531 463.71875 471.519531 402.179688 474.886719 C 413.945312 517.097656 413.945312 517.097656 426.707031 564.644531 C 427.527344 564.554688 428.183594 564.492188 428.992188 564.507812 C 432.558594 564.585938 435.777344 565.636719 438.335938 567.390625 C 485 516.933594 485 516.933594 525.105469 475.375 Z M 71.976562 618.441406 C 72.265625 619.628906 72.449219 620.773438 72.234375 622.511719 C 94.78125 618.761719 94.78125 618.761719 121.992188 615.179688 C 123.394531 608.578125 128.042969 603.015625 133.152344 602.007812 C 133.59375 601.871094 133.929688 602.023438 134.371094 601.902344 C 140.40625 581.382812 140.40625 581.382812 146.808594 561.460938 C 105.40625 590.726562 105.40625 590.726562 71.976562 618.441406 Z M 71.871094 624.570312 C 71.886719 624.585938 71.792969 624.921875 71.703125 625.242188 C 87.480469 630.894531 87.480469 630.894531 106.152344 637.269531 C 113.914062 629.996094 113.914062 629.996094 122.039062 622.542969 C 121.597656 621.109375 121.503906 619.171875 121.671875 617.296875 C 94.476562 620.714844 94.476562 620.714844 71.871094 624.570312 Z M 71.03125 627.207031 C 70.5 628.503906 69.765625 629.738281 68.972656 630.589844 C 70.574219 645.5625 70.574219 645.5625 72.691406 660.910156 C 73.121094 660.636719 73.5 660.714844 73.988281 660.46875 C 76.136719 660.195312 77.769531 662.527344 78.089844 665.941406 C 90.589844 652.816406 90.589844 652.816406 104.402344 639.019531 C 86.382812 632.632812 86.382812 632.632812 71.03125 627.207031 Z M 67.890625 631.734375 C 67.511719 631.992188 67.082031 632.253906 66.75 632.160156 C 66.214844 632.375 65.773438 632.253906 65.34375 632.144531 C 57.984375 664.234375 57.984375 664.234375 52.25 696.8125 C 60.5 686.339844 60.5 686.339844 69.675781 675.4375 C 68.929688 673.960938 68.5625 671.855469 68.730469 669.480469 C 68.957031 666.429688 70.117188 663.535156 71.582031 662.070312 C 69.554688 646.382812 69.554688 646.382812 67.890625 631.734375 Z M 78.074219 668.289062 C 78.074219 668.289062 78.074219 668.289062 78.089844 668.289062 C 77.847656 671.582031 76.671875 674.417969 75.148438 675.867188 C 80.40625 703.078125 80.40625 703.078125 87.082031 731.109375 C 87.875 730.773438 88.714844 730.441406 89.597656 730.410156 C 90.511719 730.699219 91.382812 730.683594 92.222656 731.277344 C 104.292969 688.214844 104.292969 688.214844 119.355469 644.097656 C 112.542969 641.917969 112.542969 641.917969 106.109375 639.492188 C 91.414062 653.976562 91.414062 653.976562 78.074219 668.289062 Z M 74.003906 677.054688 C 73.578125 677.328125 73.179688 677.269531 72.707031 677.542969 C 71.902344 677.4375 71.125 677.328125 70.527344 676.566406 C 60.957031 687.773438 60.957031 687.773438 52.359375 698.578125 C 66.304688 716.429688 66.304688 716.429688 83.273438 735.699219 C 83.945312 734.082031 84.859375 732.773438 85.941406 732.101562 C 79.292969 703.671875 79.292969 703.671875 74.003906 677.054688 Z M 158.074219 812.757812 C 160.058594 812.863281 161.992188 814.070312 163.5625 815.945312 C 185.742188 793.777344 185.742188 793.777344 210.484375 769.984375 C 210.195312 769.023438 209.996094 768.046875 209.949219 767.238281 C 147.875 756.75 147.875 756.75 98.195312 746.734375 C 98.027344 748.59375 97.648438 750.484375 97.039062 751.78125 C 122.9375 782.679688 122.9375 782.679688 153.015625 814.90625 C 154.203125 813.335938 156.03125 812.667969 158.074219 812.757812 Z M 218.839844 756.507812 C 223.625 756.734375 227.632812 760.746094 228.304688 765.957031 C 253.5625 766.78125 253.5625 766.78125 279.890625 767.375 C 255.835938 744.664062 255.835938 744.664062 232.847656 722.269531 C 231.765625 722.648438 230.652344 722.816406 229.492188 722.816406 C 228.578125 722.816406 227.695312 722.832031 226.824219 722.46875 C 222.726562 739.539062 222.726562 739.539062 218.839844 756.507812 Z M 228.394531 768.550781 C 228.046875 772.421875 225.726562 775.789062 222.40625 776.78125 C 265.546875 847.421875 265.546875 847.421875 310.941406 913.824219 C 312.316406 913.429688 313.609375 913.171875 315.179688 913.292969 C 319.007812 913.476562 322.605469 915.714844 324.539062 918.78125 C 369.097656 906.050781 369.097656 906.050781 415.363281 891.433594 C 414.9375 890.226562 414.859375 888.949219 414.769531 887.636719 C 414.859375 886.660156 414.96875 885.699219 415.058594 884.785156 C 348.746094 829.207031 348.746094 829.207031 282.695312 769.953125 C 254.949219 769.296875 254.949219 769.296875 228.394531 768.550781 Z M 210.027344 764.785156 C 210.558594 760.835938 213.105469 757.757812 216.492188 756.75 C 220.453125 739.386719 220.453125 739.386719 224.660156 721.71875 C 220.484375 720.058594 217.253906 716.109375 216.046875 711.355469 C 150.148438 728.09375 150.148438 728.09375 98.179688 742.742188 C 98.226562 743.046875 98.273438 743.65625 98.289062 744.265625 C 98.304688 744.585938 98.304688 744.585938 98.289062 744.585938 C 147.953125 754.402344 147.953125 754.402344 210.027344 764.785156 Z M 645.703125 674.066406 C 643.71875 675.957031 641.113281 677.207031 638.171875 677.039062 C 633.492188 676.75 629.269531 673.351562 627.011719 668.671875 C 590.59375 686.035156 590.59375 686.035156 550.378906 704.675781 C 624.621094 721.261719 624.621094 721.261719 685.199219 735.609375 C 685.625 733.65625 686.359375 731.703125 687.332031 730.027344 C 667.746094 702.800781 667.746094 702.800781 645.703125 674.066406 Z M 626.082031 666.292969 C 625.578125 664.769531 625.289062 663.183594 625.230469 661.535156 C 624.9375 656.355469 626.8125 652.132812 629.847656 649.675781 C 609.191406 612.496094 609.191406 612.496094 587.226562 576.078125 C 586.113281 576.367188 585.03125 576.644531 583.734375 576.488281 C 579.574219 576.03125 575.730469 572.710938 574.359375 568.730469 C 512.652344 572.890625 512.652344 572.890625 445.304688 579.78125 C 445.320312 583.835938 443.640625 587.496094 440.835938 590.164062 C 476.90625 627.238281 512.453125 665.347656 546.691406 703.671875 C 588.382812 684.160156 588.382812 684.160156 626.082031 666.292969 Z M 699.636719 750.5625 C 698.082031 752.207031 696.191406 753.199219 694.164062 753.273438 C 690.914062 753.503906 688.082031 751.1875 686.402344 747.589844 C 651.175781 776.402344 651.175781 776.402344 610.472656 806.875 C 611.023438 808.0625 611.265625 809.632812 611.371094 811.140625 C 671.953125 800.957031 671.953125 800.957031 719.4375 790.652344 C 710.289062 770.898438 710.289062 770.898438 699.636719 750.5625 Z M 685.640625 745.820312 C 685.0625 743.792969 684.726562 741.796875 684.773438 739.539062 C 684.789062 738.976562 684.816406 738.414062 684.863281 737.847656 C 622.972656 723.246094 622.972656 723.246094 546.980469 706.550781 C 532.46875 731.140625 532.46875 731.140625 517.453125 756.1875 C 521.234375 759.113281 523.628906 763.839844 523.550781 769.128906 C 523.503906 771.75 522.835938 774.28125 521.722656 776.492188 C 555.441406 792.511719 555.441406 792.511719 586.90625 807.5 C 589.464844 802.878906 594.070312 799.511719 599.054688 799.265625 C 603.597656 798.976562 607.4375 801.15625 609.589844 804.832031 C 650.351562 774.417969 650.351562 774.417969 685.640625 745.820312 Z M 585.535156 821.21875 C 584.832031 819.433594 584.496094 817.40625 584.632812 815.179688 C 584.769531 813.214844 585.199219 811.386719 585.867188 809.695312 C 554.253906 794.722656 554.253906 794.722656 520.367188 778.71875 C 517.46875 782.757812 512.835938 785.441406 507.589844 785.625 C 504.953125 785.699219 502.53125 785.011719 500.363281 783.914062 C 470.425781 830.746094 470.425781 830.746094 440.347656 875.5625 C 443.109375 877.421875 445.121094 880.089844 446.113281 883.183594 C 475.988281 876.765625 475.988281 876.765625 505.457031 869.878906 C 546.433594 845.792969 546.433594 845.792969 585.535156 821.21875 Z M 430.898438 872.789062 C 433.6875 872.726562 436.15625 873.292969 438.292969 874.328125 C 468.320312 829.464844 468.320312 829.464844 498.261719 782.574219 C 494.710938 779.921875 492.332031 775.730469 491.996094 770.941406 C 423.335938 771.386719 353.734375 771.09375 286.429688 770.105469 C 351.109375 827.957031 351.109375 827.957031 415.851562 882.332031 C 418.246094 876.828125 424.113281 872.863281 430.898438 872.789062 Z M 135.925781 601.949219 C 139.675781 603 142.265625 606.992188 141.902344 612.726562 C 165.820312 609.90625 165.820312 609.90625 192.101562 607.160156 C 168.515625 582.785156 168.515625 582.785156 148.378906 561.367188 C 141.902344 581.503906 141.902344 581.503906 135.925781 601.949219 Z M 141.566406 615.042969 C 141.183594 617.328125 140.390625 619.449219 139.25 621.429688 C 159.355469 641.230469 159.355469 641.230469 182.207031 662.589844 C 187.449219 635.851562 187.449219 635.851562 193.378906 609.203125 C 166.324219 611.886719 166.324219 611.886719 141.566406 615.042969 Z M 138 623.378906 C 135.863281 626.230469 133.015625 628.257812 130.042969 628.746094 C 128.898438 628.976562 127.863281 628.929688 126.917969 628.609375 C 124.15625 635.714844 124.15625 635.714844 121.519531 642.574219 C 147.878906 651.671875 147.878906 651.671875 177.96875 661.933594 C 156.839844 641.765625 156.839844 641.765625 138 623.382812 Z M 125.605469 627.863281 C 124.324219 627.117188 123.304688 625.820312 122.585938 624.3125 C 115.117188 631.003906 115.117188 631.003906 107.800781 638.046875 C 113.820312 640.074219 113.820312 640.074219 120.101562 642.160156 C 122.816406 634.996094 122.816406 634.996094 125.605469 627.863281 Z M 315.851562 582.296875 C 314.753906 589.84375 307.863281 596.078125 299.890625 596.382812 C 294.921875 596.628906 290.636719 594.539062 288.0625 591.09375 C 255.757812 613.226562 255.757812 613.226562 224.738281 635.5625 C 255.394531 650.242188 255.394531 650.242188 288.214844 665.773438 C 351.507812 625.5 351.507812 625.5 415.472656 587.160156 C 414.632812 585.820312 414.054688 584.355469 413.609375 582.800781 C 364.21875 581.976562 364.21875 581.976562 315.851562 582.296875 Z M 286.855469 589.1875 C 286.382812 588.121094 285.941406 587.070312 285.667969 585.925781 C 239.554688 596.902344 239.554688 596.902344 196.734375 608.609375 C 209.308594 621.261719 209.308594 621.261719 222.695312 634.339844 C 254.050781 611.734375 254.050781 611.734375 286.855469 589.1875 Z M 438.992188 591.75 C 437.453125 592.800781 435.746094 593.609375 433.855469 594.082031 C 469.023438 673.03125 469.023438 673.03125 503.015625 754.066406 C 504.632812 753.472656 506.339844 753.109375 508.125 753.078125 C 510.714844 753.136719 513.199219 753.734375 515.363281 754.84375 C 530.378906 729.84375 530.378906 729.84375 544.894531 705.347656 C 492.894531 647.847656 492.894531 647.847656 438.992188 591.75 Z M 431.324219 594.539062 C 430.652344 594.585938 430.105469 594.628906 429.449219 594.617188 C 424.433594 594.554688 420.015625 592.433594 417.054688 589.144531 C 353.625 627.132812 353.625 627.132812 290.867188 666.949219 C 391.339844 714.691406 391.339844 714.691406 493.414062 763.078125 C 494.90625 759.648438 497.5 756.8125 500.714844 755.058594 C 466.570312 673.792969 466.570312 673.792969 431.324219 594.539062 Z M 492.042969 768.351562 C 492.132812 767.390625 492.332031 766.386719 492.558594 765.5 C 389.601562 716.71875 389.601562 716.71875 288.398438 668.5625 C 265.027344 684.050781 265.027344 684.050781 242.464844 699.386719 C 243.503906 701.492188 244.050781 703.992188 244.019531 706.734375 C 243.976562 713.152344 240.394531 718.839844 235.332031 721.261719 C 258.914062 744.191406 258.914062 744.191406 283.5625 767.390625 C 386.949219 768.703125 386.949219 768.703125 492.042969 768.351562 Z M 229.796875 690.972656 C 234.507812 690.957031 238.714844 693.257812 241.292969 697.222656 C 263.152344 682.3125 263.152344 682.3125 285.757812 667.328125 C 253.03125 651.871094 253.03125 651.871094 222.4375 637.34375 C 203.089844 651.046875 203.089844 651.046875 184.523438 664.859375 C 201.414062 680.179688 201.414062 680.179688 219.355469 696.277344 C 221.964844 693.121094 225.667969 691.15625 229.796875 690.972656 Z M 215.621094 708.882812 C 215.558594 708.304688 215.53125 707.542969 215.53125 706.980469 C 215.558594 703.761719 216.460938 700.820312 217.96875 698.167969 C 199.738281 681.964844 199.738281 681.964844 182.648438 666.246094 C 135.390625 703.929688 135.390625 703.929688 97.222656 738.199219 C 97.464844 738.792969 97.679688 739.707031 97.859375 740.621094 C 149.78125 725.820312 149.78125 725.820312 215.621094 708.882812 Z M 93.457031 732.175781 C 94.628906 733.0625 95.667969 734.570312 96.472656 736.386719 C 134.035156 702.222656 134.035156 702.222656 180.421875 665.210938 C 148.515625 654.328125 148.515625 654.328125 120.710938 644.785156 C 105.621094 688.671875 105.621094 688.671875 93.457031 732.175781 Z M 195.148438 610.164062 C 189.402344 636.125 189.402344 636.125 184.21875 662.421875 C 202.085938 649.082031 202.085938 649.082031 220.667969 635.835938 C 207.496094 622.800781 207.496094 622.800781 195.148438 610.164062 Z M 195.148438 610.164062 " fill-opacity="1" fill-rule="nonzero"/></g></svg>