<svg xmlns="http://www.w3.org/2000/svg" xmlns:xlink="http://www.w3.org/1999/xlink" width="1080" zoomAndPan="magnify" viewBox="0 0 810 1439.999935" height="1920" preserveAspectRatio="xMidYMid meet" version="1.0"><defs><clipPath id="ff0bb715f5"><path d="M 317 424.59375 L 493 424.59375 L 493 601 L 317 601 Z M 317 424.59375 " clip-rule="nonzero"/></clipPath><clipPath id="a0f014bde4"><path d="M 109.59375 622 L 315 622 L 315 827 L 109.59375 827 Z M 109.59375 622 " clip-rule="nonzero"/></clipPath><clipPath id="1b7798faa8"><path d="M 515 618 L 700.59375 618 L 700.59375 832 L 515 832 Z M 515 618 " clip-rule="nonzero"/></clipPath><clipPath id="83ac5dc11b"><path d="M 205 664 L 602 664 L 602 1015.59375 L 205 1015.59375 Z M 205 664 " clip-rule="nonzero"/></clipPath></defs><g clip-path="url(#ff0bb715f5)"><path fill="#ffffff" d="M 343.148438 574.375 C 343.148438 574.375 343.609375 574.835938 343.609375 574.835938 C 359.304688 590.527344 380.996094 600.222656 405 600.222656 C 429 600.222656 450.695312 590.527344 466.386719 574.835938 C 466.386719 574.835938 466.851562 574.375 466.851562 574.375 C 466.851562 574.375 467.3125 573.910156 467.3125 573.910156 C 483.003906 558.21875 492.699219 536.523438 492.699219 512.523438 C 492.699219 488.519531 483.003906 466.828125 467.3125 451.132812 C 467.3125 451.132812 466.851562 450.671875 466.851562 450.671875 C 466.851562 450.671875 466.386719 450.210938 466.386719 450.210938 C 450.695312 434.515625 429 424.824219 405 424.824219 C 380.996094 424.824219 359.304688 434.515625 343.609375 450.210938 C 343.609375 450.210938 343.148438 450.671875 343.148438 450.671875 C 343.148438 450.671875 342.6875 451.132812 342.6875 451.132812 C 326.992188 466.828125 317.300781 488.519531 317.300781 512.523438 C 317.300781 536.523438 326.992188 558.21875 342.6875 573.910156 C 342.6875 573.910156 342.6875 574.375 343.148438 574.375 Z M 344.996094 503.292969 L 336.226562 503.292969 C 338.070312 491.289062 342.6875 479.75 349.609375 470.519531 L 355.609375 476.519531 C 357.457031 478.367188 359.765625 479.289062 362.074219 479.289062 C 364.382812 479.289062 366.6875 478.367188 368.535156 476.519531 C 372.226562 472.828125 372.226562 467.289062 368.535156 463.597656 L 362.535156 457.59375 C 371.765625 450.671875 382.84375 445.59375 395.304688 444.210938 L 395.304688 452.519531 C 395.304688 457.59375 399.460938 461.75 404.539062 461.75 C 409.613281 461.75 413.769531 457.59375 413.769531 452.519531 L 413.769531 443.75 C 425.769531 445.59375 437.308594 450.210938 446.539062 457.132812 L 440.539062 463.132812 C 436.847656 466.828125 436.847656 472.367188 440.539062 476.058594 C 442.386719 477.90625 444.695312 478.828125 447.003906 478.828125 C 449.308594 478.828125 451.617188 477.90625 453.464844 476.058594 L 459.464844 470.058594 C 466.386719 479.289062 471.464844 490.367188 472.851562 502.828125 L 465.003906 502.828125 C 459.925781 502.828125 455.773438 506.984375 455.773438 512.0625 C 455.773438 517.136719 459.925781 521.292969 465.003906 521.292969 L 473.773438 521.292969 C 471.925781 533.292969 467.3125 544.832031 460.386719 554.0625 L 454.386719 548.0625 C 450.695312 544.371094 445.15625 544.371094 441.464844 548.0625 C 437.769531 551.757812 437.769531 557.296875 441.464844 560.988281 L 447.464844 566.988281 C 438.234375 573.910156 427.15625 578.988281 414.691406 580.375 L 414.691406 572.527344 C 414.691406 567.449219 410.539062 563.296875 405.460938 563.296875 C 400.382812 563.296875 396.230469 567.449219 396.230469 572.527344 L 396.230469 581.296875 C 384.230469 579.449219 372.6875 574.835938 363.457031 567.910156 L 369.457031 561.910156 C 373.152344 558.21875 373.152344 552.679688 369.457031 548.988281 C 365.765625 545.292969 360.226562 545.292969 356.535156 548.988281 L 350.535156 554.988281 C 343.609375 545.757812 338.53125 534.679688 337.148438 522.214844 L 344.996094 522.214844 C 350.074219 522.214844 354.226562 518.0625 354.226562 512.984375 C 354.226562 507.90625 350.074219 503.292969 344.996094 503.292969 Z M 344.996094 503.292969 " fill-opacity="1" fill-rule="nonzero"/></g><path fill="#ffffff" d="M 381.921875 521.753906 L 405 521.753906 C 410.078125 521.753906 414.230469 517.601562 414.230469 512.523438 L 414.230469 484.828125 C 414.230469 479.75 410.078125 475.597656 405 475.597656 C 399.921875 475.597656 395.769531 479.75 395.769531 484.828125 L 395.769531 503.292969 L 381.921875 503.292969 C 376.84375 503.292969 372.6875 507.445312 372.6875 512.523438 C 372.6875 517.601562 376.84375 521.753906 381.921875 521.753906 Z M 381.921875 521.753906 " fill-opacity="1" fill-rule="nonzero"/><g clip-path="url(#a0f014bde4)"><path fill="#ffffff" d="M 122.515625 752.078125 C 124.363281 757.617188 126.671875 763.15625 129.441406 768.695312 C 126.671875 776.542969 128.054688 785.773438 134.519531 791.773438 L 144.671875 801.929688 C 148.828125 806.082031 154.367188 808.390625 160.367188 808.390625 C 163.136719 808.390625 165.445312 807.929688 168.214844 807.003906 C 173.289062 809.773438 178.828125 812.082031 184.828125 813.929688 C 188.523438 821.316406 195.90625 826.851562 204.675781 826.851562 L 218.984375 826.851562 C 227.753906 826.851562 235.601562 821.777344 238.832031 813.929688 C 244.371094 812.082031 249.910156 809.773438 255.449219 807.003906 C 257.757812 807.929688 260.527344 808.390625 263.296875 808.390625 C 269.296875 808.390625 274.835938 806.082031 278.992188 801.929688 L 289.144531 791.773438 C 295.605469 785.3125 296.992188 776.542969 294.222656 768.695312 C 296.992188 763.617188 299.300781 758.078125 301.144531 752.078125 C 308.53125 748.386719 314.070312 741 314.070312 732.230469 L 314.070312 717.921875 C 314.070312 709.152344 308.992188 701.304688 301.144531 698.074219 C 299.300781 692.535156 296.992188 686.996094 294.222656 681.457031 C 295.144531 679.148438 295.605469 676.378906 295.605469 673.613281 C 295.605469 667.609375 293.300781 662.070312 289.144531 657.917969 L 278.988281 647.761719 C 274.835938 643.609375 269.296875 641.300781 263.296875 641.300781 C 260.527344 641.300781 258.21875 641.761719 255.449219 642.6875 C 250.371094 639.917969 244.832031 637.609375 238.832031 635.761719 C 235.140625 628.378906 227.753906 622.839844 218.984375 622.839844 L 204.675781 622.839844 C 195.90625 622.839844 188.058594 627.914062 184.828125 635.761719 C 179.289062 637.609375 173.75 639.917969 168.210938 642.6875 C 164.980469 642.222656 162.675781 641.761719 159.90625 641.761719 C 153.902344 641.761719 148.367188 644.070312 144.210938 648.226562 L 134.054688 658.378906 C 130.363281 662.070312 128.054688 667.609375 128.054688 673.613281 C 128.054688 676.378906 128.519531 678.6875 129.441406 681.457031 C 126.671875 686.535156 124.363281 692.074219 122.515625 698.074219 C 114.671875 701.304688 109.59375 708.691406 109.59375 717.921875 L 109.59375 732.230469 C 109.59375 741 114.671875 748.386719 122.515625 752.078125 Z M 128.054688 717.921875 C 128.054688 716.074219 129.441406 714.230469 131.75 714.230469 L 137.75 714.230469 C 139.59375 701.765625 144.671875 690.226562 151.597656 680.535156 L 147.441406 676.378906 C 146.058594 674.996094 146.058594 672.6875 147.441406 671.304688 L 157.597656 661.148438 C 158.058594 660.6875 158.980469 660.226562 159.90625 660.226562 C 160.828125 660.226562 161.75 660.6875 162.210938 661.148438 L 166.367188 665.304688 C 176.058594 657.917969 187.597656 653.300781 200.0625 651.457031 L 200.0625 645.457031 C 200.0625 643.609375 201.445312 641.761719 203.753906 641.761719 L 218.0625 641.761719 C 219.910156 641.761719 221.753906 643.148438 221.753906 645.457031 L 221.753906 651.457031 C 234.21875 653.300781 245.757812 658.378906 255.449219 665.304688 L 259.605469 661.148438 C 260.066406 660.6875 260.988281 660.226562 261.910156 660.226562 C 262.835938 660.226562 263.757812 660.6875 264.21875 661.148438 L 274.375 671.304688 C 275.757812 672.6875 275.757812 674.996094 274.375 676.378906 L 270.21875 680.535156 C 277.605469 690.226562 282.222656 701.765625 284.066406 714.230469 L 290.066406 714.230469 C 291.914062 714.230469 293.761719 715.613281 293.761719 717.921875 L 293.761719 732.230469 C 293.761719 734.078125 292.375 735.921875 290.066406 735.921875 L 284.066406 735.921875 C 282.222656 748.386719 277.144531 759.925781 270.21875 769.617188 L 274.375 773.773438 C 275.757812 775.15625 275.757812 777.464844 274.375 778.851562 L 264.21875 789.003906 C 264.21875 789.464844 263.296875 789.464844 262.375 789.464844 C 261.449219 789.464844 260.527344 789.003906 260.066406 788.542969 L 255.910156 784.390625 C 246.21875 791.773438 234.679688 796.390625 222.21875 798.234375 L 222.21875 804.238281 C 222.21875 806.082031 220.832031 807.929688 218.523438 807.929688 L 204.214844 807.929688 C 202.371094 807.929688 200.523438 806.542969 200.523438 804.238281 L 200.523438 798.234375 C 188.058594 796.390625 176.519531 791.3125 166.828125 784.390625 L 162.675781 788.542969 C 161.75 789.464844 160.828125 789.464844 159.90625 789.464844 C 158.980469 789.464844 158.058594 789.003906 157.597656 788.542969 L 147.441406 778.386719 C 146.058594 777.003906 146.058594 774.695312 147.441406 773.3125 L 151.597656 769.15625 C 144.210938 759.464844 139.59375 747.925781 137.75 735.460938 L 131.75 735.460938 C 129.441406 735.460938 128.054688 734.078125 128.054688 731.769531 Z M 128.054688 717.921875 " fill-opacity="1" fill-rule="nonzero"/></g><path fill="#ffffff" d="M 211.140625 780.234375 C 241.601562 780.234375 266.527344 755.308594 266.527344 724.847656 C 266.527344 694.382812 241.601562 669.457031 211.140625 669.457031 C 180.675781 669.457031 155.75 694.382812 155.75 724.847656 C 155.75 755.308594 180.675781 780.234375 211.140625 780.234375 Z M 211.140625 687.921875 C 231.449219 687.921875 248.066406 704.535156 248.066406 724.847656 C 248.066406 745.15625 231.449219 761.773438 211.140625 761.773438 C 190.828125 761.773438 174.214844 745.15625 174.214844 724.847656 C 174.214844 704.535156 190.828125 687.921875 211.140625 687.921875 Z M 211.140625 687.921875 " fill-opacity="1" fill-rule="nonzero"/><path fill="#ffffff" d="M 585.472656 600.222656 L 607.167969 600.222656 C 584.089844 561.910156 550.855469 530.523438 510.699219 510.214844 C 510.699219 511.136719 510.699219 511.597656 510.699219 512.523438 C 510.699219 518.523438 510.238281 524.523438 509.316406 530.0625 C 540.238281 547.140625 566.550781 571.140625 585.472656 600.222656 Z M 585.472656 600.222656 " fill-opacity="1" fill-rule="nonzero"/><g clip-path="url(#1b7798faa8)"><path fill="#ffffff" d="M 672.710938 637.148438 L 653.785156 637.148438 C 651.480469 626.53125 642.246094 618.683594 631.167969 618.683594 L 585.011719 618.683594 C 573.933594 618.683594 564.703125 626.53125 562.394531 637.148438 L 543.472656 637.148438 C 528.238281 637.148438 515.777344 649.609375 515.777344 664.839844 L 515.777344 803.3125 C 515.777344 818.546875 528.238281 831.007812 543.472656 831.007812 L 672.710938 831.007812 C 687.941406 831.007812 700.40625 818.546875 700.40625 803.3125 L 700.40625 664.839844 C 700.40625 649.609375 687.941406 637.148438 672.710938 637.148438 Z M 580.398438 641.761719 C 580.398438 638.992188 582.242188 637.148438 585.011719 637.148438 L 631.167969 637.148438 C 633.9375 637.148438 635.785156 638.992188 635.785156 641.761719 L 635.785156 650.996094 C 635.785156 653.765625 633.9375 655.609375 631.167969 655.609375 L 585.011719 655.609375 C 582.242188 655.609375 580.398438 653.765625 580.398438 650.996094 Z M 681.941406 803.3125 C 681.941406 808.390625 677.789062 812.542969 672.710938 812.542969 L 543.472656 812.542969 C 538.394531 812.542969 534.238281 808.390625 534.238281 803.3125 L 534.238281 664.839844 C 534.238281 659.765625 538.394531 655.609375 543.472656 655.609375 L 562.394531 655.609375 C 564.703125 666.226562 573.933594 674.074219 585.011719 674.074219 L 631.167969 674.074219 C 642.246094 674.074219 651.480469 666.226562 653.785156 655.609375 L 672.710938 655.609375 C 677.789062 655.609375 681.941406 659.765625 681.941406 664.839844 Z M 681.941406 803.3125 " fill-opacity="1" fill-rule="nonzero"/></g><path fill="#ffffff" d="M 645.015625 692.535156 L 571.164062 692.535156 C 566.089844 692.535156 561.933594 696.691406 561.933594 701.765625 C 561.933594 706.84375 566.089844 711 571.164062 711 L 645.015625 711 C 650.09375 711 654.25 706.84375 654.25 701.765625 C 654.25 696.691406 650.09375 692.535156 645.015625 692.535156 Z M 645.015625 692.535156 " fill-opacity="1" fill-rule="nonzero"/><path fill="#ffffff" d="M 645.015625 729.460938 L 571.164062 729.460938 C 566.089844 729.460938 561.933594 733.617188 561.933594 738.691406 C 561.933594 743.769531 566.089844 747.925781 571.164062 747.925781 L 645.015625 747.925781 C 650.09375 747.925781 654.25 743.769531 654.25 738.691406 C 654.25 733.617188 650.09375 729.460938 645.015625 729.460938 Z M 645.015625 729.460938 " fill-opacity="1" fill-rule="nonzero"/><path fill="#ffffff" d="M 645.015625 766.386719 L 571.164062 766.386719 C 566.089844 766.386719 561.933594 770.542969 561.933594 775.617188 C 561.933594 780.695312 566.089844 784.851562 571.164062 784.851562 L 645.015625 784.851562 C 650.09375 784.851562 654.25 780.695312 654.25 775.617188 C 654.25 770.542969 650.09375 766.386719 645.015625 766.386719 Z M 645.015625 766.386719 " fill-opacity="1" fill-rule="nonzero"/><path fill="#ffffff" d="M 218.0625 604.835938 C 218.984375 604.835938 219.910156 604.835938 220.832031 604.835938 C 240.21875 573.910156 267.449219 548.0625 299.761719 530.0625 C 299.300781 524.523438 298.835938 518.523438 298.835938 512.523438 C 298.835938 511.597656 298.835938 511.136719 298.835938 510.214844 C 257.296875 531.445312 222.679688 564.679688 199.601562 605.296875 C 200.984375 605.296875 202.371094 604.835938 203.753906 604.835938 Z M 218.0625 604.835938 " fill-opacity="1" fill-rule="nonzero"/><g clip-path="url(#83ac5dc11b)"><path fill="#ffffff" d="M 601.628906 849.46875 L 579.472656 849.46875 C 564.703125 869.78125 546.242188 886.859375 525.007812 901.167969 C 512.085938 895.628906 498.699219 889.628906 488.542969 885.472656 C 482.542969 882.703125 477.929688 880.855469 474.695312 879.472656 L 466.851562 854.085938 C 485.773438 830.085938 497.3125 796.390625 497.3125 765.464844 C 497.3125 710.074219 458.082031 664.839844 409.613281 664.839844 C 361.148438 664.839844 321.917969 710.074219 321.917969 765.464844 C 321.917969 796.390625 333.457031 830.085938 352.378906 854.085938 L 344.535156 879.011719 C 341.765625 880.394531 336.6875 882.242188 330.6875 885.011719 C 319.148438 890.089844 303.453125 897.011719 288.683594 903.011719 C 264.21875 887.320312 242.988281 867.472656 226.832031 843.46875 C 224.0625 843.929688 221.292969 844.394531 218.0625 844.394531 L 205.136719 844.394531 C 221.753906 870.703125 242.988281 893.320312 268.375 911.320312 C 257.296875 915.9375 248.988281 919.628906 247.601562 920.089844 C 244.832031 921.015625 242.527344 923.320312 242.0625 926.089844 L 220.371094 1003.175781 C 219.449219 1005.945312 220.371094 1009.175781 221.753906 1011.480469 C 223.140625 1013.789062 226.371094 1015.175781 229.140625 1015.175781 L 589.167969 1015.175781 C 591.9375 1015.175781 594.707031 1013.789062 596.550781 1011.480469 C 598.398438 1009.175781 598.859375 1006.40625 597.9375 1003.175781 L 576.242188 926.089844 C 575.320312 923.320312 573.472656 921.015625 570.703125 920.089844 C 569.320312 919.628906 558.242188 915.015625 544.394531 908.550781 C 567.011719 892.859375 586.398438 872.550781 601.628906 849.46875 Z M 340.378906 765.464844 C 340.378906 720.230469 371.304688 683.304688 409.613281 683.304688 C 447.925781 683.304688 478.851562 720.230469 478.851562 765.464844 C 478.851562 810.699219 447.925781 867.933594 409.613281 867.933594 C 371.304688 867.933594 340.378906 811.160156 340.378906 765.464844 Z M 560.085938 936.246094 L 577.164062 997.171875 L 241.601562 997.171875 L 258.679688 936.246094 C 266.988281 932.554688 287.296875 924.246094 337.609375 902.089844 C 356.074219 894.242188 356.074219 893.78125 357.457031 893.320312 C 358.84375 891.933594 360.226562 890.550781 360.6875 888.703125 L 366.6875 869.316406 C 379.152344 879.933594 393.921875 886.394531 409.152344 886.394531 C 424.386719 886.394531 439.15625 879.933594 451.617188 869.316406 L 457.617188 888.703125 C 458.082031 890.550781 459.464844 892.398438 460.851562 893.320312 C 461.773438 894.242188 462.234375 894.242188 480.234375 902.089844 C 531.46875 923.785156 551.78125 932.554688 560.085938 936.246094 Z M 560.085938 936.246094 " fill-opacity="1" fill-rule="nonzero"/></g></svg>