<svg xmlns="http://www.w3.org/2000/svg" xmlns:xlink="http://www.w3.org/1999/xlink" width="1080" zoomAndPan="magnify" viewBox="0 0 810 1439.999935" height="1920" preserveAspectRatio="xMidYMid meet" version="1.0"><defs><clipPath id="1f8f883f2a"><path d="M 0 0 L 810 0 L 810 553 L 0 553 Z M 0 0 " clip-rule="nonzero"/></clipPath><clipPath id="a878fe57ef"><path d="M 803.832031 835.019531 L -261.183594 524.902344 L -35.773438 -249.199219 L 1029.242188 60.921875 Z M 803.832031 835.019531 " clip-rule="nonzero"/></clipPath><clipPath id="2644d6fc85"><path d="M 803.832031 835.019531 L -261.183594 524.902344 L -35.773438 -249.199219 L 1029.242188 60.921875 Z M 803.832031 835.019531 " clip-rule="nonzero"/></clipPath><clipPath id="c86e690565"><path d="M 0 0 L 810 0 L 810 445 L 0 445 Z M 0 0 " clip-rule="nonzero"/></clipPath><clipPath id="80c8714066"><path d="M 803.832031 835.019531 L -261.183594 524.902344 L -35.773438 -249.199219 L 1029.242188 60.921875 Z M 803.832031 835.019531 " clip-rule="nonzero"/></clipPath><clipPath id="c88479cd52"><path d="M 803.832031 835.019531 L -261.183594 524.902344 L -35.773438 -249.199219 L 1029.242188 60.921875 Z M 803.832031 835.019531 " clip-rule="nonzero"/></clipPath><clipPath id="adfe14ebf8"><path d="M 0 0 L 710 0 L 710 326 L 0 326 Z M 0 0 " clip-rule="nonzero"/></clipPath><clipPath id="75f576340d"><path d="M 803.832031 835.019531 L -261.183594 524.902344 L -35.773438 -249.199219 L 1029.242188 60.921875 Z M 803.832031 835.019531 " clip-rule="nonzero"/></clipPath><clipPath id="cb7935cd68"><path d="M 803.832031 835.019531 L -261.183594 524.902344 L -35.773438 -249.199219 L 1029.242188 60.921875 Z M 803.832031 835.019531 " clip-rule="nonzero"/></clipPath><clipPath id="7c016d6958"><path d="M 0 0 L 511 0 L 511 32 L 0 32 Z M 0 0 " clip-rule="nonzero"/></clipPath><clipPath id="5aa9d4b070"><path d="M 803.832031 835.019531 L -261.183594 524.902344 L -35.773438 -249.199219 L 1029.242188 60.921875 Z M 803.832031 835.019531 " clip-rule="nonzero"/></clipPath><clipPath id="b6450b8bf2"><path d="M 803.832031 835.019531 L -261.183594 524.902344 L -35.773438 -249.199219 L 1029.242188 60.921875 Z M 803.832031 835.019531 " clip-rule="nonzero"/></clipPath><clipPath id="f9c96bea3f"><path d="M 0 892.492188 L 810 892.492188 L 810 1440 L 0 1440 Z M 0 892.492188 " clip-rule="nonzero"/></clipPath><clipPath id="334edc4d37"><path d="M 1119.867188 892.492188 L 1119.867188 1825.578125 L -112.644531 1825.578125 L -112.644531 1317.363281 C -27.550781 1174.097656 128.78125 1077.519531 306.609375 1077.519531 C 354.355469 1077.519531 400.523438 1084.46875 444.207031 1097.433594 C 591.636719 1141.164062 760.371094 1120.335938 869.101562 1011.601562 C 930.503906 950.199219 1019.640625 892.492188 1119.867188 892.492188 Z M 1119.867188 892.492188 " clip-rule="nonzero"/></clipPath></defs><rect x="-81" width="972" fill="#ffffff" y="-143.999994" height="1727.999922" fill-opacity="1"/><rect x="-81" width="972" fill="#f4f0e0" y="-143.999994" height="1727.999922" fill-opacity="1"/><g clip-path="url(#1f8f883f2a)"><g clip-path="url(#a878fe57ef)"><g clip-path="url(#2644d6fc85)"><path fill="#223a76" d="M -256.832031 510.214844 L -35.75 -249.035156 L 1029.199219 61.066406 C 947.699219 162.964844 770.179688 249.667969 611.207031 264.480469 C 436.984375 280.722656 380.300781 201.742188 254.039062 252.722656 C 82.453125 321.996094 96.996094 504.242188 -53.242188 544.804688 C -121.183594 563.152344 -193.417969 544.578125 -256.832031 510.214844 Z M -256.832031 510.214844 " fill-opacity="1" fill-rule="nonzero"/></g></g></g><g clip-path="url(#c86e690565)"><g clip-path="url(#80c8714066)"><g clip-path="url(#c88479cd52)"><path fill="#223a76" d="M 880.804688 17.855469 C 788.601562 89.964844 653.339844 145.238281 529.355469 156.789062 C 355.132812 173.027344 298.445312 94.0625 172.1875 145.03125 C 0.601562 214.304688 15.144531 396.550781 -135.089844 437.113281 C -168.335938 446.082031 -202.621094 446.230469 -236.390625 440.007812 L -35.75 -249.035156 Z M 880.804688 17.855469 " fill-opacity="1" fill-rule="nonzero"/></g></g></g><g clip-path="url(#adfe14ebf8)"><g clip-path="url(#75f576340d)"><g clip-path="url(#cb7935cd68)"><path fill="#223a76" d="M 709.324219 -32.078125 C 629.335938 10.628906 535.570312 40.902344 447.503906 49.109375 C 273.277344 65.347656 216.597656 -13.628906 90.332031 37.351562 C -75.722656 104.390625 -67.457031 277.238281 -202.925781 325.085938 L -35.75 -249.035156 Z M 709.324219 -32.078125 " fill-opacity="1" fill-rule="nonzero"/></g></g></g><g clip-path="url(#7c016d6958)"><g clip-path="url(#5aa9d4b070)"><g clip-path="url(#b6450b8bf2)"><path fill="#223a76" d="M -35.75 -249.035156 L 510.84375 -89.871094 C 462.84375 -73.972656 413.40625 -63.039062 365.652344 -58.585938 C 191.429688 -42.34375 134.742188 -121.308594 8.480469 -70.34375 C -51.0625 -46.304688 -88.203125 -8.652344 -117.570312 31.960938 Z M -35.75 -249.035156 " fill-opacity="1" fill-rule="nonzero"/></g></g></g><g clip-path="url(#f9c96bea3f)"><g clip-path="url(#334edc4d37)"><path fill="#223a76" d="M 0 892.492188 L 0 1440 L 810 1440 L 810 892.492188 Z M 0 892.492188 " fill-opacity="1" fill-rule="nonzero"/></g></g></svg>