<svg xmlns="http://www.w3.org/2000/svg" xmlns:xlink="http://www.w3.org/1999/xlink" width="1080" zoomAndPan="magnify" viewBox="0 0 810 1439.999935" height="1920" preserveAspectRatio="xMidYMid meet" version="1.0"><defs><clipPath id="9882232e4c"><path d="M 0.257812 2 L 678 2 L 678 1440 L 0.257812 1440 Z M 0.257812 2 " clip-rule="nonzero"/></clipPath><clipPath id="28984589cc"><path d="M 0.257812 2 L 550 2 L 550 1440 L 0.257812 1440 Z M 0.257812 2 " clip-rule="nonzero"/></clipPath><clipPath id="1c866e7614"><path d="M 0.257812 2 L 447 2 L 447 1440 L 0.257812 1440 Z M 0.257812 2 " clip-rule="nonzero"/></clipPath><clipPath id="6f0a0099ac"><path d="M 0.257812 2 L 319 2 L 319 1440 L 0.257812 1440 Z M 0.257812 2 " clip-rule="nonzero"/></clipPath></defs><rect x="-81" width="972" fill="#ffffff" y="-143.999994" height="1727.999922" fill-opacity="1"/><rect x="-81" width="972" fill="#f4f0e0" y="-143.999994" height="1727.999922" fill-opacity="1"/><g clip-path="url(#9882232e4c)"><path fill="#223a76" d="M 585.445312 2.183594 L 0 2.183594 L 0 2958.984375 L 648.070312 2958.984375 C 617.28125 2896.046875 572.886719 2835.234375 554.242188 2767.679688 C 502.988281 2582.109375 651.875 2402.417969 674.089844 2211.191406 C 704.566406 1948.824219 493.902344 1702.246094 527.039062 1440.195312 C 547.617188 1277.429688 661.476562 1124.800781 629.066406 963.992188 C 603.34375 836.355469 490.570312 741.265625 457.929688 615.226562 C 428.023438 499.671875 469.992188 378.878906 513.199219 267.625 C 546.457031 182.054688 581.265625 92.382812 585.445312 2.183594 Z M 585.445312 2.183594 " fill-opacity="1" fill-rule="nonzero"/></g><path fill="#223a76" d="M 517.792969 269.398438 C 473.992188 382.210938 433.644531 501.742188 462.699219 614.003906 C 478.210938 673.847656 512.765625 727.820312 546.179688 780 C 582.644531 836.964844 620.355469 895.867188 633.898438 963.003906 C 653.804688 1061.859375 618.699219 1159.121094 584.753906 1253.207031 C 562.738281 1314.195312 539.96875 1377.273438 531.925781 1440.804688 C 515.429688 1571.359375 560.902344 1700.765625 604.902344 1825.898438 C 648.839844 1950.875 694.273438 2080.125 678.980469 2211.761719 C 670.167969 2287.554688 641.425781 2362.105469 613.613281 2434.210938 C 569.753906 2547.910156 528.320312 2655.320312 558.992188 2766.359375 C 571.273438 2810.789062 595.261719 2853.054688 618.441406 2893.917969 C 630.566406 2915.285156 642.847656 2936.90625 653.492188 2958.984375 L 642.609375 2958.984375 C 632.714844 2939.015625 621.398438 2919.070312 609.886719 2898.785156 C 586.390625 2857.390625 562.085938 2814.59375 549.492188 2768.980469 C 517.953125 2654.808594 561.910156 2540.855469 604.40625 2430.664062 C 632.003906 2359.148438 660.527344 2285.1875 669.203125 2210.617188 C 684.222656 2081.25 639.179688 1953.101562 595.597656 1829.171875 C 557.652344 1721.207031 518.601562 1610.132812 518.601562 1497.121094 C 518.601562 1478 519.726562 1458.800781 522.148438 1439.582031 C 530.332031 1374.945312 553.273438 1311.355469 575.472656 1249.855469 C 610.519531 1152.792969 643.617188 1061.09375 624.238281 964.957031 C 611.070312 899.609375 573.855469 841.5 537.878906 785.320312 C 504.035156 732.472656 469.066406 677.832031 453.15625 616.46875 C 446.082031 589.085938 442.988281 561.390625 442.988281 533.519531 C 442.988281 444.125 474.78125 352.957031 508.609375 265.828125 C 542.097656 179.609375 576.457031 91.140625 580.558594 2.179688 L 590.453125 2.179688 C 586.410156 92.777344 551.660156 182.230469 517.792969 269.398438 Z M 517.792969 269.398438 " fill-opacity="1" fill-rule="nonzero"/><g clip-path="url(#28984589cc)"><path fill="#223a76" d="M 0 2.183594 L 0 2958.984375 L 549.726562 2958.984375 C 542.355469 2929.28125 531.160156 2900.222656 517.773438 2873.375 C 476.242188 2790.054688 415.703125 2716.25 383.691406 2628.847656 C 326.113281 2471.644531 368.871094 2297.015625 418.660156 2137.191406 C 468.453125 1977.347656 525.660156 1810.839844 495.105469 1646.242188 C 472.496094 1524.582031 402.617188 1411.058594 407.289062 1287.40625 C 411.683594 1170.75 482.214844 1065.585938 494.652344 949.503906 C 519.113281 721.15625 317.164062 514.339844 340.1875 285.835938 C 346.890625 219.386719 372.535156 156.328125 384.480469 90.609375 C 389.308594 64 392.285156 32.617188 389.644531 2.183594 L -0.00390625 2.183594 Z M 0 2.183594 " fill-opacity="1" fill-rule="nonzero"/></g><path fill="#223a76" d="M 389.332031 91.476562 C 384.265625 119.332031 376.675781 147.046875 369.324219 173.855469 C 359.289062 210.417969 348.921875 248.226562 345.097656 286.332031 C 333.742188 399.023438 378.667969 508.761719 422.132812 614.890625 C 466.285156 722.753906 511.9375 834.285156 499.558594 950.035156 C 493.664062 1005.03125 474.664062 1058.15625 456.292969 1109.542969 C 435.753906 1166.984375 414.523438 1226.378906 412.214844 1287.582031 C 409.4375 1361.976562 434.550781 1434.476562 458.855469 1504.574219 C 474.683594 1550.226562 491.042969 1597.417969 499.933594 1645.335938 C 528.96875 1801.652344 479.691406 1958.894531 432.027344 2110.953125 C 429.128906 2120.21875 426.230469 2129.445312 423.351562 2138.648438 C 375.789062 2291.398438 329.917969 2467.703125 388.304688 2627.152344 C 407.269531 2678.898438 436.953125 2726.875 465.65625 2773.277344 C 485.171875 2804.816406 505.355469 2837.441406 522.1875 2871.167969 C 531.867188 2890.605469 545.628906 2922.007812 554.714844 2958.984375 L 544.5625 2958.984375 C 535.691406 2923.9375 522.621094 2894.132812 513.359375 2875.5625 C 496.742188 2842.230469 476.675781 2809.804688 457.277344 2778.464844 C 428.320312 2731.648438 398.359375 2683.234375 379.058594 2630.542969 C 352.585938 2558.261719 345.039062 2477.441406 356.015625 2383.433594 C 366.148438 2296.484375 390.984375 2209.417969 413.949219 2135.714844 C 416.828125 2126.507812 419.726562 2117.261719 422.625 2108.019531 C 469.914062 1957.101562 518.839844 1801.042969 490.257812 1647.152344 C 481.484375 1599.941406 465.242188 1553.105469 449.53125 1507.804688 C 424.929688 1436.84375 399.480469 1363.453125 402.359375 1287.207031 C 404.726562 1224.503906 426.230469 1164.363281 447.007812 1106.234375 C 465.183594 1055.394531 483.988281 1002.824219 489.742188 948.96875 C 501.886719 835.707031 456.707031 725.355469 413.003906 618.636719 C 369.105469 511.382812 323.6875 400.484375 335.28125 285.34375 C 339.203125 246.433594 349.691406 208.210938 359.820312 171.253906 C 367.09375 144.660156 374.644531 117.144531 379.632812 89.722656 C 383.730469 67.191406 387.636719 34.785156 384.777344 2.183594 L 394.613281 2.183594 C 397.453125 35.613281 393.507812 68.492188 389.332031 91.476562 Z M 389.332031 91.476562 " fill-opacity="1" fill-rule="nonzero"/><g clip-path="url(#1c866e7614)"><path fill="#223a76" d="M 170.683594 2.183594 L 0 2.183594 L 0 2958.984375 L 446.496094 2958.984375 C 419.035156 2816.960938 354.875 2682.089844 296.46875 2548.441406 C 224.773438 2384.417969 159.269531 2208.488281 180.875 2030.804688 C 203.722656 1843.046875 321.066406 1678.433594 354.636719 1492.3125 C 393.6875 1275.855469 316.238281 1057.917969 277.503906 841.421875 C 265.519531 774.421875 257.21875 706.828125 248.921875 639.292969 C 239.359375 561.492188 229.820312 483.707031 220.261719 405.921875 C 203.742188 271.347656 187.203125 136.753906 170.683594 2.183594 Z M 170.683594 2.183594 " fill-opacity="1" fill-rule="nonzero"/></g><path fill="#223a76" d="M 204.648438 238.292969 L 253.808594 638.683594 C 261.949219 705.035156 270.386719 773.652344 282.351562 840.554688 C 291.953125 894.210938 304.15625 948.949219 315.960938 1001.878906 C 351.878906 1162.945312 389.015625 1329.511719 359.484375 1493.179688 C 343.578125 1581.371094 308.53125 1665.855469 274.625 1747.542969 C 236.835938 1838.59375 197.769531 1932.757812 185.765625 2031.398438 C 163.6875 2212.886719 233.664062 2392.421875 300.980469 2546.472656 C 307.742188 2561.964844 314.601562 2577.480469 321.460938 2593.011719 C 373.558594 2711.027344 427.078125 2832.21875 451.480469 2958.984375 L 441.429688 2958.984375 C 417.066406 2833.933594 364.058594 2713.886719 312.453125 2596.992188 C 305.574219 2581.441406 298.714844 2565.925781 291.953125 2550.414062 C 232.855469 2415.191406 171.75 2260.449219 171.75 2101.214844 C 171.75 2077.640625 173.089844 2053.925781 175.988281 2030.214844 C 188.148438 1930.214844 227.472656 1835.441406 265.519531 1743.777344 C 299.226562 1662.566406 334.078125 1578.59375 349.789062 1491.445312 C 378.960938 1329.707031 342.039062 1164.148438 306.34375 1004.027344 C 294.515625 950.980469 282.292969 896.160156 272.65625 842.289062 C 260.628906 775.128906 252.195312 706.375 244.03125 639.886719 L 194.871094 239.496094 C 185.152344 160.390625 175.433594 81.285156 165.738281 2.179688 L 175.652344 2.179688 C 185.3125 80.871094 194.988281 159.582031 204.648438 238.292969 Z M 204.648438 238.292969 " fill-opacity="1" fill-rule="nonzero"/><g clip-path="url(#6f0a0099ac)"><path fill="#223a76" d="M 0 2.183594 L 0 2958.984375 L 317.222656 2958.984375 C 323.097656 2862.730469 307.152344 2764.941406 278.15625 2673.417969 C 214.898438 2473.851562 103.230469 2287.378906 80.066406 2079.296875 C 44.390625 1758.800781 223.945312 1452.554688 243.105469 1130.636719 C 253.199219 960.914062 218.347656 792.101562 183.695312 625.632812 C 140.40625 417.828125 97.140625 210.003906 53.871094 2.183594 Z M 0 2.183594 " fill-opacity="1" fill-rule="nonzero"/></g><path fill="#223a76" d="M 188.523438 624.628906 C 222.785156 789.222656 258.226562 959.417969 248.015625 1130.933594 C 239.773438 1269.585938 201.394531 1407.097656 164.257812 1540.09375 C 115.3125 1715.433594 64.691406 1896.722656 84.976562 2078.746094 C 99.820312 2212.078125 152.234375 2339.0625 202.953125 2461.847656 C 231.121094 2530.109375 260.277344 2600.699219 282.847656 2671.9375 C 314.523438 2771.898438 327.710938 2868.308594 322.152344 2958.984375 L 312.296875 2958.984375 C 313.144531 2945.5625 313.558594 2932.019531 313.558594 2918.359375 C 313.558594 2840.714844 300.132812 2759.105469 273.445312 2674.914062 C 251.011719 2604.070312 221.9375 2533.699219 193.828125 2465.613281 C 142.871094 2342.175781 90.160156 2214.542969 75.179688 2079.847656 C 54.699219 1895.9375 105.574219 1713.679688 154.777344 1537.433594 C 191.757812 1404.949219 230 1267.949219 238.179688 1130.339844 C 248.3125 960.148438 213.007812 790.605469 178.867188 626.640625 L 48.824219 2.179688 L 58.898438 2.179688 Z M 188.523438 624.628906 " fill-opacity="1" fill-rule="nonzero"/></svg>