<svg xmlns="http://www.w3.org/2000/svg" xmlns:xlink="http://www.w3.org/1999/xlink" width="1280" zoomAndPan="magnify" viewBox="0 0 960 599.999999" height="800" preserveAspectRatio="xMidYMid meet" version="1.0"><defs><g/><clipPath id="0ec16fdcfe"><path d="M 43.183594 208.976562 L 232.933594 208.976562 L 232.933594 258 L 43.183594 258 Z M 43.183594 208.976562 " clip-rule="nonzero"/></clipPath><clipPath id="772fb50551"><path d="M 202 327 L 232.933594 327 L 232.933594 348 L 202 348 Z M 202 327 " clip-rule="nonzero"/></clipPath><clipPath id="07d25f0a55"><path d="M 102 278 L 198 278 L 198 391.226562 L 102 391.226562 Z M 102 278 " clip-rule="nonzero"/></clipPath><clipPath id="ef04325c3c"><path d="M 43.183594 268 L 122 268 L 122 348 L 43.183594 348 Z M 43.183594 268 " clip-rule="nonzero"/></clipPath></defs><g fill="#ffffff" fill-opacity="1"><g transform="translate(261.81705, 320.625006)"><g><path d="M 13.90625 -37.078125 L 13.90625 -27.8125 L 4.640625 -27.8125 L 4.640625 -37.078125 Z M 4.640625 0 L 4.640625 -9.265625 L 41.703125 -9.265625 L 41.703125 0 Z M 13.90625 -18.53125 L 13.90625 -27.8125 L 41.703125 -27.8125 L 41.703125 -18.53125 Z M 13.90625 -37.078125 L 13.90625 -46.34375 L 50.96875 -46.34375 L 50.96875 -37.078125 Z M 41.703125 -9.265625 L 41.703125 -18.53125 L 50.96875 -18.53125 L 50.96875 -9.265625 Z M 41.703125 -9.265625 "/></g></g></g><g fill="#ffffff" fill-opacity="1"><g transform="translate(317.887919, 320.625006)"><g><path d="M 4.640625 0 L 4.640625 -46.34375 L 13.90625 -46.34375 L 13.90625 -27.8125 L 32.4375 -27.8125 L 32.4375 -18.53125 L 13.90625 -18.53125 L 13.90625 0 Z M 32.4375 -9.265625 L 32.4375 -18.53125 L 41.703125 -18.53125 L 41.703125 -9.265625 Z M 32.4375 -27.8125 L 32.4375 -37.078125 L 41.703125 -37.078125 L 41.703125 -27.8125 Z M 41.703125 0 L 41.703125 -9.265625 L 50.96875 -9.265625 L 50.96875 0 Z M 41.703125 -37.078125 L 41.703125 -46.34375 L 50.96875 -46.34375 L 50.96875 -37.078125 Z M 41.703125 -37.078125 "/></g></g></g><g fill="#ffffff" fill-opacity="1"><g transform="translate(373.958788, 320.625006)"><g><path d="M 4.640625 0 L 4.640625 -9.265625 L 13.90625 -9.265625 L 13.90625 -18.53125 L 4.640625 -18.53125 L 4.640625 -27.8125 L 32.4375 -27.8125 L 32.4375 -18.53125 L 23.171875 -18.53125 L 23.171875 -9.265625 L 32.4375 -9.265625 L 32.4375 0 Z M 13.90625 -37.078125 L 13.90625 -46.34375 L 23.171875 -46.34375 L 23.171875 -37.078125 Z M 13.90625 -37.078125 "/></g></g></g><g fill="#ffffff" fill-opacity="1"><g transform="translate(411.493863, 320.625006)"><g><path d="M 13.90625 0 L 13.90625 -9.265625 L 50.96875 -9.265625 L 50.96875 0 Z M 4.640625 -9.265625 L 4.640625 -46.34375 L 13.90625 -46.34375 L 13.90625 -9.265625 Z M 4.640625 -9.265625 "/></g></g></g><g fill="#ffffff" fill-opacity="1"><g transform="translate(467.564737, 320.625006)"><g><path d="M 13.90625 0 L 13.90625 -9.265625 L 50.96875 -9.265625 L 50.96875 0 Z M 4.640625 -9.265625 L 4.640625 -46.34375 L 13.90625 -46.34375 L 13.90625 -9.265625 Z M 4.640625 -9.265625 "/></g></g></g><g fill="#ffffff" fill-opacity="1"><g transform="translate(523.635611, 320.625006)"><g><path d="M 13.90625 -37.078125 L 13.90625 -9.265625 L 4.640625 -9.265625 L 4.640625 -37.078125 Z M 13.90625 0 L 13.90625 -9.265625 L 50.96875 -9.265625 L 50.96875 0 Z M 13.90625 -37.078125 L 13.90625 -46.34375 L 50.96875 -46.34375 L 50.96875 -37.078125 Z M 13.90625 -37.078125 "/></g></g></g><g fill="#ffffff" fill-opacity="1"><g transform="translate(579.706486, 320.625006)"><g><path d="M 41.703125 -9.265625 L 41.703125 0 L 13.90625 0 L 13.90625 -9.265625 Z M 4.640625 -9.265625 L 4.640625 -37.078125 L 13.90625 -37.078125 L 13.90625 -9.265625 Z M 13.90625 -37.078125 L 13.90625 -46.34375 L 41.703125 -46.34375 L 41.703125 -37.078125 Z M 41.703125 -9.265625 L 41.703125 -37.078125 L 50.96875 -37.078125 L 50.96875 -9.265625 Z M 41.703125 -9.265625 "/></g></g></g><g fill="#ffffff" fill-opacity="1"><g transform="translate(635.77736, 320.625006)"><g><path d="M 41.703125 0 L 41.703125 -9.265625 L 32.4375 -9.265625 L 32.4375 -18.53125 L 41.703125 -18.53125 L 41.703125 -46.34375 L 50.96875 -46.34375 L 50.96875 0 Z M 4.640625 0 L 4.640625 -46.34375 L 13.90625 -46.34375 L 13.90625 -37.078125 L 23.171875 -37.078125 L 23.171875 -27.8125 L 13.90625 -27.8125 L 13.90625 0 Z M 23.171875 -18.53125 L 23.171875 -27.8125 L 32.4375 -27.8125 L 32.4375 -18.53125 Z M 23.171875 -18.53125 "/></g></g></g><g fill="#ffffff" fill-opacity="1"><g transform="translate(691.848235, 320.625006)"><g><path d="M 41.703125 0 L 41.703125 -9.265625 L 32.4375 -9.265625 L 32.4375 -18.53125 L 41.703125 -18.53125 L 41.703125 -46.34375 L 50.96875 -46.34375 L 50.96875 0 Z M 4.640625 0 L 4.640625 -46.34375 L 13.90625 -46.34375 L 13.90625 -37.078125 L 23.171875 -37.078125 L 23.171875 -27.8125 L 13.90625 -27.8125 L 13.90625 0 Z M 23.171875 -18.53125 L 23.171875 -27.8125 L 32.4375 -27.8125 L 32.4375 -18.53125 Z M 23.171875 -18.53125 "/></g></g></g><g fill="#ffffff" fill-opacity="1"><g transform="translate(747.919109, 320.625006)"><g><path d="M 4.640625 0 L 4.640625 -46.34375 L 50.96875 -46.34375 L 50.96875 -37.078125 L 13.90625 -37.078125 L 13.90625 -27.8125 L 41.703125 -27.8125 L 41.703125 -18.53125 L 13.90625 -18.53125 L 13.90625 -9.265625 L 50.96875 -9.265625 L 50.96875 0 Z M 4.640625 0 "/></g></g></g><g fill="#ffffff" fill-opacity="1"><g transform="translate(803.989983, 320.625006)"><g><path d="M 13.90625 -37.078125 L 13.90625 -9.265625 L 4.640625 -9.265625 L 4.640625 -37.078125 Z M 13.90625 0 L 13.90625 -9.265625 L 50.96875 -9.265625 L 50.96875 0 Z M 13.90625 -37.078125 L 13.90625 -46.34375 L 50.96875 -46.34375 L 50.96875 -37.078125 Z M 13.90625 -37.078125 "/></g></g></g><g fill="#ffffff" fill-opacity="1"><g transform="translate(860.060858, 320.625006)"><g><path d="M 23.171875 0 L 23.171875 -37.078125 L 4.640625 -37.078125 L 4.640625 -46.34375 L 50.96875 -46.34375 L 50.96875 -37.078125 L 32.4375 -37.078125 L 32.4375 0 Z M 23.171875 0 "/></g></g></g><g fill="#ffffff" fill-opacity="1"><g transform="translate(916.133432, 320.625006)"><g/></g></g><g clip-path="url(#0ec16fdcfe)"><path fill="#f2f2f2" d="M 222.363281 208.976562 C 217.632812 208.976562 213.789062 212.082031 212.457031 216.371094 L 206.097656 216.371094 C 189.09375 216.371094 175.042969 229.382812 173.714844 246.242188 C 168.980469 249.9375 163.066406 252.007812 156.855469 251.859375 C 151.828125 248.3125 146.058594 246.390625 139.847656 245.945312 C 138.8125 245.945312 137.628906 245.945312 136.59375 245.945312 C 130.382812 246.242188 124.617188 248.3125 119.589844 251.859375 C 113.378906 252.007812 107.464844 249.9375 102.730469 246.242188 C 101.105469 229.382812 87.054688 216.371094 70.050781 216.371094 L 63.691406 216.371094 C 62.359375 212.082031 58.515625 208.976562 53.78125 208.976562 C 48.015625 208.976562 43.429688 213.558594 43.429688 219.328125 C 43.429688 225.09375 48.015625 229.679688 53.78125 229.679688 C 58.515625 229.679688 62.359375 226.574219 63.691406 222.285156 L 70.050781 222.285156 C 84.394531 222.285156 96.078125 233.523438 96.667969 247.867188 C 96.667969 248.753906 97.113281 249.496094 97.703125 249.9375 C 104.0625 255.410156 112.195312 258.21875 120.476562 257.777344 C 120.921875 257.777344 121.363281 257.628906 121.660156 257.480469 C 121.808594 257.332031 121.957031 257.332031 122.101562 257.183594 C 126.242188 254.078125 131.273438 252.15625 136.449219 252.007812 C 136.449219 252.007812 136.59375 252.007812 136.59375 252.007812 C 137.484375 252.007812 138.371094 252.007812 139.257812 252.007812 C 139.257812 252.007812 139.257812 252.007812 139.40625 252.007812 C 144.730469 252.304688 149.757812 254.078125 153.898438 257.183594 C 154.191406 257.480469 154.636719 257.628906 155.082031 257.777344 C 155.226562 257.777344 155.375 257.777344 155.523438 257.777344 C 156.117188 257.777344 156.707031 257.777344 157.152344 257.777344 C 164.988281 257.777344 172.382812 254.964844 178.296875 249.9375 C 179.035156 249.347656 179.332031 248.460938 179.332031 247.574219 C 180.070312 233.375 191.605469 222.433594 205.949219 222.433594 L 212.308594 222.433594 C 213.640625 226.722656 217.484375 229.828125 222.21875 229.828125 C 227.984375 229.828125 232.570312 225.242188 232.570312 219.476562 C 232.570312 213.707031 228.132812 208.976562 222.363281 208.976562 Z M 53.78125 223.765625 C 51.269531 223.765625 49.347656 221.839844 49.347656 219.328125 C 49.347656 216.8125 51.269531 214.890625 53.78125 214.890625 C 56.296875 214.890625 58.21875 216.8125 58.21875 219.328125 C 58.21875 221.839844 56.296875 223.765625 53.78125 223.765625 Z M 222.363281 223.765625 C 219.851562 223.765625 217.929688 221.839844 217.929688 219.328125 C 217.929688 216.8125 219.851562 214.890625 222.363281 214.890625 C 224.878906 214.890625 226.800781 216.8125 226.800781 219.328125 C 226.800781 221.839844 224.878906 223.765625 222.363281 223.765625 Z M 222.363281 223.765625 " fill-opacity="1" fill-rule="nonzero"/></g><path fill="#f2f2f2" d="M 167.796875 291.640625 C 169.277344 288.535156 170.164062 284.984375 170.460938 281.4375 L 197.667969 281.4375 C 199 285.726562 202.84375 288.832031 207.578125 288.832031 C 213.34375 288.832031 217.929688 284.246094 217.929688 278.480469 C 217.929688 272.710938 213.34375 268.128906 207.578125 268.128906 C 202.84375 268.128906 199 271.234375 197.667969 275.523438 L 164.691406 275.523438 L 164.691406 278.480469 C 164.691406 283.65625 163.214844 288.535156 160.699219 292.527344 C 161.292969 292.675781 161.882812 292.972656 162.328125 293.265625 C 164.101562 292.378906 165.875 291.9375 167.796875 291.640625 Z M 207.578125 274.042969 C 210.089844 274.042969 212.011719 275.964844 212.011719 278.480469 C 212.011719 280.992188 210.089844 282.914062 207.578125 282.914062 C 205.0625 282.914062 203.140625 280.992188 203.140625 278.480469 C 203.140625 275.964844 205.0625 274.042969 207.578125 274.042969 Z M 207.578125 274.042969 " fill-opacity="1" fill-rule="nonzero"/><g clip-path="url(#772fb50551)"><path fill="#f2f2f2" d="M 222.363281 327.28125 C 217.632812 327.28125 213.789062 330.386719 212.457031 334.671875 L 206.097656 334.671875 C 204.914062 334.671875 203.585938 334.527344 202.402344 334.378906 L 202.105469 340.292969 C 203.4375 340.441406 204.621094 340.589844 205.949219 340.589844 L 212.308594 340.589844 C 213.640625 344.878906 217.484375 347.984375 222.21875 347.984375 C 227.984375 347.984375 232.570312 343.398438 232.570312 337.632812 C 232.570312 331.863281 228.132812 327.28125 222.363281 327.28125 Z M 222.363281 342.066406 C 219.851562 342.066406 217.929688 340.144531 217.929688 337.632812 C 217.929688 335.117188 219.851562 333.195312 222.363281 333.195312 C 224.878906 333.195312 226.800781 335.117188 226.800781 337.632812 C 226.800781 340.144531 224.878906 342.066406 222.363281 342.066406 Z M 222.363281 342.066406 " fill-opacity="1" fill-rule="nonzero"/></g><g clip-path="url(#07d25f0a55)"><path fill="#f2f2f2" d="M 154.488281 297.40625 C 153.15625 297.40625 151.976562 297.554688 150.792969 298 L 150.792969 290.308594 C 150.792969 283.804688 145.46875 278.480469 138.960938 278.480469 C 132.453125 278.480469 127.132812 283.804688 127.132812 290.308594 L 127.132812 330.976562 L 123.433594 326.539062 C 121.214844 323.730469 117.816406 322.105469 114.265625 322.105469 C 111.457031 322.105469 108.792969 323.140625 106.722656 324.914062 C 101.84375 329.054688 101.105469 336.449219 105.246094 341.476562 L 127.574219 368.980469 L 128.019531 371.347656 C 129.792969 382.734375 139.40625 391.015625 150.941406 391.015625 L 171.9375 391.015625 C 184.507812 391.015625 194.710938 381.105469 195.15625 368.539062 L 197.226562 318.554688 C 197.375 315.300781 196.191406 312.195312 193.972656 309.976562 C 191.753906 307.613281 188.796875 306.429688 185.542969 306.429688 C 184.210938 306.429688 182.882812 306.722656 181.699219 307.167969 C 180.664062 301.695312 175.929688 297.554688 170.3125 297.554688 L 170.164062 297.554688 C 167.207031 297.554688 164.542969 298.589844 162.472656 300.511719 C 160.402344 298.738281 157.742188 297.554688 154.785156 297.554688 L 154.488281 297.554688 Z M 160.402344 309.089844 L 160.402344 327.28125 L 164.25 326.984375 L 164.25 309.089844 C 164.25 305.835938 166.761719 303.324219 170.015625 303.324219 L 170.164062 303.324219 C 173.269531 303.324219 175.929688 305.835938 175.929688 309.089844 L 175.929688 326.246094 L 179.777344 325.949219 L 179.777344 317.964844 C 179.777344 314.710938 182.289062 312.195312 185.542969 312.195312 C 188.796875 312.195312 191.457031 314.859375 191.3125 318.109375 L 189.242188 368.09375 C 188.945312 377.410156 181.253906 384.953125 171.9375 384.953125 L 150.792969 384.953125 C 142.214844 384.953125 134.96875 378.742188 133.636719 370.3125 L 133.046875 366.320312 L 109.828125 337.632812 C 107.757812 335.117188 108.203125 331.421875 110.570312 329.351562 C 111.605469 328.460938 113.082031 328.019531 114.414062 328.019531 C 116.1875 328.019531 117.816406 328.757812 118.996094 330.238281 L 133.195312 347.6875 L 133.195312 290.308594 C 133.195312 287.054688 135.855469 284.394531 139.109375 284.394531 C 142.363281 284.394531 145.023438 287.054688 145.023438 290.308594 L 145.023438 328.316406 L 148.871094 328.019531 L 148.871094 309.089844 C 148.871094 305.835938 151.382812 303.324219 154.636719 303.324219 L 154.785156 303.324219 C 157.742188 303.324219 160.402344 305.835938 160.402344 309.089844 Z M 160.402344 309.089844 " fill-opacity="1" fill-rule="nonzero"/></g><path fill="#f2f2f2" d="M 138.074219 257.777344 C 126.6875 257.777344 117.371094 267.09375 117.371094 278.480469 C 117.371094 282.914062 118.851562 287.054688 121.214844 290.457031 L 121.214844 290.160156 C 121.214844 286.910156 122.101562 283.949219 123.582031 281.4375 C 123.433594 280.402344 123.285156 279.515625 123.285156 278.332031 C 123.285156 270.199219 129.941406 263.542969 138.074219 263.542969 C 146.207031 263.542969 152.863281 270.199219 152.863281 278.332031 C 152.863281 278.628906 152.863281 278.921875 152.863281 279.21875 C 154.785156 281.734375 156.117188 284.691406 156.558594 287.796875 C 158.039062 284.984375 158.925781 281.734375 158.925781 278.332031 C 158.777344 267.09375 149.460938 257.777344 138.074219 257.777344 Z M 138.074219 257.777344 " fill-opacity="1" fill-rule="nonzero"/><g clip-path="url(#ef04325c3c)"><path fill="#f2f2f2" d="M 96.667969 309.535156 C 95.929688 323.730469 84.394531 334.671875 70.050781 334.671875 L 63.691406 334.671875 C 62.359375 330.386719 58.515625 327.28125 53.78125 327.28125 C 48.015625 327.28125 43.429688 331.863281 43.429688 337.632812 C 43.429688 343.398438 48.015625 347.984375 53.78125 347.984375 C 58.515625 347.984375 62.359375 344.878906 63.691406 340.589844 L 70.050781 340.589844 C 87.054688 340.589844 101.105469 327.574219 102.433594 310.71875 C 107.167969 307.019531 113.082031 304.949219 119.292969 305.097656 C 119.738281 305.394531 120.179688 305.6875 120.625 305.984375 C 120.625 305.984375 120.773438 305.984375 120.773438 306.132812 C 120.921875 306.28125 121.066406 306.28125 121.214844 306.429688 L 121.214844 299.183594 C 115.300781 294.300781 111.457031 286.910156 111.457031 278.628906 L 111.457031 275.667969 L 78.480469 275.667969 C 77.148438 271.382812 73.304688 268.277344 68.570312 268.277344 C 62.804688 268.277344 58.21875 272.859375 58.21875 278.628906 C 58.21875 284.394531 62.804688 288.980469 68.570312 288.980469 C 73.304688 288.980469 77.148438 285.875 78.480469 281.585938 L 105.6875 281.585938 C 106.28125 288.535156 109.089844 294.746094 113.378906 299.773438 C 107.609375 300.808594 102.140625 303.324219 97.554688 307.167969 C 96.964844 307.613281 96.667969 308.5 96.667969 309.535156 Z M 53.78125 342.066406 C 51.269531 342.066406 49.347656 340.144531 49.347656 337.632812 C 49.347656 335.117188 51.269531 333.195312 53.78125 333.195312 C 56.296875 333.195312 58.21875 335.117188 58.21875 337.632812 C 58.21875 340.144531 56.296875 342.066406 53.78125 342.066406 Z M 68.570312 282.914062 C 66.058594 282.914062 64.132812 280.992188 64.132812 278.480469 C 64.132812 275.964844 66.058594 274.042969 68.570312 274.042969 C 71.085938 274.042969 73.007812 275.964844 73.007812 278.480469 C 73.007812 280.992188 71.085938 282.914062 68.570312 282.914062 Z M 68.570312 282.914062 " fill-opacity="1" fill-rule="nonzero"/></g></svg>