<svg xmlns="http://www.w3.org/2000/svg" xmlns:xlink="http://www.w3.org/1999/xlink" width="1280" zoomAndPan="magnify" viewBox="0 0 960 599.999999" height="800" preserveAspectRatio="xMidYMid meet" version="1.0"><defs><g/><clipPath id="e5fa9d826f"><path d="M 11.582031 186.148438 L 248.6875 186.148438 L 248.6875 248 L 11.582031 248 Z M 11.582031 186.148438 " clip-rule="nonzero"/></clipPath><clipPath id="8552bed0a4"><path d="M 210 334 L 248.6875 334 L 248.6875 361 L 210 361 Z M 210 334 " clip-rule="nonzero"/></clipPath><clipPath id="2d6083e58f"><path d="M 85 273 L 205 273 L 205 413.617188 L 85 413.617188 Z M 85 273 " clip-rule="nonzero"/></clipPath><clipPath id="bbe1d76055"><path d="M 11.582031 260 L 110 260 L 110 361 L 11.582031 361 Z M 11.582031 260 " clip-rule="nonzero"/></clipPath></defs><g clip-path="url(#e5fa9d826f)"><path fill="#ffffff" d="M 235.703125 186.148438 C 229.785156 186.148438 224.976562 190.03125 223.308594 195.394531 L 215.355469 195.394531 C 194.085938 195.394531 176.511719 211.671875 174.847656 232.761719 C 168.929688 237.386719 161.527344 239.976562 153.761719 239.789062 C 147.472656 235.351562 140.257812 232.945312 132.488281 232.390625 C 131.191406 232.390625 129.714844 232.390625 128.417969 232.390625 C 120.648438 232.761719 113.4375 235.351562 107.148438 239.789062 C 99.378906 239.976562 91.980469 237.386719 86.058594 232.761719 C 84.023438 211.671875 66.453125 195.394531 45.179688 195.394531 L 37.226562 195.394531 C 35.5625 190.03125 30.753906 186.148438 24.832031 186.148438 C 17.617188 186.148438 11.886719 191.882812 11.886719 199.09375 C 11.886719 206.308594 17.617188 212.042969 24.832031 212.042969 C 30.753906 212.042969 35.5625 208.160156 37.226562 202.792969 L 45.179688 202.792969 C 63.121094 202.792969 77.734375 216.851562 78.476562 234.796875 C 78.476562 235.90625 79.03125 236.832031 79.769531 237.386719 C 87.722656 244.230469 97.898438 247.742188 108.257812 247.1875 C 108.8125 247.1875 109.367188 247.003906 109.734375 246.820312 C 109.921875 246.632812 110.105469 246.632812 110.292969 246.449219 C 115.46875 242.5625 121.757812 240.160156 128.234375 239.976562 C 128.234375 239.976562 128.417969 239.976562 128.417969 239.976562 C 129.527344 239.976562 130.636719 239.976562 131.75 239.976562 C 131.75 239.976562 131.75 239.976562 131.933594 239.976562 C 138.59375 240.34375 144.882812 242.5625 150.0625 246.449219 C 150.429688 246.820312 150.984375 247.003906 151.539062 247.1875 C 151.726562 247.1875 151.910156 247.1875 152.09375 247.1875 C 152.835938 247.1875 153.574219 247.1875 154.128906 247.1875 C 163.933594 247.1875 173.183594 243.675781 180.582031 237.386719 C 181.507812 236.644531 181.875 235.535156 181.875 234.425781 C 182.800781 216.667969 197.230469 202.980469 215.171875 202.980469 L 223.125 202.980469 C 224.789062 208.34375 229.601562 212.230469 235.519531 212.230469 C 242.734375 212.230469 248.46875 206.496094 248.46875 199.28125 C 248.46875 192.066406 242.917969 186.148438 235.703125 186.148438 Z M 24.832031 204.644531 C 21.6875 204.644531 19.285156 202.238281 19.285156 199.09375 C 19.285156 195.949219 21.6875 193.546875 24.832031 193.546875 C 27.976562 193.546875 30.382812 195.949219 30.382812 199.09375 C 30.382812 202.238281 27.976562 204.644531 24.832031 204.644531 Z M 235.703125 204.644531 C 232.558594 204.644531 230.15625 202.238281 230.15625 199.09375 C 230.15625 195.949219 232.558594 193.546875 235.703125 193.546875 C 238.847656 193.546875 241.253906 195.949219 241.253906 199.09375 C 241.253906 202.238281 238.847656 204.644531 235.703125 204.644531 Z M 235.703125 204.644531 " fill-opacity="1" fill-rule="nonzero"/></g><path fill="#ffffff" d="M 167.449219 289.546875 C 169.296875 285.664062 170.40625 281.222656 170.777344 276.785156 L 204.8125 276.785156 C 206.476562 282.148438 211.289062 286.035156 217.207031 286.035156 C 224.421875 286.035156 230.15625 280.300781 230.15625 273.085938 C 230.15625 265.871094 224.421875 260.136719 217.207031 260.136719 C 211.289062 260.136719 206.476562 264.019531 204.8125 269.386719 L 163.5625 269.386719 L 163.5625 273.085938 C 163.5625 279.558594 161.714844 285.664062 158.570312 290.65625 C 159.308594 290.84375 160.050781 291.210938 160.605469 291.582031 C 162.824219 290.472656 165.042969 289.917969 167.449219 289.546875 Z M 217.207031 267.535156 C 220.351562 267.535156 222.753906 269.941406 222.753906 273.085938 C 222.753906 276.230469 220.351562 278.632812 217.207031 278.632812 C 214.0625 278.632812 211.65625 276.230469 211.65625 273.085938 C 211.65625 269.941406 214.0625 267.535156 217.207031 267.535156 Z M 217.207031 267.535156 " fill-opacity="1" fill-rule="nonzero"/><g clip-path="url(#8552bed0a4)"><path fill="#ffffff" d="M 235.703125 334.125 C 229.785156 334.125 224.976562 338.011719 223.308594 343.375 L 215.355469 343.375 C 213.875 343.375 212.210938 343.191406 210.730469 343.003906 L 210.363281 350.40625 C 212.027344 350.589844 213.507812 350.773438 215.171875 350.773438 L 223.125 350.773438 C 224.789062 356.136719 229.601562 360.023438 235.519531 360.023438 C 242.734375 360.023438 248.46875 354.289062 248.46875 347.074219 C 248.46875 339.859375 242.917969 334.125 235.703125 334.125 Z M 235.703125 352.625 C 232.558594 352.625 230.15625 350.21875 230.15625 347.074219 C 230.15625 343.929688 232.558594 341.527344 235.703125 341.527344 C 238.847656 341.527344 241.253906 343.929688 241.253906 347.074219 C 241.253906 350.21875 238.847656 352.625 235.703125 352.625 Z M 235.703125 352.625 " fill-opacity="1" fill-rule="nonzero"/></g><g clip-path="url(#2d6083e58f)"><path fill="#ffffff" d="M 150.800781 296.761719 C 149.136719 296.761719 147.65625 296.945312 146.175781 297.5 L 146.175781 287.882812 C 146.175781 279.746094 139.515625 273.085938 131.378906 273.085938 C 123.238281 273.085938 116.582031 279.746094 116.582031 287.882812 L 116.582031 338.75 L 111.957031 333.203125 C 109.179688 329.6875 104.925781 327.652344 100.488281 327.652344 C 96.972656 327.652344 93.644531 328.949219 91.054688 331.167969 C 84.949219 336.347656 84.023438 345.59375 89.203125 351.882812 L 117.136719 386.289062 L 117.691406 389.25 C 119.910156 403.492188 131.933594 413.851562 146.359375 413.851562 L 172.628906 413.851562 C 188.351562 413.851562 201.113281 401.457031 201.667969 385.734375 L 204.257812 323.214844 C 204.441406 319.144531 202.964844 315.257812 200.1875 312.484375 C 197.414062 309.523438 193.714844 308.046875 189.644531 308.046875 C 187.980469 308.046875 186.316406 308.414062 184.835938 308.96875 C 183.542969 302.125 177.621094 296.945312 170.59375 296.945312 L 170.40625 296.945312 C 166.707031 296.945312 163.378906 298.242188 160.789062 300.644531 C 158.199219 298.425781 154.871094 296.945312 151.171875 296.945312 L 150.800781 296.945312 Z M 158.199219 311.375 L 158.199219 334.125 L 163.007812 333.757812 L 163.007812 311.375 C 163.007812 307.304688 166.152344 304.160156 170.222656 304.160156 L 170.40625 304.160156 C 174.292969 304.160156 177.621094 307.304688 177.621094 311.375 L 177.621094 332.832031 L 182.429688 332.460938 L 182.429688 322.472656 C 182.429688 318.402344 185.574219 315.257812 189.644531 315.257812 C 193.714844 315.257812 197.042969 318.589844 196.859375 322.65625 L 194.269531 385.179688 C 193.898438 396.832031 184.28125 406.265625 172.628906 406.265625 L 146.175781 406.265625 C 135.449219 406.265625 126.382812 398.496094 124.71875 387.953125 L 123.980469 382.960938 L 94.9375 347.074219 C 92.347656 343.929688 92.902344 339.304688 95.863281 336.714844 C 97.15625 335.605469 99.007812 335.050781 100.671875 335.050781 C 102.890625 335.050781 104.925781 335.976562 106.40625 337.824219 L 124.164062 359.652344 L 124.164062 287.882812 C 124.164062 283.8125 127.492188 280.484375 131.5625 280.484375 C 135.632812 280.484375 138.960938 283.8125 138.960938 287.882812 L 138.960938 335.421875 L 143.773438 335.050781 L 143.773438 311.375 C 143.773438 307.304688 146.917969 304.160156 150.984375 304.160156 L 151.171875 304.160156 C 154.871094 304.160156 158.199219 307.304688 158.199219 311.375 Z M 158.199219 311.375 " fill-opacity="1" fill-rule="nonzero"/></g><path fill="#ffffff" d="M 130.269531 247.1875 C 116.027344 247.1875 104.371094 258.84375 104.371094 273.085938 C 104.371094 278.632812 106.222656 283.8125 109.179688 288.066406 L 109.179688 287.699219 C 109.179688 283.628906 110.292969 279.929688 112.140625 276.785156 C 111.957031 275.488281 111.769531 274.378906 111.769531 272.898438 C 111.769531 262.726562 120.09375 254.402344 130.269531 254.402344 C 140.441406 254.402344 148.765625 262.726562 148.765625 272.898438 C 148.765625 273.269531 148.765625 273.640625 148.765625 274.011719 C 151.171875 277.15625 152.835938 280.855469 153.390625 284.738281 C 155.238281 281.222656 156.351562 277.15625 156.351562 272.898438 C 156.164062 258.84375 144.511719 247.1875 130.269531 247.1875 Z M 130.269531 247.1875 " fill-opacity="1" fill-rule="nonzero"/><g clip-path="url(#bbe1d76055)"><path fill="#ffffff" d="M 78.476562 311.929688 C 77.550781 329.6875 63.121094 343.375 45.179688 343.375 L 37.226562 343.375 C 35.5625 338.011719 30.753906 334.125 24.832031 334.125 C 17.617188 334.125 11.886719 339.859375 11.886719 347.074219 C 11.886719 354.289062 17.617188 360.023438 24.832031 360.023438 C 30.753906 360.023438 35.5625 356.136719 37.226562 350.773438 L 45.179688 350.773438 C 66.453125 350.773438 84.023438 334.496094 85.691406 313.410156 C 91.609375 308.785156 99.007812 306.195312 106.777344 306.378906 C 107.332031 306.75 107.886719 307.121094 108.441406 307.492188 C 108.441406 307.492188 108.625 307.492188 108.625 307.675781 C 108.8125 307.859375 108.996094 307.859375 109.179688 308.046875 L 109.179688 298.980469 C 101.78125 292.878906 96.972656 283.628906 96.972656 273.269531 L 96.972656 269.570312 L 55.722656 269.570312 C 54.058594 264.207031 49.25 260.320312 43.332031 260.320312 C 36.117188 260.320312 30.382812 266.054688 30.382812 273.269531 C 30.382812 280.484375 36.117188 286.21875 43.332031 286.21875 C 49.25 286.21875 54.058594 282.332031 55.722656 276.96875 L 89.757812 276.96875 C 90.5 285.664062 94.011719 293.433594 99.378906 299.722656 C 92.164062 301.015625 85.320312 304.160156 79.585938 308.96875 C 78.84375 309.523438 78.476562 310.636719 78.476562 311.929688 Z M 24.832031 352.625 C 21.6875 352.625 19.285156 350.21875 19.285156 347.074219 C 19.285156 343.929688 21.6875 341.527344 24.832031 341.527344 C 27.976562 341.527344 30.382812 343.929688 30.382812 347.074219 C 30.382812 350.21875 27.976562 352.625 24.832031 352.625 Z M 43.332031 278.632812 C 40.1875 278.632812 37.78125 276.230469 37.78125 273.085938 C 37.78125 269.941406 40.1875 267.535156 43.332031 267.535156 C 46.476562 267.535156 48.878906 269.941406 48.878906 273.085938 C 48.878906 276.230469 46.476562 278.632812 43.332031 278.632812 Z M 43.332031 278.632812 " fill-opacity="1" fill-rule="nonzero"/></g><g fill="#ffffff" fill-opacity="1"><g transform="translate(274.601415, 332.570213)"><g><path d="M 31.625 1.015625 C 26.132812 1.015625 20.828125 0.238281 15.703125 -1.3125 C 10.585938 -2.875 6.539062 -4.945312 3.5625 -7.53125 L 8.140625 -17.796875 C 11.046875 -15.484375 14.617188 -13.597656 18.859375 -12.140625 C 23.097656 -10.691406 27.351562 -9.96875 31.625 -9.96875 C 36.90625 -9.96875 40.847656 -10.8125 43.453125 -12.5 C 46.066406 -14.195312 47.375 -16.4375 47.375 -19.21875 C 47.375 -21.25 46.644531 -22.925781 45.1875 -24.25 C 43.726562 -25.570312 41.878906 -26.601562 39.640625 -27.34375 C 37.410156 -28.09375 34.363281 -28.941406 30.5 -29.890625 C 25.082031 -31.179688 20.691406 -32.46875 17.328125 -33.75 C 13.972656 -35.039062 11.09375 -37.054688 8.6875 -39.796875 C 6.28125 -42.546875 5.078125 -46.257812 5.078125 -50.9375 C 5.078125 -54.863281 6.144531 -58.4375 8.28125 -61.65625 C 10.414062 -64.882812 13.632812 -67.445312 17.9375 -69.34375 C 22.25 -71.238281 27.519531 -72.1875 33.75 -72.1875 C 38.09375 -72.1875 42.363281 -71.644531 46.5625 -70.5625 C 50.769531 -69.476562 54.394531 -67.921875 57.4375 -65.890625 L 53.28125 -55.609375 C 50.15625 -57.441406 46.898438 -58.832031 43.515625 -59.78125 C 40.128906 -60.726562 36.84375 -61.203125 33.65625 -61.203125 C 28.4375 -61.203125 24.554688 -60.320312 22.015625 -58.5625 C 19.472656 -56.800781 18.203125 -54.460938 18.203125 -51.546875 C 18.203125 -49.515625 18.929688 -47.851562 20.390625 -46.5625 C 21.847656 -45.28125 23.691406 -44.265625 25.921875 -43.515625 C 28.160156 -42.765625 31.210938 -41.914062 35.078125 -40.96875 C 40.359375 -39.75 44.691406 -38.476562 48.078125 -37.15625 C 51.472656 -35.832031 54.375 -33.816406 56.78125 -31.109375 C 59.1875 -28.398438 60.390625 -24.738281 60.390625 -20.125 C 60.390625 -16.195312 59.320312 -12.640625 57.1875 -9.453125 C 55.050781 -6.265625 51.8125 -3.722656 47.46875 -1.828125 C 43.132812 0.0664062 37.851562 1.015625 31.625 1.015625 Z M 31.625 1.015625 "/></g></g></g><g fill="#ffffff" fill-opacity="1"><g transform="translate(338.53054, 332.570213)"><g><path d="M 30.5 -23.28125 L 21.046875 -14.328125 L 21.046875 0 L 8.34375 0 L 8.34375 -75.4375 L 21.046875 -75.4375 L 21.046875 -29.890625 L 47.375 -54.296875 L 62.625 -54.296875 L 39.953125 -31.515625 L 64.765625 0 L 49.3125 0 Z M 30.5 -23.28125 "/></g></g></g><g fill="#ffffff" fill-opacity="1"><g transform="translate(403.171129, 332.570213)"><g><path d="M 8.34375 -54.296875 L 21.046875 -54.296875 L 21.046875 0 L 8.34375 0 Z M 14.75 -63.234375 C 12.445312 -63.234375 10.515625 -63.960938 8.953125 -65.421875 C 7.390625 -66.878906 6.609375 -68.691406 6.609375 -70.859375 C 6.609375 -73.035156 7.390625 -74.847656 8.953125 -76.296875 C 10.515625 -77.753906 12.445312 -78.484375 14.75 -78.484375 C 17.050781 -78.484375 18.976562 -77.789062 20.53125 -76.40625 C 22.09375 -75.019531 22.875 -73.273438 22.875 -71.171875 C 22.875 -68.929688 22.113281 -67.046875 20.59375 -65.515625 C 19.070312 -63.992188 17.125 -63.234375 14.75 -63.234375 Z M 14.75 -63.234375 "/></g></g></g><g fill="#ffffff" fill-opacity="1"><g transform="translate(432.543966, 332.570213)"><g><path d="M 8.34375 -75.4375 L 21.046875 -75.4375 L 21.046875 0 L 8.34375 0 Z M 8.34375 -75.4375 "/></g></g></g><g fill="#ffffff" fill-opacity="1"><g transform="translate(461.916803, 332.570213)"><g><path d="M 8.34375 -75.4375 L 21.046875 -75.4375 L 21.046875 0 L 8.34375 0 Z M 8.34375 -75.4375 "/></g></g></g><g fill="#ffffff" fill-opacity="1"><g transform="translate(491.28964, 332.570213)"><g><path d="M 42.5 1.015625 C 35.3125 1.015625 28.816406 -0.554688 23.015625 -3.703125 C 17.222656 -6.859375 12.679688 -11.210938 9.390625 -16.765625 C 6.109375 -22.328125 4.46875 -28.597656 4.46875 -35.578125 C 4.46875 -42.566406 6.128906 -48.835938 9.453125 -54.390625 C 12.773438 -59.953125 17.332031 -64.304688 23.125 -67.453125 C 28.925781 -70.609375 35.414062 -72.1875 42.59375 -72.1875 C 48.425781 -72.1875 53.75 -71.171875 58.5625 -69.140625 C 63.375 -67.109375 67.441406 -64.160156 70.765625 -60.296875 L 62.21875 -52.265625 C 57.070312 -57.816406 50.734375 -60.59375 43.203125 -60.59375 C 38.328125 -60.59375 33.957031 -59.523438 30.09375 -57.390625 C 26.226562 -55.253906 23.210938 -52.285156 21.046875 -48.484375 C 18.878906 -44.691406 17.796875 -40.390625 17.796875 -35.578125 C 17.796875 -30.765625 18.878906 -26.460938 21.046875 -22.671875 C 23.210938 -18.878906 26.226562 -15.914062 30.09375 -13.78125 C 33.957031 -11.644531 38.328125 -10.578125 43.203125 -10.578125 C 50.734375 -10.578125 57.070312 -13.390625 62.21875 -19.015625 L 70.765625 -10.875 C 67.441406 -7.007812 63.359375 -4.0625 58.515625 -2.03125 C 53.671875 0 48.332031 1.015625 42.5 1.015625 Z M 42.5 1.015625 "/></g></g></g><g fill="#ffffff" fill-opacity="1"><g transform="translate(565.179133, 332.570213)"><g><path d="M 32.734375 0.71875 C 27.242188 0.71875 22.296875 -0.46875 17.890625 -2.84375 C 13.484375 -5.21875 10.039062 -8.519531 7.5625 -12.75 C 5.09375 -16.988281 3.859375 -21.785156 3.859375 -27.140625 C 3.859375 -32.492188 5.09375 -37.269531 7.5625 -41.46875 C 10.039062 -45.675781 13.484375 -48.96875 17.890625 -51.34375 C 22.296875 -53.71875 27.242188 -54.90625 32.734375 -54.90625 C 38.296875 -54.90625 43.28125 -53.71875 47.6875 -51.34375 C 52.09375 -48.96875 55.53125 -45.675781 58 -41.46875 C 60.476562 -37.269531 61.71875 -32.492188 61.71875 -27.140625 C 61.71875 -21.785156 60.476562 -16.988281 58 -12.75 C 55.53125 -8.519531 52.09375 -5.21875 47.6875 -2.84375 C 43.28125 -0.46875 38.296875 0.71875 32.734375 0.71875 Z M 32.734375 -10.171875 C 37.410156 -10.171875 41.273438 -11.726562 44.328125 -14.84375 C 47.378906 -17.957031 48.90625 -22.054688 48.90625 -27.140625 C 48.90625 -32.222656 47.378906 -36.320312 44.328125 -39.4375 C 41.273438 -42.5625 37.410156 -44.125 32.734375 -44.125 C 28.054688 -44.125 24.207031 -42.5625 21.1875 -39.4375 C 18.175781 -36.320312 16.671875 -32.222656 16.671875 -27.140625 C 16.671875 -22.054688 18.175781 -17.957031 21.1875 -14.84375 C 24.207031 -11.726562 28.054688 -10.171875 32.734375 -10.171875 Z M 32.734375 -10.171875 "/></g></g></g><g fill="#ffffff" fill-opacity="1"><g transform="translate(630.734454, 332.570213)"><g><path d="M 39.140625 -54.90625 C 45.984375 -54.90625 51.472656 -52.90625 55.609375 -48.90625 C 59.742188 -44.90625 61.8125 -38.972656 61.8125 -31.109375 L 61.8125 0 L 49.109375 0 L 49.109375 -29.484375 C 49.109375 -34.234375 47.988281 -37.8125 45.75 -40.21875 C 43.507812 -42.625 40.320312 -43.828125 36.1875 -43.828125 C 31.519531 -43.828125 27.828125 -42.414062 25.109375 -39.59375 C 22.398438 -36.78125 21.046875 -32.734375 21.046875 -27.453125 L 21.046875 0 L 8.34375 0 L 8.34375 -54.296875 L 20.4375 -54.296875 L 20.4375 -47.28125 C 22.539062 -49.789062 25.179688 -51.6875 28.359375 -52.96875 C 31.546875 -54.257812 35.140625 -54.90625 39.140625 -54.90625 Z M 39.140625 -54.90625 "/></g></g></g><g fill="#ffffff" fill-opacity="1"><g transform="translate(700.355228, 332.570213)"><g><path d="M 39.140625 -54.90625 C 45.984375 -54.90625 51.472656 -52.90625 55.609375 -48.90625 C 59.742188 -44.90625 61.8125 -38.972656 61.8125 -31.109375 L 61.8125 0 L 49.109375 0 L 49.109375 -29.484375 C 49.109375 -34.234375 47.988281 -37.8125 45.75 -40.21875 C 43.507812 -42.625 40.320312 -43.828125 36.1875 -43.828125 C 31.519531 -43.828125 27.828125 -42.414062 25.109375 -39.59375 C 22.398438 -36.78125 21.046875 -32.734375 21.046875 -27.453125 L 21.046875 0 L 8.34375 0 L 8.34375 -54.296875 L 20.4375 -54.296875 L 20.4375 -47.28125 C 22.539062 -49.789062 25.179688 -51.6875 28.359375 -52.96875 C 31.546875 -54.257812 35.140625 -54.90625 39.140625 -54.90625 Z M 39.140625 -54.90625 "/></g></g></g><g fill="#ffffff" fill-opacity="1"><g transform="translate(769.976001, 332.570213)"><g><path d="M 59.375 -26.84375 C 59.375 -25.957031 59.304688 -24.703125 59.171875 -23.078125 L 16.578125 -23.078125 C 17.316406 -19.078125 19.257812 -15.90625 22.40625 -13.5625 C 25.5625 -11.226562 29.476562 -10.0625 34.15625 -10.0625 C 40.125 -10.0625 45.039062 -12.03125 48.90625 -15.96875 L 55.71875 -8.140625 C 53.28125 -5.222656 50.195312 -3.015625 46.46875 -1.515625 C 42.738281 -0.0234375 38.535156 0.71875 33.859375 0.71875 C 27.890625 0.71875 22.632812 -0.46875 18.09375 -2.84375 C 13.550781 -5.21875 10.039062 -8.519531 7.5625 -12.75 C 5.09375 -16.988281 3.859375 -21.785156 3.859375 -27.140625 C 3.859375 -32.429688 5.0625 -37.191406 7.46875 -41.421875 C 9.875 -45.660156 13.210938 -48.96875 17.484375 -51.34375 C 21.753906 -53.71875 26.566406 -54.90625 31.921875 -54.90625 C 37.210938 -54.90625 41.941406 -53.734375 46.109375 -51.390625 C 50.273438 -49.054688 53.523438 -45.769531 55.859375 -41.53125 C 58.203125 -37.289062 59.375 -32.394531 59.375 -26.84375 Z M 31.921875 -44.734375 C 27.859375 -44.734375 24.421875 -43.53125 21.609375 -41.125 C 18.796875 -38.71875 17.082031 -35.515625 16.46875 -31.515625 L 47.28125 -31.515625 C 46.738281 -35.453125 45.078125 -38.640625 42.296875 -41.078125 C 39.515625 -43.515625 36.054688 -44.734375 31.921875 -44.734375 Z M 31.921875 -44.734375 "/></g></g></g><g fill="#ffffff" fill-opacity="1"><g transform="translate(833.193661, 332.570213)"><g><path d="M 33.25 0.71875 C 27.625 0.71875 22.570312 -0.46875 18.09375 -2.84375 C 13.625 -5.21875 10.132812 -8.519531 7.625 -12.75 C 5.113281 -16.988281 3.859375 -21.785156 3.859375 -27.140625 C 3.859375 -32.492188 5.113281 -37.269531 7.625 -41.46875 C 10.132812 -45.675781 13.609375 -48.96875 18.046875 -51.34375 C 22.484375 -53.71875 27.550781 -54.90625 33.25 -54.90625 C 38.601562 -54.90625 43.296875 -53.816406 47.328125 -51.640625 C 51.359375 -49.472656 54.390625 -46.359375 56.421875 -42.296875 L 46.671875 -36.609375 C 45.109375 -39.109375 43.15625 -40.984375 40.8125 -42.234375 C 38.476562 -43.492188 35.921875 -44.125 33.140625 -44.125 C 28.398438 -44.125 24.46875 -42.582031 21.34375 -39.5 C 18.226562 -36.414062 16.671875 -32.296875 16.671875 -27.140625 C 16.671875 -21.992188 18.210938 -17.878906 21.296875 -14.796875 C 24.378906 -11.710938 28.328125 -10.171875 33.140625 -10.171875 C 35.921875 -10.171875 38.476562 -10.796875 40.8125 -12.046875 C 43.15625 -13.296875 45.109375 -15.175781 46.671875 -17.6875 L 56.421875 -12 C 54.328125 -7.925781 51.257812 -4.785156 47.21875 -2.578125 C 43.1875 -0.378906 38.53125 0.71875 33.25 0.71875 Z M 33.25 0.71875 "/></g></g></g><g fill="#ffffff" fill-opacity="1"><g transform="translate(892.244269, 332.570213)"><g><path d="M 40.96875 -2.953125 C 39.476562 -1.734375 37.664062 -0.816406 35.53125 -0.203125 C 33.394531 0.410156 31.140625 0.71875 28.765625 0.71875 C 22.804688 0.71875 18.195312 -0.835938 14.9375 -3.953125 C 11.6875 -7.078125 10.0625 -11.625 10.0625 -17.59375 L 10.0625 -43.71875 L 1.125 -43.71875 L 1.125 -53.890625 L 10.0625 -53.890625 L 10.0625 -66.296875 L 22.78125 -66.296875 L 22.78125 -53.890625 L 37.3125 -53.890625 L 37.3125 -43.71875 L 22.78125 -43.71875 L 22.78125 -17.890625 C 22.78125 -15.242188 23.421875 -13.226562 24.703125 -11.84375 C 25.992188 -10.457031 27.859375 -9.765625 30.296875 -9.765625 C 33.140625 -9.765625 35.515625 -10.507812 37.421875 -12 Z M 40.96875 -2.953125 "/></g></g></g><g fill="#ffffff" fill-opacity="1"><g transform="translate(935.384003, 332.570213)"><g/></g></g></svg>