<svg xmlns="http://www.w3.org/2000/svg" xmlns:xlink="http://www.w3.org/1999/xlink" width="875" zoomAndPan="magnify" viewBox="0 0 656.25 150.749998" height="201" preserveAspectRatio="xMidYMid meet" version="1.0"><defs><g/><clipPath id="a8b15098a8"><path d="M 41.609375 1.566406 L 186.054688 1.566406 L 186.054688 38.941406 L 41.609375 38.941406 Z M 41.609375 1.566406 " clip-rule="nonzero"/></clipPath><clipPath id="33a3a5d389"><path d="M 86.601562 54.285156 L 159.058594 54.285156 L 159.058594 139.992188 L 86.601562 139.992188 Z M 86.601562 54.285156 " clip-rule="nonzero"/></clipPath></defs><g clip-path="url(#a8b15098a8)"><path fill="#ffffff" d="M 178.21875 1.566406 C 174.605469 1.566406 171.671875 3.925781 170.65625 7.191406 L 165.804688 7.191406 C 152.824219 7.191406 142.101562 17.089844 141.085938 29.914062 C 137.476562 32.726562 132.960938 34.300781 128.222656 34.1875 C 124.382812 31.488281 119.980469 30.027344 115.242188 29.6875 C 114.453125 29.6875 113.546875 29.6875 112.757812 29.6875 C 108.019531 29.914062 103.617188 31.488281 99.777344 34.1875 C 95.039062 34.300781 90.523438 32.726562 86.914062 29.914062 C 85.671875 17.089844 74.949219 7.191406 61.96875 7.191406 L 57.117188 7.191406 C 56.101562 3.925781 53.167969 1.566406 49.554688 1.566406 C 45.152344 1.566406 41.65625 5.050781 41.65625 9.441406 C 41.65625 13.828125 45.152344 17.3125 49.554688 17.3125 C 53.167969 17.3125 56.101562 14.953125 57.117188 11.6875 L 61.96875 11.6875 C 72.917969 11.6875 81.832031 20.238281 82.285156 31.152344 C 82.285156 31.828125 82.625 32.390625 83.074219 32.726562 C 87.929688 36.886719 94.136719 39.027344 100.457031 38.6875 C 100.792969 38.6875 101.132812 38.578125 101.359375 38.464844 C 101.472656 38.351562 101.585938 38.351562 101.699219 38.238281 C 104.859375 35.875 108.695312 34.414062 112.644531 34.300781 C 112.644531 34.300781 112.757812 34.300781 112.757812 34.300781 C 113.433594 34.300781 114.113281 34.300781 114.789062 34.300781 C 114.789062 34.300781 114.789062 34.300781 114.902344 34.300781 C 118.964844 34.527344 122.804688 35.875 125.964844 38.238281 C 126.1875 38.464844 126.527344 38.578125 126.867188 38.6875 C 126.980469 38.6875 127.09375 38.6875 127.207031 38.6875 C 127.65625 38.6875 128.109375 38.6875 128.445312 38.6875 C 134.429688 38.6875 140.070312 36.550781 144.585938 32.726562 C 145.152344 32.277344 145.375 31.601562 145.375 30.925781 C 145.941406 20.128906 154.742188 11.800781 165.691406 11.800781 L 170.542969 11.800781 C 171.558594 15.066406 174.496094 17.425781 178.105469 17.425781 C 182.507812 17.425781 186.007812 13.941406 186.007812 9.550781 C 186.007812 5.164062 182.621094 1.566406 178.21875 1.566406 Z M 49.554688 12.816406 C 47.636719 12.816406 46.167969 11.351562 46.167969 9.441406 C 46.167969 7.527344 47.636719 6.066406 49.554688 6.066406 C 51.472656 6.066406 52.941406 7.527344 52.941406 9.441406 C 52.941406 11.351562 51.472656 12.816406 49.554688 12.816406 Z M 178.21875 12.816406 C 176.300781 12.816406 174.832031 11.351562 174.832031 9.441406 C 174.832031 7.527344 176.300781 6.066406 178.21875 6.066406 C 180.136719 6.066406 181.605469 7.527344 181.605469 9.441406 C 181.605469 11.351562 180.136719 12.816406 178.21875 12.816406 Z M 178.21875 12.816406 " fill-opacity="1" fill-rule="nonzero"/></g><path fill="#ffffff" d="M 136.574219 64.449219 C 137.699219 62.085938 138.378906 59.386719 138.605469 56.6875 L 159.371094 56.6875 C 160.386719 59.949219 163.320312 62.3125 166.933594 62.3125 C 171.335938 62.3125 174.832031 58.824219 174.832031 54.4375 C 174.832031 50.050781 171.335938 46.5625 166.933594 46.5625 C 163.320312 46.5625 160.386719 48.925781 159.371094 52.1875 L 134.203125 52.1875 L 134.203125 54.4375 C 134.203125 58.375 133.074219 62.085938 131.15625 65.125 C 131.605469 65.238281 132.058594 65.460938 132.394531 65.6875 C 133.75 65.011719 135.105469 64.675781 136.574219 64.449219 Z M 166.933594 51.0625 C 168.851562 51.0625 170.316406 52.527344 170.316406 54.4375 C 170.316406 56.351562 168.851562 57.8125 166.933594 57.8125 C 165.015625 57.8125 163.546875 56.351562 163.546875 54.4375 C 163.546875 52.527344 165.015625 51.0625 166.933594 51.0625 Z M 166.933594 51.0625 " fill-opacity="1" fill-rule="nonzero"/><path fill="#ffffff" d="M 178.21875 91.5625 C 174.605469 91.5625 171.671875 93.921875 170.65625 97.1875 L 165.804688 97.1875 C 164.902344 97.1875 163.886719 97.074219 162.980469 96.960938 L 162.757812 101.460938 C 163.773438 101.574219 164.675781 101.6875 165.691406 101.6875 L 170.542969 101.6875 C 171.558594 104.949219 174.496094 107.3125 178.105469 107.3125 C 182.507812 107.3125 186.007812 103.824219 186.007812 99.433594 C 186.007812 95.046875 182.621094 91.5625 178.21875 91.5625 Z M 178.21875 102.8125 C 176.300781 102.8125 174.832031 101.347656 174.832031 99.433594 C 174.832031 97.523438 176.300781 96.0625 178.21875 96.0625 C 180.136719 96.0625 181.605469 97.523438 181.605469 99.433594 C 181.605469 101.347656 180.136719 102.8125 178.21875 102.8125 Z M 178.21875 102.8125 " fill-opacity="1" fill-rule="nonzero"/><g clip-path="url(#33a3a5d389)"><path fill="#ffffff" d="M 126.414062 68.835938 C 125.398438 68.835938 124.496094 68.949219 123.59375 69.289062 L 123.59375 63.4375 C 123.59375 58.488281 119.53125 54.4375 114.566406 54.4375 C 109.597656 54.4375 105.535156 58.488281 105.535156 63.4375 L 105.535156 94.375 L 102.714844 91 C 101.019531 88.863281 98.425781 87.625 95.714844 87.625 C 93.570312 87.625 91.539062 88.410156 89.960938 89.761719 C 86.234375 92.910156 85.671875 98.535156 88.832031 102.359375 L 105.875 123.285156 L 106.210938 125.085938 C 107.566406 133.746094 114.902344 140.046875 123.707031 140.046875 L 139.734375 140.046875 C 149.324219 140.046875 157.113281 132.507812 157.453125 122.945312 L 159.03125 84.925781 C 159.144531 82.449219 158.242188 80.085938 156.550781 78.398438 C 154.855469 76.597656 152.597656 75.699219 150.117188 75.699219 C 149.101562 75.699219 148.085938 75.925781 147.183594 76.261719 C 146.390625 72.097656 142.78125 68.949219 138.492188 68.949219 L 138.378906 68.949219 C 136.121094 68.949219 134.089844 69.738281 132.511719 71.199219 C 130.929688 69.851562 128.898438 68.949219 126.640625 68.949219 L 126.414062 68.949219 Z M 130.929688 77.722656 L 130.929688 91.5625 L 133.863281 91.335938 L 133.863281 77.722656 C 133.863281 75.25 135.78125 73.335938 138.265625 73.335938 L 138.378906 73.335938 C 140.75 73.335938 142.78125 75.25 142.78125 77.722656 L 142.78125 90.773438 L 145.714844 90.546875 L 145.714844 84.472656 C 145.714844 82 147.632812 80.085938 150.117188 80.085938 C 152.597656 80.085938 154.628906 82.113281 154.519531 84.585938 L 152.9375 122.609375 C 152.710938 129.695312 146.84375 135.433594 139.734375 135.433594 L 123.59375 135.433594 C 117.046875 135.433594 111.515625 130.710938 110.5 124.296875 L 110.050781 121.261719 L 92.332031 99.433594 C 90.75 97.523438 91.089844 94.710938 92.894531 93.136719 C 93.683594 92.460938 94.8125 92.125 95.828125 92.125 C 97.183594 92.125 98.425781 92.6875 99.328125 93.8125 L 110.164062 107.085938 L 110.164062 63.4375 C 110.164062 60.960938 112.195312 58.9375 114.675781 58.9375 C 117.160156 58.9375 119.191406 60.960938 119.191406 63.4375 L 119.191406 92.347656 L 122.125 92.125 L 122.125 77.722656 C 122.125 75.25 124.042969 73.335938 126.527344 73.335938 L 126.640625 73.335938 C 128.898438 73.335938 130.929688 75.25 130.929688 77.722656 Z M 130.929688 77.722656 " fill-opacity="1" fill-rule="nonzero"/></g><path fill="#ffffff" d="M 113.886719 38.6875 C 105.195312 38.6875 98.085938 45.777344 98.085938 54.4375 C 98.085938 57.8125 99.214844 60.960938 101.019531 63.550781 L 101.019531 63.324219 C 101.019531 60.851562 101.699219 58.601562 102.828125 56.6875 C 102.714844 55.898438 102.601562 55.226562 102.601562 54.324219 C 102.601562 48.136719 107.679688 43.074219 113.886719 43.074219 C 120.09375 43.074219 125.171875 48.136719 125.171875 54.324219 C 125.171875 54.550781 125.171875 54.773438 125.171875 55 C 126.640625 56.914062 127.65625 59.164062 127.996094 61.523438 C 129.125 59.386719 129.800781 56.914062 129.800781 54.324219 C 129.6875 45.777344 122.578125 38.6875 113.886719 38.6875 Z M 113.886719 38.6875 " fill-opacity="1" fill-rule="nonzero"/><path fill="#ffffff" d="M 82.285156 78.0625 C 81.722656 88.863281 72.917969 97.1875 61.96875 97.1875 L 57.117188 97.1875 C 56.101562 93.921875 53.167969 91.5625 49.554688 91.5625 C 45.152344 91.5625 41.65625 95.046875 41.65625 99.433594 C 41.65625 103.824219 45.152344 107.3125 49.554688 107.3125 C 53.167969 107.3125 56.101562 104.949219 57.117188 101.6875 L 61.96875 101.6875 C 74.949219 101.6875 85.671875 91.785156 86.6875 78.960938 C 90.300781 76.148438 94.8125 74.574219 99.554688 74.6875 C 99.890625 74.910156 100.230469 75.136719 100.570312 75.363281 C 100.570312 75.363281 100.683594 75.363281 100.683594 75.476562 C 100.792969 75.585938 100.910156 75.585938 101.019531 75.699219 L 101.019531 70.1875 C 96.507812 66.476562 93.570312 60.851562 93.570312 54.550781 L 93.570312 52.300781 L 68.402344 52.300781 C 67.386719 49.039062 64.453125 46.675781 60.839844 46.675781 C 56.441406 46.675781 52.941406 50.164062 52.941406 54.550781 C 52.941406 58.9375 56.441406 62.425781 60.839844 62.425781 C 64.453125 62.425781 67.386719 60.0625 68.402344 56.800781 L 89.171875 56.800781 C 89.621094 62.085938 91.765625 66.8125 95.039062 70.636719 C 90.636719 71.425781 86.460938 73.335938 82.964844 76.261719 C 82.511719 76.597656 82.285156 77.273438 82.285156 78.0625 Z M 49.554688 102.8125 C 47.636719 102.8125 46.167969 101.347656 46.167969 99.433594 C 46.167969 97.523438 47.636719 96.0625 49.554688 96.0625 C 51.472656 96.0625 52.941406 97.523438 52.941406 99.433594 C 52.941406 101.347656 51.472656 102.8125 49.554688 102.8125 Z M 60.839844 57.8125 C 58.921875 57.8125 57.457031 56.351562 57.457031 54.4375 C 57.457031 52.527344 58.921875 51.0625 60.839844 51.0625 C 62.761719 51.0625 64.226562 52.527344 64.226562 54.4375 C 64.226562 56.351562 62.761719 57.8125 60.839844 57.8125 Z M 60.839844 57.8125 " fill-opacity="1" fill-rule="nonzero"/><g fill="#ffffff" fill-opacity="1"><g transform="translate(227.141339, 104.400163)"><g><path d="M 34.859375 -48.203125 C 33.960938 -48.304688 32.9375 -48.359375 31.78125 -48.359375 C 30.625 -48.359375 29.210938 -48.242188 27.546875 -48.015625 C 25.890625 -47.796875 24.175781 -47.445312 22.40625 -46.96875 C 20.632812 -46.488281 19.1875 -45.742188 18.0625 -44.734375 C 16.9375 -43.722656 16.375 -42.5 16.375 -41.0625 C 16.375 -39.625 17.234375 -38.359375 18.953125 -37.265625 C 20.671875 -36.171875 22.738281 -35.15625 25.15625 -34.21875 C 27.570312 -33.289062 30.003906 -32.234375 32.453125 -31.046875 C 34.898438 -29.867188 36.984375 -28.140625 38.703125 -25.859375 C 40.421875 -23.585938 41.28125 -20.847656 41.28125 -17.640625 C 41.28125 -11.953125 38.5625 -7.125 33.125 -3.15625 C 27.695312 0.800781 20.847656 2.78125 12.578125 2.78125 C 8.410156 2.78125 5.316406 2.554688 3.296875 2.109375 C 2.785156 1.597656 2.53125 -1.425781 2.53125 -6.96875 C 2.53125 -12.507812 2.644531 -15.84375 2.875 -16.96875 C 3.039062 -17.46875 4.023438 -18.082031 5.828125 -18.8125 C 7.628906 -19.550781 9.375 -19.921875 11.0625 -19.921875 C 11.0625 -13.273438 11.765625 -9.25 13.171875 -7.84375 C 13.734375 -7.28125 14.800781 -7 16.375 -7 C 19.976562 -7 23.113281 -8.007812 25.78125 -10.03125 C 28.457031 -12.0625 29.796875 -14.457031 29.796875 -17.21875 C 29.796875 -19.070312 28.921875 -20.703125 27.171875 -22.109375 C 25.429688 -23.515625 23.304688 -24.738281 20.796875 -25.78125 C 18.296875 -26.820312 15.804688 -27.921875 13.328125 -29.078125 C 10.859375 -30.234375 8.75 -31.820312 7 -33.84375 C 5.257812 -35.875 4.390625 -38.265625 4.390625 -41.015625 C 4.390625 -45.128906 6.847656 -48.882812 11.765625 -52.28125 C 16.691406 -55.6875 23.828125 -57.390625 33.171875 -57.390625 C 35.367188 -57.390625 36.609375 -57.25 36.890625 -56.96875 C 36.941406 -56.800781 36.96875 -56.394531 36.96875 -55.75 C 36.96875 -55.101562 36.769531 -53.847656 36.375 -51.984375 C 35.976562 -50.128906 35.472656 -48.867188 34.859375 -48.203125 Z M 34.859375 -48.203125 "/></g></g></g><g fill="#ffffff" fill-opacity="1"><g transform="translate(270.943064, 104.400163)"><g><path d="M 4.890625 -16.375 L 4.640625 -45.65625 C 4.640625 -51.113281 4.78125 -53.984375 5.0625 -54.265625 C 5.738281 -54.941406 6.835938 -55.585938 8.359375 -56.203125 C 9.878906 -56.828125 11.34375 -57.140625 12.75 -57.140625 C 14.15625 -57.140625 14.859375 -57.03125 14.859375 -56.8125 C 14.796875 -56.53125 14.664062 -52.585938 14.46875 -44.984375 C 14.28125 -37.390625 14.1875 -32.476562 14.1875 -30.25 C 14.1875 -28.03125 14.210938 -26.765625 14.265625 -26.453125 C 14.316406 -26.148438 14.429688 -26 14.609375 -26 L 14.765625 -26.078125 C 16.566406 -27.992188 19.238281 -30.382812 22.78125 -33.25 C 26.332031 -36.125 28.613281 -37.5625 29.625 -37.5625 C 32.945312 -35.476562 34.609375 -33.789062 34.609375 -32.5 C 32.921875 -31.425781 30.921875 -29.960938 28.609375 -28.109375 C 26.304688 -26.253906 25.039062 -25.070312 24.8125 -24.5625 C 24.8125 -24.113281 25.300781 -22.492188 26.28125 -19.703125 C 27.269531 -16.921875 28.722656 -13.644531 30.640625 -9.875 C 32.554688 -6.101562 34.46875 -3.257812 36.375 -1.34375 C 36.375 -0.675781 35.132812 0.160156 32.65625 1.171875 C 30.1875 2.191406 28.050781 2.703125 26.25 2.703125 C 25.570312 2.703125 24.257812 0.0546875 22.3125 -5.234375 C 20.375 -10.523438 19.039062 -14.632812 18.3125 -17.5625 L 18.140625 -17.8125 C 17.921875 -17.8125 17.21875 -16.992188 16.03125 -15.359375 C 14.851562 -13.734375 14.265625 -12.632812 14.265625 -12.0625 L 14.515625 -3.453125 C 14.515625 -1.429688 14.40625 -0.304688 14.1875 -0.078125 C 13.445312 0.648438 12.175781 1.207031 10.375 1.59375 C 8.582031 1.988281 7.109375 2.1875 5.953125 2.1875 C 4.796875 2.1875 4.21875 2.101562 4.21875 1.9375 C 4.664062 -0.53125 4.890625 -6.632812 4.890625 -16.375 Z M 4.890625 -16.375 "/></g></g></g><g fill="#ffffff" fill-opacity="1"><g transform="translate(307.317906, 104.400163)"><g><path d="M 10.25 -50.390625 C 11.800781 -50.390625 13.054688 -49.882812 14.015625 -48.875 C 14.972656 -47.863281 15.453125 -46.539062 15.453125 -44.90625 C 15.453125 -43.269531 14.816406 -41.875 13.546875 -40.71875 C 12.273438 -39.570312 10.863281 -39 9.3125 -39 C 7.769531 -39 6.535156 -39.488281 5.609375 -40.46875 C 4.679688 -41.457031 4.21875 -42.765625 4.21875 -44.390625 C 4.21875 -46.023438 4.835938 -47.429688 6.078125 -48.609375 C 7.316406 -49.796875 8.707031 -50.390625 10.25 -50.390625 Z M 14.515625 -29.375 L 14.34375 -15.703125 C 14.34375 -11.304688 14.46875 -8.082031 14.71875 -6.03125 C 14.976562 -3.976562 15.695312 -2.050781 16.875 -0.25 C 16.875 0.3125 15.71875 1.210938 13.40625 2.453125 C 11.101562 3.691406 9.140625 4.3125 7.515625 4.3125 C 7.003906 4.3125 6.492188 3.460938 5.984375 1.765625 C 5.484375 0.078125 5.160156 -1.519531 5.015625 -3.03125 C 4.878906 -4.550781 4.8125 -9.671875 4.8125 -18.390625 C 4.8125 -27.117188 5.007812 -31.878906 5.40625 -32.671875 C 6.695312 -33.679688 8.972656 -34.1875 12.234375 -34.1875 C 13.535156 -34.1875 14.328125 -34.015625 14.609375 -33.671875 Z M 14.515625 -29.375 "/></g></g></g><g fill="#ffffff" fill-opacity="1"><g transform="translate(325.885109, 104.400163)"><g><path d="M 4.21875 -11.984375 L 4.5625 -42.546875 C 4.5625 -46.984375 4.503906 -49.988281 4.390625 -51.5625 C 4.273438 -53.144531 4.21875 -53.992188 4.21875 -54.109375 C 4.21875 -54.671875 5.160156 -55.316406 7.046875 -56.046875 C 8.929688 -56.773438 10.601562 -57.140625 12.0625 -57.140625 C 13.53125 -57.140625 14.265625 -57.03125 14.265625 -56.8125 C 13.984375 -54.726562 13.84375 -47.410156 13.84375 -34.859375 L 13.671875 -14.1875 C 13.671875 -10.300781 13.726562 -7.90625 13.84375 -7 C 14.125 -4.53125 14.941406 -2.28125 16.296875 -0.25 C 16.296875 0.3125 15.140625 1.210938 12.828125 2.453125 C 10.523438 3.691406 8.554688 4.3125 6.921875 4.3125 C 6.472656 4.3125 5.96875 3.460938 5.40625 1.765625 C 4.84375 0.078125 4.503906 -1.378906 4.390625 -2.609375 C 4.273438 -3.847656 4.21875 -6.972656 4.21875 -11.984375 Z M 4.21875 -11.984375 "/></g></g></g><g fill="#ffffff" fill-opacity="1"><g transform="translate(344.705506, 104.400163)"><g><path d="M 4.21875 -11.984375 L 4.5625 -42.546875 C 4.5625 -46.984375 4.503906 -49.988281 4.390625 -51.5625 C 4.273438 -53.144531 4.21875 -53.992188 4.21875 -54.109375 C 4.21875 -54.671875 5.160156 -55.316406 7.046875 -56.046875 C 8.929688 -56.773438 10.601562 -57.140625 12.0625 -57.140625 C 13.53125 -57.140625 14.265625 -57.03125 14.265625 -56.8125 C 13.984375 -54.726562 13.84375 -47.410156 13.84375 -34.859375 L 13.671875 -14.1875 C 13.671875 -10.300781 13.726562 -7.90625 13.84375 -7 C 14.125 -4.53125 14.941406 -2.28125 16.296875 -0.25 C 16.296875 0.3125 15.140625 1.210938 12.828125 2.453125 C 10.523438 3.691406 8.554688 4.3125 6.921875 4.3125 C 6.472656 4.3125 5.96875 3.460938 5.40625 1.765625 C 4.84375 0.078125 4.503906 -1.378906 4.390625 -2.609375 C 4.273438 -3.847656 4.21875 -6.972656 4.21875 -11.984375 Z M 4.21875 -11.984375 "/></g></g></g><g fill="#ffffff" fill-opacity="1"><g transform="translate(363.525904, 104.400163)"><g><path d="M 27.9375 2.609375 C 19.71875 2.609375 13.5 0.25 9.28125 -4.46875 C 5.0625 -9.195312 2.953125 -15.304688 2.953125 -22.796875 C 2.953125 -29.148438 4.359375 -35.054688 7.171875 -40.515625 C 8.804688 -43.722656 10.859375 -46.535156 13.328125 -48.953125 C 15.804688 -51.367188 19.15625 -53.363281 23.375 -54.9375 C 27.601562 -56.519531 32.390625 -57.3125 37.734375 -57.3125 C 39.535156 -57.3125 41.140625 -57.140625 42.546875 -56.796875 C 43.953125 -56.460938 44.65625 -56.238281 44.65625 -56.125 C 44.65625 -53.425781 44.46875 -50.347656 44.09375 -46.890625 C 43.726562 -43.429688 43.519531 -41.671875 43.46875 -41.609375 C 43.1875 -41.328125 42.019531 -40.875 39.96875 -40.25 C 37.914062 -39.632812 36.378906 -39.328125 35.359375 -39.328125 L 35.359375 -39.84375 C 35.359375 -42.375 34.992188 -44.144531 34.265625 -45.15625 C 33.535156 -46.164062 32.269531 -46.671875 30.46875 -46.671875 C 26.476562 -46.671875 22.765625 -44.570312 19.328125 -40.375 C 15.898438 -36.1875 14.1875 -30.4375 14.1875 -23.125 C 14.1875 -19.238281 15.140625 -15.75 17.046875 -12.65625 C 18.054688 -11.03125 19.53125 -9.707031 21.46875 -8.6875 C 23.414062 -7.675781 25.710938 -7.171875 28.359375 -7.171875 C 33.648438 -7.171875 38.800781 -9.617188 43.8125 -14.515625 C 44.03125 -14.515625 44.488281 -14.160156 45.1875 -13.453125 C 45.894531 -12.753906 46.585938 -11.816406 47.265625 -10.640625 C 48.671875 -8.390625 49.375 -7.007812 49.375 -6.5 C 49.375 -5.988281 48.5 -5.046875 46.75 -3.671875 C 45.007812 -2.296875 42.367188 -0.90625 38.828125 0.5 C 35.285156 1.90625 31.65625 2.609375 27.9375 2.609375 Z M 27.9375 2.609375 "/></g></g></g><g fill="#ffffff" fill-opacity="1"><g transform="translate(414.163736, 104.400163)"><g><path d="M 38.328125 -17.5625 C 38.328125 -12.207031 36.707031 -7.578125 33.46875 -3.671875 C 30.226562 0.234375 25.835938 2.1875 20.296875 2.1875 C 14.753906 2.1875 10.40625 0.472656 7.25 -2.953125 C 4.101562 -6.390625 2.53125 -10.847656 2.53125 -16.328125 C 2.53125 -21.816406 4.484375 -26.6875 8.390625 -30.9375 C 12.304688 -35.1875 17.582031 -37.3125 24.21875 -37.3125 C 26.925781 -37.195312 28.390625 -37.023438 28.609375 -36.796875 C 28.835938 -36.578125 28.953125 -36.046875 28.953125 -35.203125 C 28.953125 -34.359375 28.867188 -33.425781 28.703125 -32.40625 C 29.546875 -32.40625 30.628906 -31.910156 31.953125 -30.921875 C 33.273438 -29.941406 34.359375 -28.945312 35.203125 -27.9375 C 36.046875 -26.925781 36.773438 -25.503906 37.390625 -23.671875 C 38.015625 -21.847656 38.328125 -19.8125 38.328125 -17.5625 Z M 26 -23.46875 C 24.707031 -24.3125 23.441406 -24.734375 22.203125 -24.734375 L 21.53125 -24.734375 C 21.414062 -24.953125 21.359375 -25.425781 21.359375 -26.15625 C 21.359375 -26.894531 21.441406 -27.601562 21.609375 -28.28125 C 19.296875 -28.28125 17.140625 -27.238281 15.140625 -25.15625 C 13.148438 -23.070312 12.15625 -20.171875 12.15625 -16.453125 C 12.15625 -12.066406 13.5625 -9.03125 16.375 -7.34375 C 17.445312 -6.664062 18.925781 -6.328125 20.8125 -6.328125 C 22.695312 -6.328125 24.46875 -7.195312 26.125 -8.9375 C 27.78125 -10.6875 28.609375 -13.273438 28.609375 -16.703125 C 28.609375 -20.140625 27.738281 -22.394531 26 -23.46875 Z M 26 -23.46875 "/></g></g></g><g fill="#ffffff" fill-opacity="1"><g transform="translate(455.011575, 104.400163)"><g><path d="M 14.4375 -18.984375 L 14.515625 -15.875 L 14.515625 -9.453125 C 14.515625 -3.429688 14.40625 -0.304688 14.1875 -0.078125 C 13.445312 0.648438 12.175781 1.207031 10.375 1.59375 C 8.582031 1.988281 7.109375 2.1875 5.953125 2.1875 C 4.796875 2.1875 4.21875 2.101562 4.21875 1.9375 C 4.613281 -0.59375 4.8125 -4.753906 4.8125 -10.546875 L 4.5625 -29.546875 C 4.5625 -33.035156 4.703125 -34.921875 4.984375 -35.203125 C 5.597656 -35.816406 6.664062 -36.363281 8.1875 -36.84375 C 9.707031 -37.320312 11.128906 -37.5625 12.453125 -37.5625 C 13.773438 -37.5625 14.4375 -37.421875 14.4375 -37.140625 C 14.269531 -35.785156 14.1875 -34.429688 14.1875 -33.078125 C 14.1875 -31.734375 14.269531 -31.0625 14.4375 -31.0625 L 14.6875 -31.234375 C 14.96875 -31.628906 15.390625 -32.117188 15.953125 -32.703125 C 16.515625 -33.296875 17.707031 -34.082031 19.53125 -35.0625 C 21.363281 -36.050781 23.109375 -36.546875 24.765625 -36.546875 C 26.429688 -36.546875 27.835938 -36.25 28.984375 -35.65625 C 30.140625 -35.070312 31.082031 -34.359375 31.8125 -33.515625 C 32.550781 -32.671875 33.1875 -31.457031 33.71875 -29.875 C 34.25 -28.300781 34.65625 -26.835938 34.9375 -25.484375 C 35.21875 -24.140625 35.445312 -22.34375 35.625 -20.09375 C 35.789062 -17 35.875 -13.054688 35.875 -8.265625 L 35.625 1.609375 C 35.625 1.992188 34.691406 2.367188 32.828125 2.734375 C 30.972656 3.109375 29.484375 3.296875 28.359375 3.296875 L 25.578125 2.875 C 26.140625 -2.195312 26.421875 -7.109375 26.421875 -11.859375 C 26.421875 -16.609375 26.109375 -20.179688 25.484375 -22.578125 C 24.867188 -24.972656 23.628906 -26.171875 21.765625 -26.171875 C 19.910156 -26.171875 18.40625 -25.660156 17.25 -24.640625 C 16.101562 -23.628906 15.363281 -22.617188 15.03125 -21.609375 L 14.4375 -20.171875 Z M 14.4375 -18.984375 "/></g></g></g><g fill="#ffffff" fill-opacity="1"><g transform="translate(494.255892, 104.400163)"><g><path d="M 14.4375 -18.984375 L 14.515625 -15.875 L 14.515625 -9.453125 C 14.515625 -3.429688 14.40625 -0.304688 14.1875 -0.078125 C 13.445312 0.648438 12.175781 1.207031 10.375 1.59375 C 8.582031 1.988281 7.109375 2.1875 5.953125 2.1875 C 4.796875 2.1875 4.21875 2.101562 4.21875 1.9375 C 4.613281 -0.59375 4.8125 -4.753906 4.8125 -10.546875 L 4.5625 -29.546875 C 4.5625 -33.035156 4.703125 -34.921875 4.984375 -35.203125 C 5.597656 -35.816406 6.664062 -36.363281 8.1875 -36.84375 C 9.707031 -37.320312 11.128906 -37.5625 12.453125 -37.5625 C 13.773438 -37.5625 14.4375 -37.421875 14.4375 -37.140625 C 14.269531 -35.785156 14.1875 -34.429688 14.1875 -33.078125 C 14.1875 -31.734375 14.269531 -31.0625 14.4375 -31.0625 L 14.6875 -31.234375 C 14.96875 -31.628906 15.390625 -32.117188 15.953125 -32.703125 C 16.515625 -33.296875 17.707031 -34.082031 19.53125 -35.0625 C 21.363281 -36.050781 23.109375 -36.546875 24.765625 -36.546875 C 26.429688 -36.546875 27.835938 -36.25 28.984375 -35.65625 C 30.140625 -35.070312 31.082031 -34.359375 31.8125 -33.515625 C 32.550781 -32.671875 33.1875 -31.457031 33.71875 -29.875 C 34.25 -28.300781 34.65625 -26.835938 34.9375 -25.484375 C 35.21875 -24.140625 35.445312 -22.34375 35.625 -20.09375 C 35.789062 -17 35.875 -13.054688 35.875 -8.265625 L 35.625 1.609375 C 35.625 1.992188 34.691406 2.367188 32.828125 2.734375 C 30.972656 3.109375 29.484375 3.296875 28.359375 3.296875 L 25.578125 2.875 C 26.140625 -2.195312 26.421875 -7.109375 26.421875 -11.859375 C 26.421875 -16.609375 26.109375 -20.179688 25.484375 -22.578125 C 24.867188 -24.972656 23.628906 -26.171875 21.765625 -26.171875 C 19.910156 -26.171875 18.40625 -25.660156 17.25 -24.640625 C 16.101562 -23.628906 15.363281 -22.617188 15.03125 -21.609375 L 14.4375 -20.171875 Z M 14.4375 -18.984375 "/></g></g></g><g fill="#ffffff" fill-opacity="1"><g transform="translate(533.500209, 104.400163)"><g><path d="M 23.71875 -26.84375 C 23.71875 -28.46875 22.84375 -29.28125 21.09375 -29.28125 C 18.789062 -29.28125 16.765625 -28.097656 15.015625 -25.734375 C 13.273438 -23.378906 12.40625 -20.539062 12.40625 -17.21875 C 12.40625 -16.425781 12.519531 -16.03125 12.75 -16.03125 C 14.769531 -16.09375 17.101562 -17.257812 19.75 -19.53125 C 22.394531 -21.8125 23.71875 -24.25 23.71875 -26.84375 Z M 31.0625 0 C 29.144531 1.289062 25.398438 1.9375 19.828125 1.9375 C 14.265625 1.9375 9.988281 0.28125 7 -3.03125 C 4.019531 -6.351562 2.53125 -10.785156 2.53125 -16.328125 C 2.53125 -21.867188 4.316406 -26.679688 7.890625 -30.765625 C 11.460938 -34.847656 16.484375 -36.890625 22.953125 -36.890625 C 25.597656 -36.890625 28.03125 -36.1875 30.25 -34.78125 C 32.476562 -33.375 33.59375 -30.910156 33.59375 -27.390625 C 33.59375 -23.867188 32.054688 -20.390625 28.984375 -16.953125 C 25.921875 -13.523438 21.742188 -10.910156 16.453125 -9.109375 C 16.453125 -8.441406 17.140625 -7.894531 18.515625 -7.46875 C 19.898438 -7.050781 21.269531 -6.84375 22.625 -6.84375 C 26.894531 -6.84375 30.269531 -7.597656 32.75 -9.109375 C 32.800781 -9.171875 32.882812 -9.203125 33 -9.203125 C 33.113281 -9.203125 33.171875 -8.664062 33.171875 -7.59375 C 33.171875 -4.332031 32.46875 -1.800781 31.0625 0 Z M 31.0625 0 "/></g></g></g><g fill="#ffffff" fill-opacity="1"><g transform="translate(569.199864, 104.400163)"><g><path d="M 21.4375 2.453125 C 15.019531 2.453125 10.265625 0.820312 7.171875 -2.4375 C 4.078125 -5.707031 2.53125 -9.816406 2.53125 -14.765625 C 2.53125 -21.691406 4.847656 -27.207031 9.484375 -31.3125 C 14.128906 -35.414062 19.800781 -37.46875 26.5 -37.46875 C 27.789062 -37.46875 28.550781 -37.441406 28.78125 -37.390625 C 29.113281 -37.109375 29.28125 -35.757812 29.28125 -33.34375 C 29.28125 -30.925781 28.945312 -29.460938 28.28125 -28.953125 L 27.6875 -28.953125 C 23.351562 -28.953125 19.835938 -27.9375 17.140625 -25.90625 C 16.015625 -25.0625 15.03125 -23.738281 14.1875 -21.9375 C 13.34375 -20.144531 12.921875 -17.976562 12.921875 -15.4375 C 12.921875 -12.90625 13.675781 -10.8125 15.1875 -9.15625 C 16.707031 -7.5 19.15625 -6.671875 22.53125 -6.671875 C 25.175781 -6.671875 27.515625 -7.175781 29.546875 -8.1875 C 29.765625 -8.300781 29.90625 -8.359375 29.96875 -8.359375 C 30.414062 -7.910156 30.640625 -6.390625 30.640625 -3.796875 C 30.640625 -1.210938 30.332031 0.332031 29.71875 0.84375 C 27.851562 1.914062 25.09375 2.453125 21.4375 2.453125 Z M 21.4375 2.453125 "/></g></g></g><g fill="#ffffff" fill-opacity="1"><g transform="translate(601.776872, 104.400163)"><g><path d="M 14.9375 -55.28125 C 14.820312 -53.988281 14.679688 -50.445312 14.515625 -44.65625 C 18.734375 -44.65625 20.84375 -44.566406 20.84375 -44.390625 C 20.84375 -42.484375 20.5625 -40.78125 20 -39.28125 C 19.4375 -37.789062 18.90625 -37.046875 18.40625 -37.046875 L 14.4375 -37.046875 C 14.320312 -28.722656 14.265625 -21.957031 14.265625 -16.75 C 14.265625 -11.550781 14.347656 -8.078125 14.515625 -6.328125 C 14.859375 -3.398438 16.015625 -1.007812 17.984375 0.84375 C 17.984375 1.457031 16.898438 2.351562 14.734375 3.53125 C 12.566406 4.71875 10.523438 5.3125 8.609375 5.3125 C 8.441406 5.3125 8.117188 5.03125 7.640625 4.46875 C 7.160156 3.90625 6.648438 2.976562 6.109375 1.6875 C 5.578125 0.394531 5.238281 -0.867188 5.09375 -2.109375 C 4.957031 -3.347656 4.890625 -7.765625 4.890625 -15.359375 C 4.890625 -22.953125 4.976562 -30.128906 5.15625 -36.890625 L 0.421875 -36.796875 C 0.140625 -37.078125 0 -38.300781 0 -40.46875 C 0 -42.632812 0.253906 -43.941406 0.765625 -44.390625 C 1.992188 -44.453125 3.484375 -44.507812 5.234375 -44.5625 C 5.234375 -47.832031 5.148438 -49.941406 4.984375 -50.890625 C 4.816406 -51.847656 4.734375 -52.410156 4.734375 -52.578125 C 4.734375 -53.140625 5.703125 -53.785156 7.640625 -54.515625 C 9.578125 -55.253906 11.273438 -55.625 12.734375 -55.625 C 14.203125 -55.625 14.9375 -55.507812 14.9375 -55.28125 Z M 14.9375 -55.28125 "/></g></g></g><g fill="#ffffff" fill-opacity="1"><g transform="translate(621.365939, 104.400163)"><g/></g></g></svg>