<svg xmlns="http://www.w3.org/2000/svg" xmlns:xlink="http://www.w3.org/1999/xlink" width="1280" zoomAndPan="magnify" viewBox="0 0 960 599.999999" height="800" preserveAspectRatio="xMidYMid meet" version="1.0"><defs><clipPath id="3f832ee8be"><path d="M 175 6.632812 L 785 6.632812 L 785 165 L 175 165 Z M 175 6.632812 " clip-rule="nonzero"/></clipPath><clipPath id="011ecf7ceb"><path d="M 365 230 L 671 230 L 671 593.132812 L 365 593.132812 Z M 365 230 " clip-rule="nonzero"/></clipPath></defs><g clip-path="url(#3f832ee8be)"><path fill="#000000" d="M 751.984375 6.632812 C 736.730469 6.632812 724.335938 16.636719 720.046875 30.453125 L 699.546875 30.453125 C 644.730469 30.453125 599.445312 72.382812 595.152344 126.695312 C 579.898438 138.605469 560.832031 145.277344 540.8125 144.800781 C 524.605469 133.367188 506.011719 127.171875 485.992188 125.742188 C 482.65625 125.742188 478.839844 125.742188 475.503906 125.742188 C 455.484375 126.695312 436.894531 133.367188 420.6875 144.800781 C 400.664062 145.277344 381.597656 138.605469 366.34375 126.695312 C 361.101562 72.382812 315.816406 30.453125 260.996094 30.453125 L 240.5 30.453125 C 236.207031 16.636719 223.8125 6.632812 208.558594 6.632812 C 189.96875 6.632812 175.191406 21.402344 175.191406 39.984375 C 175.191406 58.5625 189.96875 73.332031 208.558594 73.332031 C 223.8125 73.332031 236.207031 63.328125 240.5 49.511719 L 260.996094 49.511719 C 307.234375 49.511719 344.890625 85.722656 346.800781 131.9375 C 346.800781 134.796875 348.230469 137.175781 350.136719 138.605469 C 370.632812 156.234375 396.851562 165.289062 423.546875 163.859375 C 424.976562 163.859375 426.40625 163.382812 427.359375 162.90625 C 427.835938 162.429688 428.3125 162.429688 428.789062 161.953125 C 442.136719 151.945312 458.34375 145.753906 475.027344 145.277344 C 475.027344 145.277344 475.503906 145.277344 475.503906 145.277344 C 478.363281 145.277344 481.226562 145.277344 484.085938 145.277344 C 484.085938 145.277344 484.085938 145.277344 484.5625 145.277344 C 501.722656 146.230469 517.929688 151.945312 531.277344 161.953125 C 532.230469 162.90625 533.660156 163.382812 535.089844 163.859375 C 535.566406 163.859375 536.042969 163.859375 536.519531 163.859375 C 538.425781 163.859375 540.335938 163.859375 541.765625 163.859375 C 567.027344 163.859375 590.863281 154.804688 609.929688 138.605469 C 612.3125 136.699219 613.265625 133.84375 613.265625 130.984375 C 615.652344 85.246094 652.832031 49.988281 699.070312 49.988281 L 719.570312 49.988281 C 723.859375 63.804688 736.253906 73.808594 751.507812 73.808594 C 770.097656 73.808594 784.875 59.039062 784.875 40.460938 C 784.875 21.878906 770.574219 6.632812 751.984375 6.632812 Z M 208.558594 54.277344 C 200.457031 54.277344 194.257812 48.082031 194.257812 39.984375 C 194.257812 31.882812 200.457031 25.691406 208.558594 25.691406 C 216.664062 25.691406 222.859375 31.882812 222.859375 39.984375 C 222.859375 48.082031 216.664062 54.277344 208.558594 54.277344 Z M 751.984375 54.277344 C 743.878906 54.277344 737.683594 48.082031 737.683594 39.984375 C 737.683594 31.882812 743.878906 25.691406 751.984375 25.691406 C 760.085938 25.691406 766.285156 31.882812 766.285156 39.984375 C 766.285156 48.082031 760.085938 54.277344 751.984375 54.277344 Z M 751.984375 54.277344 " fill-opacity="1" fill-rule="nonzero"/></g><path fill="#000000" d="M 576.085938 272.964844 C 580.851562 262.957031 583.710938 251.523438 584.667969 240.089844 L 672.375 240.089844 C 676.667969 253.90625 689.0625 263.910156 704.316406 263.910156 C 722.90625 263.910156 737.683594 249.140625 737.683594 230.558594 C 737.683594 211.980469 722.90625 197.207031 704.316406 197.207031 C 689.0625 197.207031 676.667969 207.214844 672.375 221.03125 L 566.074219 221.03125 L 566.074219 230.558594 C 566.074219 247.234375 561.308594 262.957031 553.203125 275.820312 C 555.113281 276.296875 557.019531 277.25 558.449219 278.203125 C 564.167969 275.34375 569.890625 273.914062 576.085938 272.964844 Z M 704.316406 216.265625 C 712.417969 216.265625 718.617188 222.460938 718.617188 230.558594 C 718.617188 238.660156 712.417969 244.851562 704.316406 244.851562 C 696.210938 244.851562 690.015625 238.660156 690.015625 230.558594 C 690.015625 222.460938 696.210938 216.265625 704.316406 216.265625 Z M 704.316406 216.265625 " fill-opacity="1" fill-rule="nonzero"/><path fill="#000000" d="M 751.984375 387.785156 C 736.730469 387.785156 724.335938 397.789062 720.046875 411.609375 L 699.546875 411.609375 C 695.734375 411.609375 691.445312 411.132812 687.628906 410.65625 L 686.675781 429.710938 C 690.96875 430.1875 694.78125 430.664062 699.070312 430.664062 L 719.570312 430.664062 C 723.859375 444.480469 736.253906 454.488281 751.507812 454.488281 C 770.097656 454.488281 784.875 439.71875 784.875 421.136719 C 784.875 402.554688 770.574219 387.785156 751.984375 387.785156 Z M 751.984375 435.429688 C 743.878906 435.429688 737.683594 429.234375 737.683594 421.136719 C 737.683594 413.035156 743.878906 406.84375 751.984375 406.84375 C 760.085938 406.84375 766.285156 413.035156 766.285156 421.136719 C 766.285156 429.234375 760.085938 435.429688 751.984375 435.429688 Z M 751.984375 435.429688 " fill-opacity="1" fill-rule="nonzero"/><g clip-path="url(#011ecf7ceb)"><path fill="#000000" d="M 533.183594 291.542969 C 528.894531 291.542969 525.082031 292.019531 521.265625 293.449219 L 521.265625 268.675781 C 521.265625 247.710938 504.105469 230.558594 483.132812 230.558594 C 462.15625 230.558594 444.996094 247.710938 444.996094 268.675781 L 444.996094 399.695312 L 433.078125 385.402344 C 425.929688 376.351562 414.964844 371.109375 403.523438 371.109375 C 394.46875 371.109375 385.886719 374.445312 379.214844 380.164062 C 363.484375 393.503906 361.101562 417.324219 374.445312 433.523438 L 446.425781 522.140625 L 447.855469 529.765625 C 453.578125 566.453125 484.5625 593.132812 521.742188 593.132812 L 589.433594 593.132812 C 629.953125 593.132812 662.84375 561.210938 664.273438 520.714844 L 670.945312 359.675781 C 671.421875 349.195312 667.609375 339.1875 660.460938 332.042969 C 653.308594 324.417969 643.773438 320.605469 633.289062 320.605469 C 629 320.605469 624.707031 321.558594 620.894531 322.988281 C 617.558594 305.359375 602.304688 292.019531 584.191406 292.019531 L 583.710938 292.019531 C 574.179688 292.019531 565.597656 295.355469 558.925781 301.550781 C 552.25 295.832031 543.671875 292.019531 534.136719 292.019531 L 533.183594 292.019531 Z M 552.25 329.183594 L 552.25 387.785156 L 564.644531 386.832031 L 564.644531 329.183594 C 564.644531 318.703125 572.75 310.601562 583.234375 310.601562 L 583.710938 310.601562 C 593.722656 310.601562 602.304688 318.703125 602.304688 329.183594 L 602.304688 384.449219 L 614.699219 383.496094 L 614.699219 357.769531 C 614.699219 347.289062 622.800781 339.1875 633.289062 339.1875 C 643.773438 339.1875 652.355469 347.765625 651.878906 358.246094 L 645.207031 519.285156 C 644.253906 549.300781 619.464844 573.597656 589.433594 573.597656 L 521.265625 573.597656 C 493.617188 573.597656 470.261719 553.585938 465.972656 526.429688 L 464.0625 513.566406 L 389.222656 421.136719 C 382.550781 413.035156 383.980469 401.125 391.609375 394.457031 C 394.945312 391.597656 399.710938 390.167969 404 390.167969 C 409.722656 390.167969 414.964844 392.550781 418.777344 397.316406 L 464.542969 453.535156 L 464.542969 268.675781 C 464.542969 258.195312 473.121094 249.617188 483.609375 249.617188 C 494.09375 249.617188 502.675781 258.195312 502.675781 268.675781 L 502.675781 391.121094 L 515.070312 390.167969 L 515.070312 329.183594 C 515.070312 318.703125 523.171875 310.601562 533.660156 310.601562 L 534.136719 310.601562 C 543.671875 310.601562 552.25 318.703125 552.25 329.183594 Z M 552.25 329.183594 " fill-opacity="1" fill-rule="nonzero"/></g><path fill="#000000" d="M 480.273438 163.859375 C 443.566406 163.859375 413.535156 193.875 413.535156 230.558594 C 413.535156 244.851562 418.300781 258.195312 425.929688 269.152344 L 425.929688 268.199219 C 425.929688 257.71875 428.789062 248.1875 433.554688 240.089844 C 433.078125 236.753906 432.601562 233.894531 432.601562 230.082031 C 432.601562 203.878906 454.054688 182.4375 480.273438 182.4375 C 506.488281 182.4375 527.941406 203.878906 527.941406 230.082031 C 527.941406 231.035156 527.941406 231.988281 527.941406 232.941406 C 534.136719 241.042969 538.425781 250.570312 539.859375 260.574219 C 544.625 251.523438 547.484375 241.042969 547.484375 230.082031 C 547.007812 193.875 516.976562 163.859375 480.273438 163.859375 Z M 480.273438 163.859375 " fill-opacity="1" fill-rule="nonzero"/><path fill="#000000" d="M 346.800781 330.613281 C 344.414062 376.351562 307.234375 411.609375 260.996094 411.609375 L 240.5 411.609375 C 236.207031 397.789062 223.8125 387.785156 208.558594 387.785156 C 189.96875 387.785156 175.191406 402.554688 175.191406 421.136719 C 175.191406 439.71875 189.96875 454.488281 208.558594 454.488281 C 223.8125 454.488281 236.207031 444.480469 240.5 430.664062 L 260.996094 430.664062 C 315.816406 430.664062 361.101562 388.738281 365.390625 334.425781 C 380.644531 322.511719 399.710938 315.84375 419.734375 316.320312 C 421.164062 317.273438 422.59375 318.226562 424.023438 319.179688 C 424.023438 319.179688 424.5 319.179688 424.5 319.65625 C 424.976562 320.128906 425.453125 320.128906 425.929688 320.605469 L 425.929688 297.261719 C 406.863281 281.539062 394.46875 257.71875 394.46875 231.035156 L 394.46875 221.507812 L 288.167969 221.507812 C 283.875 207.691406 271.484375 197.683594 256.230469 197.683594 C 237.636719 197.683594 222.859375 212.453125 222.859375 231.035156 C 222.859375 249.617188 237.636719 264.386719 256.230469 264.386719 C 271.484375 264.386719 283.875 254.382812 288.167969 240.566406 L 375.878906 240.566406 C 377.785156 262.957031 386.839844 282.96875 400.664062 299.167969 C 382.074219 302.503906 364.4375 310.601562 349.660156 322.988281 C 347.753906 324.417969 346.800781 327.277344 346.800781 330.613281 Z M 208.558594 435.429688 C 200.457031 435.429688 194.257812 429.234375 194.257812 421.136719 C 194.257812 413.035156 200.457031 406.84375 208.558594 406.84375 C 216.664062 406.84375 222.859375 413.035156 222.859375 421.136719 C 222.859375 429.234375 216.664062 435.429688 208.558594 435.429688 Z M 256.230469 244.851562 C 248.125 244.851562 241.929688 238.660156 241.929688 230.558594 C 241.929688 222.460938 248.125 216.265625 256.230469 216.265625 C 264.332031 216.265625 270.53125 222.460938 270.53125 230.558594 C 270.53125 238.660156 264.332031 244.851562 256.230469 244.851562 Z M 256.230469 244.851562 " fill-opacity="1" fill-rule="nonzero"/></svg>