<svg xmlns="http://www.w3.org/2000/svg" xmlns:xlink="http://www.w3.org/1999/xlink" width="1080" zoomAndPan="magnify" viewBox="0 0 810 1439.999935" height="1920" preserveAspectRatio="xMidYMid meet" version="1.0"><defs><clipPath id="001245e68c"><path d="M 0 0.105469 L 810 0.105469 L 810 318 L 0 318 Z M 0 0.105469 " clip-rule="nonzero"/></clipPath><clipPath id="3633039bea"><path d="M 0 0.105469 L 810 0.105469 L 810 259 L 0 259 Z M 0 0.105469 " clip-rule="nonzero"/></clipPath><clipPath id="d1023e690f"><path d="M 0 0.105469 L 810 0.105469 L 810 210 L 0 210 Z M 0 0.105469 " clip-rule="nonzero"/></clipPath><clipPath id="22a0019cf9"><path d="M 0 0.105469 L 810 0.105469 L 810 150 L 0 150 Z M 0 0.105469 " clip-rule="nonzero"/></clipPath></defs><rect x="-81" width="972" fill="#ffffff" y="-143.999994" height="1727.999922" fill-opacity="1"/><rect x="-81" width="972" fill="#f4f0e0" y="-143.999994" height="1727.999922" fill-opacity="1"/><g clip-path="url(#001245e68c)"><path fill="#223a76" d="M 904.429688 274.941406 L 904.429688 0 L -484.164062 0 L -484.164062 304.351562 C -454.605469 289.890625 -426.046875 269.042969 -394.320312 260.289062 C -307.171875 236.21875 -222.785156 306.136719 -132.980469 316.570312 C -9.765625 330.882812 106.035156 231.949219 229.101562 247.511719 C 305.539062 257.175781 377.21875 310.648438 452.738281 295.429688 C 512.679688 283.347656 557.335938 230.386719 616.527344 215.054688 C 670.792969 201.011719 727.523438 220.722656 779.769531 241.011719 C 819.957031 256.628906 862.070312 272.980469 904.429688 274.941406 Z M 904.429688 274.941406 " fill-opacity="1" fill-rule="nonzero"/></g><path fill="#223a76" d="M 778.9375 243.171875 C 725.957031 222.601562 669.824219 203.652344 617.101562 217.296875 C 588.996094 224.582031 563.652344 240.808594 539.148438 256.5 C 512.394531 273.625 484.730469 291.335938 453.203125 297.695312 C 406.777344 307.046875 361.101562 290.558594 316.917969 274.617188 C 288.273438 264.277344 258.652344 253.585938 228.816406 249.808594 C 167.503906 242.058594 106.730469 263.414062 47.964844 284.078125 C -10.726562 304.710938 -71.425781 326.050781 -133.246094 318.867188 C -168.839844 314.730469 -203.851562 301.230469 -237.714844 288.171875 C -291.113281 267.574219 -341.554688 248.113281 -393.699219 262.519531 C -414.566406 268.285156 -434.414062 279.550781 -453.605469 290.4375 C -463.640625 296.132812 -473.792969 301.898438 -484.164062 306.898438 L -484.164062 301.789062 C -474.785156 297.140625 -465.417969 291.828125 -455.890625 286.421875 C -436.449219 275.386719 -416.351562 263.972656 -394.933594 258.054688 C -341.3125 243.246094 -287.796875 263.886719 -236.050781 283.847656 C -202.464844 296.808594 -167.730469 310.203125 -132.710938 314.277344 C -71.953125 321.328125 -11.773438 300.175781 46.425781 279.707031 C 97.128906 261.886719 149.292969 243.550781 202.367188 243.550781 C 211.347656 243.550781 220.363281 244.078125 229.386719 245.214844 C 259.742188 249.058594 289.605469 259.832031 318.488281 270.257812 C 364.074219 286.714844 407.136719 302.257812 452.285156 293.160156 C 482.972656 286.976562 510.265625 269.5 536.648438 252.605469 C 561.464844 236.707031 587.128906 220.285156 615.945312 212.816406 C 628.804688 209.492188 641.808594 208.039062 654.898438 208.039062 C 696.882812 208.039062 739.695312 222.972656 780.613281 238.855469 C 821.105469 254.585938 862.652344 270.71875 904.429688 272.644531 L 904.429688 277.292969 C 861.882812 275.394531 819.875 259.074219 778.9375 243.171875 Z M 778.9375 243.171875 " fill-opacity="1" fill-rule="nonzero"/><g clip-path="url(#3633039bea)"><path fill="#223a76" d="M 904.429688 0 L -484.164062 0 L -484.164062 258.167969 C -470.210938 254.703125 -456.566406 249.445312 -443.957031 243.160156 C -404.828125 223.65625 -370.167969 195.226562 -329.121094 180.191406 C -255.296875 153.152344 -173.285156 173.230469 -98.226562 196.617188 C -23.160156 220 55.035156 246.863281 132.335938 232.515625 C 189.472656 221.898438 242.785156 189.078125 300.855469 191.273438 C 355.640625 193.339844 405.027344 226.460938 459.542969 232.300781 C 566.78125 243.789062 663.90625 148.949219 771.21875 159.761719 C 802.425781 162.910156 832.039062 174.953125 862.902344 180.5625 C 875.398438 182.832031 890.136719 184.230469 904.429688 182.988281 Z M 904.429688 0 " fill-opacity="1" fill-rule="nonzero"/></g><path fill="#223a76" d="M 862.496094 182.839844 C 849.414062 180.460938 836.398438 176.898438 823.808594 173.445312 C 806.636719 168.734375 788.878906 163.863281 770.984375 162.066406 C 718.0625 156.734375 666.527344 177.832031 616.6875 198.246094 C 566.03125 218.980469 513.652344 240.421875 459.292969 234.605469 C 433.464844 231.839844 408.515625 222.914062 384.382812 214.289062 C 357.40625 204.640625 329.515625 194.671875 300.769531 193.589844 C 265.835938 192.28125 231.785156 204.078125 198.867188 215.492188 C 177.425781 222.925781 155.265625 230.609375 132.761719 234.785156 C 59.351562 248.417969 -14.496094 225.277344 -85.90625 202.890625 C -90.257812 201.53125 -94.589844 200.171875 -98.910156 198.820312 C -170.648438 176.480469 -253.445312 154.9375 -328.324219 182.359375 C -352.625 191.265625 -375.160156 205.207031 -396.949219 218.683594 C -411.761719 227.847656 -427.082031 237.328125 -442.921875 245.234375 C -452.050781 249.78125 -466.796875 256.242188 -484.164062 260.507812 L -484.164062 255.742188 C -467.703125 251.574219 -453.707031 245.4375 -444.984375 241.085938 C -429.332031 233.285156 -414.105469 223.859375 -399.386719 214.75 C -377.398438 201.152344 -354.664062 187.082031 -329.917969 178.019531 C -295.972656 165.585938 -258.015625 162.039062 -213.867188 167.195312 C -173.035156 171.953125 -132.144531 183.617188 -97.53125 194.402344 C -93.210938 195.753906 -88.867188 197.117188 -84.527344 198.476562 C -13.652344 220.683594 59.636719 243.660156 131.910156 230.238281 C 154.082031 226.117188 176.074219 218.492188 197.347656 211.113281 C 230.675781 199.558594 265.140625 187.609375 300.949219 188.960938 C 330.394531 190.070312 358.640625 200.171875 385.9375 209.925781 C 409.8125 218.460938 434.503906 227.292969 459.792969 229.996094 C 512.984375 235.699219 564.808594 214.480469 614.925781 193.957031 C 665.296875 173.34375 717.378906 152.015625 771.449219 157.457031 C 789.722656 159.300781 807.671875 164.222656 825.03125 168.984375 C 837.519531 172.398438 850.441406 175.945312 863.316406 178.285156 C 873.898438 180.210938 889.117188 182.042969 904.429688 180.703125 L 904.429688 185.320312 C 888.730469 186.65625 873.289062 184.804688 862.496094 182.839844 Z M 862.496094 182.839844 " fill-opacity="1" fill-rule="nonzero"/><g clip-path="url(#d1023e690f)"><path fill="#223a76" d="M 904.429688 80.160156 L 904.429688 0 L -484.164062 0 L -484.164062 209.6875 C -417.464844 196.792969 -354.125 166.660156 -291.363281 139.230469 C -214.332031 105.5625 -131.710938 74.800781 -48.265625 84.945312 C 39.910156 95.675781 117.21875 150.78125 204.625 166.546875 C 306.28125 184.886719 408.628906 148.515625 510.300781 130.324219 C 541.765625 124.695312 573.511719 120.796875 605.226562 116.902344 C 641.765625 112.410156 678.292969 107.929688 714.824219 103.441406 C 778.023438 95.683594 841.230469 87.917969 904.429688 80.160156 Z M 904.429688 80.160156 " fill-opacity="1" fill-rule="nonzero"/></g><path fill="#223a76" d="M 793.546875 96.109375 L 605.511719 119.195312 C 574.351562 123.019531 542.128906 126.980469 510.707031 132.601562 C 485.511719 137.109375 459.800781 142.839844 434.945312 148.386719 C 359.304688 165.25 281.082031 182.691406 204.21875 168.824219 C 162.800781 161.355469 123.125 144.894531 84.761719 128.972656 C 42.003906 111.226562 -2.21875 92.878906 -48.542969 87.242188 C -133.773438 76.871094 -218.089844 109.734375 -290.4375 141.347656 C -297.710938 144.523438 -304.996094 147.746094 -312.292969 150.96875 C -367.714844 175.433594 -424.628906 200.566406 -484.164062 212.027344 L -484.164062 207.308594 C -425.433594 195.867188 -369.058594 170.972656 -314.164062 146.738281 C -306.859375 143.507812 -299.574219 140.285156 -292.289062 137.109375 C -228.78125 109.355469 -156.113281 80.660156 -81.332031 80.660156 C -70.261719 80.660156 -59.125 81.289062 -47.988281 82.648438 C -1.023438 88.359375 43.484375 106.828125 86.53125 124.695312 C 124.671875 140.523438 164.105469 156.890625 205.03125 164.269531 C 280.988281 177.972656 358.742188 160.632812 433.9375 143.867188 C 458.847656 138.3125 484.59375 132.574219 509.894531 128.046875 C 541.433594 122.398438 573.722656 118.4375 604.949219 114.605469 L 792.980469 91.515625 C 830.132812 86.953125 867.28125 82.390625 904.429688 77.835938 L 904.429688 82.492188 C 867.476562 87.027344 830.511719 91.574219 793.546875 96.109375 Z M 793.546875 96.109375 " fill-opacity="1" fill-rule="nonzero"/><g clip-path="url(#22a0019cf9)"><path fill="#223a76" d="M 904.429688 0 L -484.164062 0 L -484.164062 148.976562 C -438.960938 151.734375 -393.035156 144.246094 -350.054688 130.628906 C -256.332031 100.921875 -168.757812 48.480469 -71.039062 37.601562 C 79.476562 20.847656 223.296875 105.171875 374.476562 114.171875 C 454.183594 118.910156 533.460938 102.542969 611.640625 86.269531 C 709.230469 65.941406 806.832031 45.621094 904.429688 25.300781 Z M 904.429688 0 " fill-opacity="1" fill-rule="nonzero"/></g><path fill="#223a76" d="M 612.113281 88.535156 C 534.8125 104.625 454.886719 121.269531 374.339844 116.476562 C 309.222656 112.605469 244.644531 94.582031 182.1875 77.140625 C 99.84375 54.15625 14.703125 30.382812 -70.777344 39.910156 C -133.394531 46.878906 -193.03125 71.492188 -250.695312 95.3125 C -282.753906 108.542969 -315.902344 122.234375 -349.359375 132.832031 C -396.300781 147.710938 -441.578125 153.902344 -484.164062 151.292969 L -484.164062 146.664062 C -477.859375 147.0625 -471.5 147.253906 -465.082031 147.253906 C -428.621094 147.253906 -390.292969 140.953125 -350.757812 128.417969 C -317.484375 117.882812 -284.4375 104.226562 -252.460938 91.027344 C -194.492188 67.097656 -134.550781 42.34375 -71.296875 35.308594 C 15.074219 25.6875 100.667969 49.582031 183.433594 72.6875 C 245.652344 90.054688 309.992188 108.015625 374.617188 111.855469 C 454.542969 116.613281 534.167969 100.035156 611.167969 84 L 904.429688 22.929688 L 904.429688 27.660156 Z M 612.113281 88.535156 " fill-opacity="1" fill-rule="nonzero"/></svg>